<svg id="Layer_1" data-name="Layer 1" xmlns="http://www.w3.org/2000/svg" width="24" height="24" viewBox="0 0 24 24"><defs><style>.cls-1{fill:#707e8f;}</style></defs><title>EPC</title><path class="cls-1" d="M18.64,11H11.36c-.2,0-.36-.22-.36-.5s.16-.5.36-.5h7.28c.2,0,.36.22.36.5S18.84,11,18.64,11Z"/><path class="cls-1" d="M15.58,14H11.42a.51.51,0,0,1,0-1h4.16a.51.51,0,0,1,0,1Z"/><path class="cls-1" d="M3.5,5a.5.5,0,0,1,0,1h-2a.5.5,0,0,1,0-1H4M3.5,4h-2a1.5,1.5,0,0,0,0,3h2a1.5,1.5,0,0,0,0-3Z"/><path class="cls-1" d="M3.5,18a.5.5,0,0,1,0,1h-2a.5.5,0,0,1,0-1H4m-.5-1h-2a1.5,1.5,0,0,0,0,3h2a1.5,1.5,0,0,0,0-3Z"/><path class="cls-1" d="M2.5,15.5A.5.5,0,0,1,2,15V8A.5.5,0,0,1,3,8v7A.5.5,0,0,1,2.5,15.5Z"/><path class="cls-1" d="M22.5,24H3.5A1.48,1.48,0,0,1,2,22.54v-1a.5.5,0,0,1,1,0v1a.48.48,0,0,0,.5.46h19a.48.48,0,0,0,.5-.46V1.46A.48.48,0,0,0,22.5,1H3.5a.48.48,0,0,0-.5.46v1a.5.5,0,0,1-1,0v-1A1.48,1.48,0,0,1,3.5,0h19A1.48,1.48,0,0,1,24,1.46V22.54A1.48,1.48,0,0,1,22.5,24Z"/><rect class="cls-1" x="7" y="1" width="1" height="22"/></svg>