<svg id="Icons" xmlns="http://www.w3.org/2000/svg" width="760" height="840" viewBox="0 0 760 840"><defs><style>.cls-1{fill:#717e90;}.cls-2{fill:#5386c5;}.cls-3{fill:#fff;}.cls-4{fill:#d5d9de;}.cls-5{fill:#5286c5;}.cls-6{fill:none;stroke:#717e90;stroke-linecap:round;stroke-miterlimit:10;stroke-width:2px;}</style></defs><title>spritesheet</title><path class="cls-1" d="M88.3,47a8.81,8.81,0,0,1-8.7-8.9V29.2a1,1,0,0,1,.8-1,52.31,52.31,0,0,1,15.8,0,1,1,0,0,1,.8,1V38A8.9,8.9,0,0,1,88.3,47ZM81.5,30.1V38a6.8,6.8,0,1,0,13.6,0V30.1A51.6,51.6,0,0,0,81.5,30.1Z"/><path class="cls-1" d="M87.1,40.8h0a1.66,1.66,0,0,1-1.2-.5L83.7,38a1,1,0,0,1,1.4-1.4l2,2.1,4.2-4.2a1,1,0,0,1,1.4,1.4l-4.4,4.4A1.66,1.66,0,0,1,87.1,40.8Z"/><path class="cls-1" d="M73.6,19.8A8.88,8.88,0,0,1,64.8,11h0a8.75,8.75,0,0,1,8.8-8.8h0A8.88,8.88,0,0,1,82.4,11a8.81,8.81,0,0,1-8.8,8.8ZM66.8,11a6.89,6.89,0,0,0,6.8,6.9h0A6.83,6.83,0,0,0,80.4,11a6.57,6.57,0,0,0-2-4.8,6.73,6.73,0,0,0-4.8-2h0A6.74,6.74,0,0,0,66.8,11Z"/><path class="cls-1" d="M88.7,50.2H60a1,1,0,0,1-1-1V35.7A13.17,13.17,0,0,1,72,22.4h4.5a12.92,12.92,0,0,1,7.1,2.2,1,1,0,0,1-1.1,1.7,10.93,10.93,0,0,0-6-1.9H72A11.27,11.27,0,0,0,60.9,35.8V48.2H88.7a1,1,0,0,1,0,2Z"/><path class="cls-1" d="M253.2,49H214.8a5.83,5.83,0,0,1-5.8-5.9V18.65a5.83,5.83,0,0,1,5.8-5.9h38.4a5.83,5.83,0,0,1,5.8,5.9v24.4A5.83,5.83,0,0,1,253.2,49Zm-38.4-34.2a3.82,3.82,0,0,0-3.8,3.9v24.4a3.88,3.88,0,0,0,3.8,3.9h38.4a3.82,3.82,0,0,0,3.8-3.9V18.65a3.88,3.88,0,0,0-3.8-3.9Z"/><path class="cls-1" d="M243.6,14.55a1,1,0,0,1-1-1V9a3.88,3.88,0,0,0-3.8-3.9h-9.6A3.82,3.82,0,0,0,225.4,9v4.6a.94.94,0,0,1-1,1,1,1,0,0,1-1-1V9a5.83,5.83,0,0,1,5.8-5.9h9.6A5.83,5.83,0,0,1,244.6,9v4.6A1,1,0,0,1,243.6,14.55Z"/><path class="cls-1" d="M234,40h-.5a8.33,8.33,0,0,1-7.5-8.5v-7.6a1,1,0,0,1,.9-1,49,49,0,0,1,14.3,0,1.06,1.06,0,0,1,.9,1v7.9a8.57,8.57,0,0,1-2.5,6A8.4,8.4,0,0,1,234,40Zm-6-15.3v6.8a6.26,6.26,0,0,0,5.6,6.4,5.8,5.8,0,0,0,4.5-1.7,6.36,6.36,0,0,0,1.9-4.5v-7A48.19,48.19,0,0,0,228,24.65Z"/><path class="cls-1" d="M233,34.25h0a1.85,1.85,0,0,1-1.2-.5l-2-2.1a1,1,0,0,1,1.4-1.4l1.8,1.8,3.7-3.8a1,1,0,0,1,1.4,1.4l-4,4A1.15,1.15,0,0,1,233,34.25Z"/><path class="cls-1" d="M278.69,16.1a2,2,0,0,1-.7-.1c-2.2-.5-4.2-3.2-4.6-6.4a8.78,8.78,0,0,1,1-5.4,3.89,3.89,0,0,1,3.3-2.2c2.4,0,4.8,2.9,5.2,6.5a8.78,8.78,0,0,1-1,5.4A3.64,3.64,0,0,1,278.69,16.1ZM277.79,4c-.8,0-1.4.9-1.6,1.2h0a6.88,6.88,0,0,0-.7,4.1c.3,2.6,1.8,4.5,3,4.7q1,.15,1.8-1.2a6.88,6.88,0,0,0,.7-4.1C280.69,6,279,4,277.79,4Z"/><path class="cls-1" d="M268.59,28.4a5.85,5.85,0,0,1-2.2-.5,7.69,7.69,0,0,1-3.4-3.5,8.41,8.41,0,0,1-.9-4.8,4.43,4.43,0,0,1,2.2-3.3,4.36,4.36,0,0,1,4,.1,7.69,7.69,0,0,1,3.4,3.5,8.41,8.41,0,0,1,.9,4.8,4.43,4.43,0,0,1-2.2,3.3h0A5.84,5.84,0,0,1,268.59,28.4Zm-2.5-10.6a1.88,1.88,0,0,0-.8.2,2.31,2.31,0,0,0-1.1,1.9,6,6,0,0,0,.7,3.6,5.74,5.74,0,0,0,2.5,2.6,2.18,2.18,0,0,0,2.2.1h0a2.31,2.31,0,0,0,1.1-1.9,6,6,0,0,0-.7-3.6,5.74,5.74,0,0,0-2.5-2.6A5.77,5.77,0,0,0,266.09,17.8Z"/><path class="cls-1" d="M293.29,16.1h-.4a4.15,4.15,0,0,1-3.1-2.5,9.51,9.51,0,0,1-.8-5.1c.4-3.6,2.8-6.5,5.2-6.5h.4a4.15,4.15,0,0,1,3.1,2.5,9.51,9.51,0,0,1,.8,5.1,8.47,8.47,0,0,1-2.9,5.6A3.52,3.52,0,0,1,293.29,16.1ZM290,8.6l1,.1a7.53,7.53,0,0,0,.6,4,2.48,2.48,0,0,0,1.5,1.4,1.59,1.59,0,0,0,1.2-.4,6.32,6.32,0,0,0,2.1-4.3,7.53,7.53,0,0,0-.6-4,2.48,2.48,0,0,0-1.5-1.4h-.1c-1.3,0-2.9,2-3.2,4.7Z"/><path class="cls-1" d="M303.39,28.4a3.92,3.92,0,0,1-1.8-.4,4.18,4.18,0,0,1-2.2-3.3,8.29,8.29,0,0,1,4.3-8.3,4.36,4.36,0,0,1,4-.1,4.43,4.43,0,0,1,2.2,3.3,8.29,8.29,0,0,1-4.3,8.3h0A5.85,5.85,0,0,1,303.39,28.4Zm2.5-10.6a3.08,3.08,0,0,0-1.3.3,6.29,6.29,0,0,0-3.2,6.2,2.58,2.58,0,0,0,1.1,1.9,2.46,2.46,0,0,0,2.2-.1h0a6.29,6.29,0,0,0,3.2-6.2,2.58,2.58,0,0,0-1.1-1.9A2.39,2.39,0,0,0,305.89,17.8Z"/><path class="cls-1" d="M292.89,50a8,8,0,0,1-2.7-.4,16.27,16.27,0,0,0-8.2,0,10,10,0,0,1-8.4-1.4,9.29,9.29,0,0,1-1.1-14.7,23.07,23.07,0,0,0,5-7.4,9.16,9.16,0,0,1,8.6-5.7,9.31,9.31,0,0,1,8.6,5.7,21,21,0,0,0,1.3,2.6,1,1,0,0,1-1.8,1,24.37,24.37,0,0,1-1.4-2.8,7.28,7.28,0,0,0-6.8-4.5,7.44,7.44,0,0,0-6.8,4.5,25.89,25.89,0,0,1-5.5,8.1,7.2,7.2,0,0,0-2.4,5.5,7.51,7.51,0,0,0,3.3,6.2,8.58,8.58,0,0,0,6.8,1.1,18.32,18.32,0,0,1,9.3,0,9.26,9.26,0,0,0,3.7.2,1,1,0,0,1,.4,2A12.05,12.05,0,0,0,292.89,50Z"/><path class="cls-1" d="M301.29,48.8h-.5a8.19,8.19,0,0,1-7.5-8.2V33.2a1,1,0,0,1,.9-1,48.27,48.27,0,0,1,14.2,0,1.06,1.06,0,0,1,.9,1v7.7a7.94,7.94,0,0,1-2.5,5.8A8.35,8.35,0,0,1,301.29,48.8Zm-6-14.8v6.6a6,6,0,0,0,10.1,4.6,6,6,0,0,0,1.9-4.4V34A40.22,40.22,0,0,0,295.29,34Z"/><path class="cls-1" d="M300.29,43.2h0a1.85,1.85,0,0,1-1.2-.5l-2-2a1,1,0,1,1,1.4-1.4l1.8,1.8,3.7-3.7a1,1,0,1,1,1.4,1.4l-4,3.9C301.19,43.1,300.79,43.2,300.29,43.2Z"/><path class="cls-1" d="M338.68,48.55a15.18,15.18,0,0,1-5.9-1.2l-8.3-3.4a1.86,1.86,0,0,1-1.9,1.7h-7.8a1.92,1.92,0,0,1-1.9-2V26.55a2,2,0,0,1,1.9-2h7.8a2,2,0,0,1,1.9,1.9h5.2a6.86,6.86,0,0,1,3.7,1l5,2.8h6a4.91,4.91,0,0,1,4.7,3.9l7.5-3a4.71,4.71,0,0,1,4.3.6,4.88,4.88,0,0,1,2,3.9,4.79,4.79,0,0,1-2.9,4.4l-14.9,7.2A17.41,17.41,0,0,1,338.68,48.55Zm-14.1-6.8h0l9,3.7a13.7,13.7,0,0,0,10.7-.2l14.9-7.2a2.72,2.72,0,0,0,1.7-2.5,2.66,2.66,0,0,0-1.1-2.2h0a2.73,2.73,0,0,0-1.8-.5l-11.3,4.5a4.28,4.28,0,0,1-2.2.6h-9.6a1,1,0,0,1-1-1,.94.94,0,0,1,1-1h9.5a2.77,2.77,0,0,0,1.3-.3.1.1,0,0,0,.1-.1l1.3-.5a2.75,2.75,0,0,0-2.7-2.7h-6.1a1.4,1.4,0,0,1-.9-.3l-5-2.8a5.19,5.19,0,0,0-2.7-.7h-5.2v13.2Zm-2-15.2-7.7.1.1,17.1,7.7-.1V26.55Z"/><path class="cls-1" d="M351.38,29.25a6,6,0,0,1-5.9-6,5.9,5.9,0,1,1,5.9,6Zm0-10.2a4.2,4.2,0,1,0,4.2,4.2A4.23,4.23,0,0,0,351.38,19.05Z"/><path class="cls-1" d="M347.58,15.45a6,6,0,0,1-5.9-6,5.9,5.9,0,1,1,11.8,0A6,6,0,0,1,347.58,15.45Zm0-10.2a4.2,4.2,0,1,0,4.2,4.2A4.29,4.29,0,0,0,347.58,5.25Z"/><path class="cls-1" d="M336,26.35a6,6,0,0,1-5.9-6,5.9,5.9,0,1,1,11.8,0A6,6,0,0,1,336,26.35Zm0-10.3a4.2,4.2,0,1,0,4.2,4.2A4.23,4.23,0,0,0,336,16.05Z"/><path class="cls-1" d="M465.58,36.69h-27.3a1,1,0,0,1,0-2h27.3a1,1,0,0,1,0,2Z"/><path class="cls-1" d="M456.48,18.89H454a1,1,0,0,1-1-1.1,1,1,0,0,1,1-1c1.9.1,3.8,0,5.7,0,1.6,0,3.3-.1,5,0V15l-22.9-10.8L418.88,15v1.7h10.8a1,1,0,0,1,1,1,.94.94,0,0,1-1,1h-11.8a1,1,0,0,1-1-1v-3.4a.87.87,0,0,1,.6-.9l24.1-11.3a1.1,1.1,0,0,1,.8,0l23.9,11.3a1,1,0,0,1,.6.9v3.5a.91.91,0,0,1-.3.7,1.08,1.08,0,0,1-.7.3c-2-.1-4,0-5.9,0C458.78,18.79,457.68,18.89,456.48,18.89Z"/><path class="cls-1" d="M422.18,45.59a1,1,0,0,1-1-1V18.09a.94.94,0,0,1,1-1,1,1,0,0,1,1,1v26.4A1,1,0,0,1,422.18,45.59Z"/><path class="cls-1" d="M426.58,45.59a1,1,0,0,1-1-1V18.09a.94.94,0,0,1,1-1,1,1,0,0,1,1,1v26.4A1,1,0,0,1,426.58,45.59Z"/><path class="cls-1" d="M457.18,26.49a1,1,0,0,1-1-1v-7.4a.94.94,0,0,1,1-1,1,1,0,0,1,1,1v7.4A1,1,0,0,1,457.18,26.49Z"/><path class="cls-1" d="M461.58,26.49a1,1,0,0,1-1-1v-7.4a.94.94,0,0,1,1-1,1,1,0,0,1,1,1v7.4A.94.94,0,0,1,461.58,26.49Z"/><path class="cls-1" d="M434.38,46.09h-16.5a1,1,0,0,1,0-2h16.5a1,1,0,0,1,1,1A1.08,1.08,0,0,1,434.38,46.09Z"/><path class="cls-1" d="M463.08,50h-22.3a3.54,3.54,0,0,1-3.5-3.5v-15a3.54,3.54,0,0,1,3.5-3.5h22.3a3.54,3.54,0,0,1,3.5,3.5v14.9A3.56,3.56,0,0,1,463.08,50Zm-22.3-19.9a1.54,1.54,0,0,0-1.5,1.5v14.9a1.54,1.54,0,0,0,1.5,1.5h22.3a1.54,1.54,0,0,0,1.5-1.5v-15a1.54,1.54,0,0,0-1.5-1.5h-22.3Z"/><path class="cls-1" d="M39.3,51H8.6C6,51,4,48.7,4,45.8V6.2C4,3.3,6,1,8.6,1h22a4.22,4.22,0,0,1,3.3,1.6l8.7,10.5a5.5,5.5,0,0,1,1.2,3.5v8.5a1,1,0,1,1-2,0V16.6a3.49,3.49,0,0,0-.8-2.2L32.3,3.9A2.46,2.46,0,0,0,30.4,3H8.4C6.9,3,5.8,4.4,5.8,6.2V45.9a3,3,0,0,0,2.6,3.2H39.1a1,1,0,0,1,1,1C40.1,50.7,39.8,51,39.3,51Z"/><path class="cls-1" d="M23.9,27.2a1,1,0,0,1-1-1V12a1,1,0,0,1,2,0V26.2A1,1,0,0,1,23.9,27.2Z"/><path class="cls-1" d="M30.7,20.1H17.1a1,1,0,0,1-1-1,.94.94,0,0,1,1-1H30.7a1,1,0,0,1,0,2Z"/><path class="cls-1" d="M39.4,47.7a8.84,8.84,0,0,1-8.6-9.1v-9a1,1,0,0,1,.8-1,51,51,0,0,1,15.6,0,1,1,0,0,1,.8,1v9A8.91,8.91,0,0,1,39.4,47.7ZM32.7,30.5v8.1a6.92,6.92,0,0,0,6.7,7.1,6.92,6.92,0,0,0,6.7-7.1V30.5A43,43,0,0,0,32.7,30.5Z"/><path class="cls-1" d="M38.2,41.4a1.85,1.85,0,0,1-1.2-.5l-2.2-2.3a1,1,0,0,1,1.4-1.4l2,2.1L42.4,35a1,1,0,0,1,1.4,1.4l-4.4,4.5a1.85,1.85,0,0,1-1.2.5Z"/><path class="cls-2" d="M88.36,98.7a8.81,8.81,0,0,1-8.7-8.9V81a1,1,0,0,1,.8-1,52.31,52.31,0,0,1,15.8,0,1,1,0,0,1,.8,1v8.8A8.81,8.81,0,0,1,88.36,98.7Zm-6.8-16.8v7.9a6.8,6.8,0,1,0,13.6,0V81.9A44.3,44.3,0,0,0,81.56,81.9Z"/><path class="cls-2" d="M87.16,92.6h0a1.66,1.66,0,0,1-1.2-.5l-2.2-2.3a1,1,0,0,1,1.4-1.4l2,2.1,4.2-4.2a1,1,0,0,1,1.4,1.4l-4.4,4.4A1.66,1.66,0,0,1,87.16,92.6Z"/><path class="cls-2" d="M73.66,71.6a8.88,8.88,0,0,1-8.8-8.8h0a8.75,8.75,0,0,1,8.8-8.8h0a8.88,8.88,0,0,1,8.8,8.8,8.81,8.81,0,0,1-8.8,8.8Zm-6.8-8.8a6.89,6.89,0,0,0,6.8,6.9h0a6.83,6.83,0,0,0,6.8-6.9,6.57,6.57,0,0,0-2-4.8,6.73,6.73,0,0,0-4.8-2h0A6.74,6.74,0,0,0,66.86,62.8Z"/><path class="cls-2" d="M88.76,102H60.06a1,1,0,0,1-1-1V87.5a13.17,13.17,0,0,1,13-13.3h4.5a12.92,12.92,0,0,1,7.1,2.2,1,1,0,1,1-1.1,1.7,10.93,10.93,0,0,0-6-1.9h-4.5A11.27,11.27,0,0,0,61,87.6V100h27.8a1,1,0,0,1,0,2Z"/><path class="cls-2" d="M253.26,101h-38.4a5.83,5.83,0,0,1-5.8-5.9V70.7a5.83,5.83,0,0,1,5.8-5.9h38.4a5.83,5.83,0,0,1,5.8,5.9V95.1A5.83,5.83,0,0,1,253.26,101Zm-38.4-34.2a3.82,3.82,0,0,0-3.8,3.9V95.1a3.88,3.88,0,0,0,3.8,3.9h38.4a3.82,3.82,0,0,0,3.8-3.9V70.7a3.88,3.88,0,0,0-3.8-3.9Z"/><path class="cls-2" d="M243.66,66.5a1,1,0,0,1-1-1V60.9a3.88,3.88,0,0,0-3.8-3.9h-9.6a3.82,3.82,0,0,0-3.8,3.9v4.6a.94.94,0,0,1-1,1,1,1,0,0,1-1-1V60.9a5.83,5.83,0,0,1,5.8-5.9h9.6a5.83,5.83,0,0,1,5.8,5.9v4.6A.94.94,0,0,1,243.66,66.5Z"/><path class="cls-2" d="M234.06,91.9h-.5a8.33,8.33,0,0,1-7.5-8.5V75.8a1,1,0,0,1,.9-1,49,49,0,0,1,14.3,0,1.06,1.06,0,0,1,.9,1v7.9a8.57,8.57,0,0,1-2.5,6A7.94,7.94,0,0,1,234.06,91.9Zm-6-15.2v6.8a6.26,6.26,0,0,0,5.6,6.4,5.8,5.8,0,0,0,4.5-1.7,6.36,6.36,0,0,0,1.9-4.5v-7A48.19,48.19,0,0,0,228.06,76.7Z"/><path class="cls-2" d="M233.06,86.3h0a1.85,1.85,0,0,1-1.2-.5l-2-2.1a1,1,0,0,1,1.4-1.4l1.8,1.8,3.7-3.8a1,1,0,0,1,1.4,1.4l-4,4A1.15,1.15,0,0,1,233.06,86.3Z"/><path class="cls-2" d="M278.75,68.1a2,2,0,0,1-.7-.1c-2.2-.5-4.2-3.2-4.6-6.4a8.78,8.78,0,0,1,1-5.4,3.89,3.89,0,0,1,3.3-2.2c2.4,0,4.8,2.9,5.2,6.5a8.78,8.78,0,0,1-1,5.4A3.64,3.64,0,0,1,278.75,68.1Zm-.9-12.1c-.8,0-1.4.9-1.6,1.2h0a6.88,6.88,0,0,0-.7,4.1c.3,2.6,1.8,4.5,3,4.7q1.05.15,1.8-1.2a6.88,6.88,0,0,0,.7-4.1C280.75,58,279.05,56,277.85,56Z"/><path class="cls-2" d="M268.65,80.4a5.85,5.85,0,0,1-2.2-.5,7.69,7.69,0,0,1-3.4-3.5,8.41,8.41,0,0,1-.9-4.8,4.43,4.43,0,0,1,2.2-3.3,4.36,4.36,0,0,1,4,.1,7.69,7.69,0,0,1,3.4,3.5,8.41,8.41,0,0,1,.9,4.8,4.43,4.43,0,0,1-2.2,3.3h0A5.84,5.84,0,0,1,268.65,80.4Zm-2.5-10.6a1.88,1.88,0,0,0-.8.2,2.31,2.31,0,0,0-1.1,1.9,6,6,0,0,0,.7,3.6,5.74,5.74,0,0,0,2.5,2.6,2.18,2.18,0,0,0,2.2.1h0a2.31,2.31,0,0,0,1.1-1.9,6,6,0,0,0-.7-3.6,4.34,4.34,0,0,0-3.9-2.9Z"/><path class="cls-2" d="M293.35,68.1H293a4.15,4.15,0,0,1-3.1-2.5,9.51,9.51,0,0,1-.8-5.1c.4-3.6,2.8-6.5,5.2-6.5h.4a4.15,4.15,0,0,1,3.1,2.5,9.51,9.51,0,0,1,.8,5.1,8.47,8.47,0,0,1-2.9,5.6A3.52,3.52,0,0,1,293.35,68.1Zm-3.3-7.5,1,.1a7.53,7.53,0,0,0,.6,4,2.48,2.48,0,0,0,1.5,1.4,1.59,1.59,0,0,0,1.2-.4,6.32,6.32,0,0,0,2.1-4.3,7.53,7.53,0,0,0-.6-4,2.48,2.48,0,0,0-1.5-1.4h-.1c-1.3,0-2.9,2-3.2,4.7Z"/><path class="cls-2" d="M303.45,80.4a3.92,3.92,0,0,1-1.8-.4,4.18,4.18,0,0,1-2.2-3.3,8.29,8.29,0,0,1,4.3-8.3,4.36,4.36,0,0,1,4-.1,4.43,4.43,0,0,1,2.2,3.3,8.29,8.29,0,0,1-4.3,8.3h0A5.85,5.85,0,0,1,303.45,80.4ZM306,69.8a3.08,3.08,0,0,0-1.3.3,6.29,6.29,0,0,0-3.2,6.2,2.58,2.58,0,0,0,1.1,1.9,2.46,2.46,0,0,0,2.2-.1h0a6.29,6.29,0,0,0,3.2-6.2,2.58,2.58,0,0,0-1.1-1.9A1.34,1.34,0,0,0,306,69.8Z"/><path class="cls-2" d="M293,102a8,8,0,0,1-2.7-.4,16.27,16.27,0,0,0-8.2,0,10,10,0,0,1-8.4-1.4,9.29,9.29,0,0,1-1.1-14.7,23.07,23.07,0,0,0,5-7.4,9.16,9.16,0,0,1,8.6-5.7,9.31,9.31,0,0,1,8.6,5.7,21,21,0,0,0,1.3,2.6,1,1,0,1,1-1.8,1,24.37,24.37,0,0,1-1.4-2.8,7.28,7.28,0,0,0-6.8-4.5,7.44,7.44,0,0,0-6.8,4.5,25.89,25.89,0,0,1-5.5,8.1,7.2,7.2,0,0,0-2.4,5.5,7.51,7.51,0,0,0,3.3,6.2,8.58,8.58,0,0,0,6.8,1.1,18.32,18.32,0,0,1,9.3,0,9.26,9.26,0,0,0,3.7.2,1,1,0,0,1,.4,2A12.05,12.05,0,0,0,293,102Z"/><path class="cls-2" d="M301.35,100.8h-.5a8.19,8.19,0,0,1-7.5-8.2V85.2a1,1,0,0,1,.9-1,48.27,48.27,0,0,1,14.2,0,1.06,1.06,0,0,1,.9,1v7.7a7.94,7.94,0,0,1-2.5,5.8A8.35,8.35,0,0,1,301.35,100.8Zm-6-14.8v6.6a6,6,0,0,0,10.1,4.6,6,6,0,0,0,1.9-4.4V86A40.22,40.22,0,0,0,295.35,86Z"/><path class="cls-2" d="M300.35,95.2h0a1.85,1.85,0,0,1-1.2-.5l-2-2a1,1,0,0,1,1.4-1.4l1.8,1.8,3.7-3.7a1,1,0,1,1,1.4,1.4l-4,3.9C301.25,95.1,300.85,95.2,300.35,95.2Z"/><path class="cls-2" d="M338.74,100.55a15.18,15.18,0,0,1-5.9-1.2l-8.3-3.4a1.86,1.86,0,0,1-1.9,1.7h-7.8a1.92,1.92,0,0,1-1.9-2V78.55a2,2,0,0,1,1.9-2h7.8a2,2,0,0,1,1.9,1.9h5.2a6.86,6.86,0,0,1,3.7,1l5,2.8h6a4.91,4.91,0,0,1,4.7,3.9l7.5-3a4.71,4.71,0,0,1,4.3.6,4.88,4.88,0,0,1,2,3.9,4.79,4.79,0,0,1-2.9,4.4l-14.9,7.2A17.41,17.41,0,0,1,338.74,100.55Zm-14.1-6.8h0l9,3.7a13.7,13.7,0,0,0,10.7-.2l14.9-7.2a2.72,2.72,0,0,0,1.7-2.5,2.66,2.66,0,0,0-1.1-2.2h0a2.73,2.73,0,0,0-1.8-.5l-11.3,4.5a4.28,4.28,0,0,1-2.2.6h-9.6a1,1,0,0,1-1-1,.94.94,0,0,1,1-1h9.5a2.77,2.77,0,0,0,1.3-.3.1.1,0,0,0,.1-.1l1.3-.5a2.75,2.75,0,0,0-2.7-2.7h-6.1a1.4,1.4,0,0,1-.9-.3l-5-2.8a5.19,5.19,0,0,0-2.7-.7h-5.2v13.2Zm-2-15.2-7.7.1.1,17.1,7.7-.1V78.55Z"/><path class="cls-2" d="M351.44,81.25a6,6,0,0,1-5.9-6,5.9,5.9,0,1,1,5.9,6Zm0-10.2a4.2,4.2,0,1,0,4.2,4.2A4.23,4.23,0,0,0,351.44,71.05Z"/><path class="cls-2" d="M347.64,67.45a6,6,0,0,1-5.9-6,5.9,5.9,0,1,1,11.8,0A6,6,0,0,1,347.64,67.45Zm0-10.2a4.2,4.2,0,1,0,4.2,4.2A4.29,4.29,0,0,0,347.64,57.25Z"/><path class="cls-2" d="M336,78.25a6,6,0,0,1-5.9-6,5.9,5.9,0,1,1,11.8,0A6,6,0,0,1,336,78.25Zm0-10.2a4.2,4.2,0,1,0,4.2,4.2A4.29,4.29,0,0,0,336,68.05Z"/><path class="cls-2" d="M465.64,88.69h-27.3a1,1,0,0,1,0-2h27.3a1,1,0,0,1,0,2Z"/><path class="cls-2" d="M456.54,70.79H454a1,1,0,0,1-1-1.1,1,1,0,0,1,1-1c1.9.1,3.8,0,5.7,0,1.6,0,3.3-.1,5,0V67l-22.9-10.8L418.94,67v1.7h10.8a1,1,0,0,1,0,2h-11.8a1,1,0,0,1-1-1v-3.4a.87.87,0,0,1,.6-.9l24.1-11.3a1.1,1.1,0,0,1,.8,0l23.9,11.3a1,1,0,0,1,.6.9v3.5a.91.91,0,0,1-.3.7,1.08,1.08,0,0,1-.7.3c-2-.1-4,0-5.9,0Z"/><path class="cls-2" d="M422.24,97.59a1,1,0,0,1-1-1V70.09a.94.94,0,0,1,1-1,1,1,0,0,1,1,1v26.4A1,1,0,0,1,422.24,97.59Z"/><path class="cls-2" d="M426.64,97.59a1,1,0,0,1-1-1V70.09a.94.94,0,0,1,1-1,1,1,0,0,1,1,1v26.4A1,1,0,0,1,426.64,97.59Z"/><path class="cls-2" d="M457.24,78.49a1,1,0,0,1-1-1v-7.4a.94.94,0,0,1,1-1,1,1,0,0,1,1,1v7.4A1,1,0,0,1,457.24,78.49Z"/><path class="cls-2" d="M461.64,78.49a1,1,0,0,1-1-1v-7.4a.94.94,0,0,1,1-1,1,1,0,0,1,1,1v7.4A.94.94,0,0,1,461.64,78.49Z"/><path class="cls-2" d="M434.44,98.09h-16.5a1,1,0,0,1,0-2h16.5a1,1,0,0,1,1,1A1.08,1.08,0,0,1,434.44,98.09Z"/><path class="cls-2" d="M463.14,102h-22.3a3.54,3.54,0,0,1-3.5-3.5v-15a3.54,3.54,0,0,1,3.5-3.5h22.3a3.54,3.54,0,0,1,3.5,3.5v14.9A3.56,3.56,0,0,1,463.14,102Zm-22.3-19.9a1.54,1.54,0,0,0-1.5,1.5v14.9a1.54,1.54,0,0,0,1.5,1.5h22.3a1.54,1.54,0,0,0,1.5-1.5v-15a1.54,1.54,0,0,0-1.5-1.5h-22.3Z"/><path class="cls-2" d="M39.36,103H8.66c-2.6,0-4.6-2.3-4.6-5.2V58.2c0-2.9,2-5.2,4.6-5.2h22A4.22,4.22,0,0,1,34,54.6l8.7,10.5a5.5,5.5,0,0,1,1.2,3.5v8.5a1,1,0,0,1-2,0V68.6a3.49,3.49,0,0,0-.8-2.2l-8.7-10.5a2.46,2.46,0,0,0-1.9-.9h-22c-1.5,0-2.6,1.4-2.6,3.2V97.9a3,3,0,0,0,2.6,3.2h30.7a1,1,0,0,1,1,1C40.16,102.7,39.86,103,39.36,103Z"/><path class="cls-2" d="M24,79.2a1,1,0,0,1-1-1V64a1,1,0,0,1,2,0V78.2A1,1,0,0,1,24,79.2Z"/><path class="cls-2" d="M30.76,72.1H17.16a1,1,0,0,1-1-1,.94.94,0,0,1,1-1h13.6a1,1,0,1,1,0,2Z"/><path class="cls-2" d="M39.46,99.7a8.84,8.84,0,0,1-8.6-9.1v-9a1,1,0,0,1,.8-1,51,51,0,0,1,15.6,0,1,1,0,0,1,.8,1v9A8.91,8.91,0,0,1,39.46,99.7Zm-6.7-17.3v8.1a6.92,6.92,0,0,0,6.7,7.1,6.92,6.92,0,0,0,6.7-7.1V82.4A50.1,50.1,0,0,0,32.76,82.4Z"/><path class="cls-2" d="M38.26,93.4a1.85,1.85,0,0,1-1.2-.5l-2.2-2.3a1,1,0,0,1,1.4-1.4l2,2.1,4.2-4.3a1,1,0,0,1,1.4,1.4l-4.4,4.5a1.85,1.85,0,0,1-1.2.5Z"/><path class="cls-3" d="M88.36,150.8a8.81,8.81,0,0,1-8.7-8.9V133a1,1,0,0,1,.8-1,52.31,52.31,0,0,1,15.8,0,1,1,0,0,1,.8,1v8.8A8.9,8.9,0,0,1,88.36,150.8Zm-6.8-16.9v7.9a6.8,6.8,0,1,0,13.6,0v-7.9A51.6,51.6,0,0,0,81.56,133.9Z"/><path class="cls-3" d="M87.16,144.6h0a1.66,1.66,0,0,1-1.2-.5l-2.2-2.3a1,1,0,0,1,1.4-1.4l2,2.1,4.2-4.2a1,1,0,1,1,1.4,1.4l-4.4,4.4A1.66,1.66,0,0,1,87.16,144.6Z"/><path class="cls-3" d="M73.66,123.6a8.88,8.88,0,0,1-8.8-8.8h0a8.75,8.75,0,0,1,8.8-8.8h0a8.88,8.88,0,0,1,8.8,8.8,8.81,8.81,0,0,1-8.8,8.8Zm-6.8-8.8a6.89,6.89,0,0,0,6.8,6.9h0a6.83,6.83,0,0,0,6.8-6.9,6.57,6.57,0,0,0-2-4.8,6.73,6.73,0,0,0-4.8-2h0A6.74,6.74,0,0,0,66.86,114.8Z"/><path class="cls-3" d="M88.76,154H60.06a1,1,0,0,1-1-1V139.5a13.17,13.17,0,0,1,13-13.3h4.5a12.92,12.92,0,0,1,7.1,2.2,1,1,0,0,1-1.1,1.7,10.93,10.93,0,0,0-6-1.9h-4.5A11.27,11.27,0,0,0,61,139.6V152h27.8a1,1,0,0,1,0,2Z"/><path class="cls-3" d="M253.26,153h-38.4a5.83,5.83,0,0,1-5.8-5.9v-24.4a5.83,5.83,0,0,1,5.8-5.9h38.4a5.83,5.83,0,0,1,5.8,5.9v24.4A5.83,5.83,0,0,1,253.26,153Zm-38.4-34.2a3.82,3.82,0,0,0-3.8,3.9v24.4a3.88,3.88,0,0,0,3.8,3.9h38.4a3.82,3.82,0,0,0,3.8-3.9v-24.4a3.88,3.88,0,0,0-3.8-3.9Z"/><path class="cls-3" d="M243.66,118.55a1,1,0,0,1-1-1V113a3.88,3.88,0,0,0-3.8-3.9h-9.6a3.82,3.82,0,0,0-3.8,3.9v4.6a.94.94,0,0,1-1,1,1,1,0,0,1-1-1V113a5.83,5.83,0,0,1,5.8-5.9h9.6a5.83,5.83,0,0,1,5.8,5.9v4.6A1,1,0,0,1,243.66,118.55Z"/><path class="cls-3" d="M234.06,144h-.5a8.33,8.33,0,0,1-7.5-8.5v-7.6a1,1,0,0,1,.9-1,49,49,0,0,1,14.3,0,1.06,1.06,0,0,1,.9,1v7.9a8.57,8.57,0,0,1-2.5,6A8.4,8.4,0,0,1,234.06,144Zm-6-15.3v6.8a6.26,6.26,0,0,0,5.6,6.4,5.8,5.8,0,0,0,4.5-1.7,6.36,6.36,0,0,0,1.9-4.5v-7A48.19,48.19,0,0,0,228.06,128.65Z"/><path class="cls-3" d="M233.06,138.25h0a1.85,1.85,0,0,1-1.2-.5l-2-2.1a1,1,0,1,1,1.4-1.4l1.8,1.8,3.7-3.8a1,1,0,0,1,1.4,1.4l-4,4A1.15,1.15,0,0,1,233.06,138.25Z"/><path class="cls-3" d="M278.75,120.1a2,2,0,0,1-.7-.1c-2.2-.5-4.2-3.2-4.6-6.4a8.78,8.78,0,0,1,1-5.4,3.89,3.89,0,0,1,3.3-2.2c2.4,0,4.8,2.9,5.2,6.5a8.78,8.78,0,0,1-1,5.4A3.64,3.64,0,0,1,278.75,120.1Zm-.9-12.1c-.8,0-1.4.9-1.6,1.2h0a6.88,6.88,0,0,0-.7,4.1c.3,2.6,1.8,4.5,3,4.7q1.05.15,1.8-1.2a6.88,6.88,0,0,0,.7-4.1C280.75,110,279.05,108,277.85,108Z"/><path class="cls-3" d="M268.65,132.4a5.85,5.85,0,0,1-2.2-.5,7.69,7.69,0,0,1-3.4-3.5,8.41,8.41,0,0,1-.9-4.8,4.43,4.43,0,0,1,2.2-3.3,4.36,4.36,0,0,1,4,.1,7.69,7.69,0,0,1,3.4,3.5,8.41,8.41,0,0,1,.9,4.8,4.43,4.43,0,0,1-2.2,3.3h0A5.84,5.84,0,0,1,268.65,132.4Zm-2.5-10.6a1.88,1.88,0,0,0-.8.2,2.31,2.31,0,0,0-1.1,1.9,6,6,0,0,0,.7,3.6,5.74,5.74,0,0,0,2.5,2.6,2.18,2.18,0,0,0,2.2.1h0a2.31,2.31,0,0,0,1.1-1.9,6,6,0,0,0-.7-3.6,4.34,4.34,0,0,0-3.9-2.9Z"/><path class="cls-3" d="M293.35,120.1H293a4.15,4.15,0,0,1-3.1-2.5,9.51,9.51,0,0,1-.8-5.1c.4-3.6,2.8-6.5,5.2-6.5h.4a4.15,4.15,0,0,1,3.1,2.5,9.51,9.51,0,0,1,.8,5.1,8.47,8.47,0,0,1-2.9,5.6A3.52,3.52,0,0,1,293.35,120.1Zm-3.3-7.5,1,.1a7.53,7.53,0,0,0,.6,4,2.48,2.48,0,0,0,1.5,1.4,1.59,1.59,0,0,0,1.2-.4,6.32,6.32,0,0,0,2.1-4.3,7.53,7.53,0,0,0-.6-4,2.48,2.48,0,0,0-1.5-1.4h-.1c-1.3,0-2.9,2-3.2,4.7Z"/><path class="cls-3" d="M303.45,132.4a3.92,3.92,0,0,1-1.8-.4,4.18,4.18,0,0,1-2.2-3.3,8.29,8.29,0,0,1,4.3-8.3,4.36,4.36,0,0,1,4-.1,4.43,4.43,0,0,1,2.2,3.3,8.29,8.29,0,0,1-4.3,8.3h0A5.85,5.85,0,0,1,303.45,132.4Zm2.5-10.6a3.08,3.08,0,0,0-1.3.3,6.29,6.29,0,0,0-3.2,6.2,2.58,2.58,0,0,0,1.1,1.9,2.46,2.46,0,0,0,2.2-.1h0a6.29,6.29,0,0,0,3.2-6.2,2.58,2.58,0,0,0-1.1-1.9A2.39,2.39,0,0,0,306,121.8Z"/><path class="cls-3" d="M293,154a8,8,0,0,1-2.7-.4,16.27,16.27,0,0,0-8.2,0,10,10,0,0,1-8.4-1.4,9.29,9.29,0,0,1-1.1-14.7,23.07,23.07,0,0,0,5-7.4,9.16,9.16,0,0,1,8.6-5.7,9.31,9.31,0,0,1,8.6,5.7,21,21,0,0,0,1.3,2.6,1,1,0,0,1-1.8,1,24.37,24.37,0,0,1-1.4-2.8,7.28,7.28,0,0,0-6.8-4.5,7.44,7.44,0,0,0-6.8,4.5,25.89,25.89,0,0,1-5.5,8.1,7.2,7.2,0,0,0-2.4,5.5,7.51,7.51,0,0,0,3.3,6.2,8.58,8.58,0,0,0,6.8,1.1,18.32,18.32,0,0,1,9.3,0,9.26,9.26,0,0,0,3.7.2,1,1,0,0,1,.4,2A12.05,12.05,0,0,0,293,154Z"/><path class="cls-3" d="M301.35,152.8h-.5a8.19,8.19,0,0,1-7.5-8.2v-7.4a1,1,0,0,1,.9-1,48.27,48.27,0,0,1,14.2,0,1.06,1.06,0,0,1,.9,1v7.7a7.94,7.94,0,0,1-2.5,5.8A8.35,8.35,0,0,1,301.35,152.8Zm-6-14.8v6.6a6,6,0,0,0,10.1,4.6,6,6,0,0,0,1.9-4.4V138A40.22,40.22,0,0,0,295.35,138Z"/><path class="cls-3" d="M300.35,147.2h0a1.85,1.85,0,0,1-1.2-.5l-2-2a1,1,0,0,1,1.4-1.4l1.8,1.8,3.7-3.7a1,1,0,0,1,1.4,1.4l-4,3.9C301.25,147.1,300.85,147.2,300.35,147.2Z"/><path class="cls-3" d="M338.74,152.55a15.18,15.18,0,0,1-5.9-1.2l-8.3-3.4a1.86,1.86,0,0,1-1.9,1.7h-7.8a1.92,1.92,0,0,1-1.9-2v-17.1a2,2,0,0,1,1.9-2h7.8a2,2,0,0,1,1.9,1.9h5.2a6.86,6.86,0,0,1,3.7,1l5,2.8h6a4.91,4.91,0,0,1,4.7,3.9l7.5-3a4.71,4.71,0,0,1,4.3.6,4.88,4.88,0,0,1,2,3.9,4.79,4.79,0,0,1-2.9,4.4l-14.9,7.2A17.41,17.41,0,0,1,338.74,152.55Zm-14.1-6.8h0l9,3.7a13.7,13.7,0,0,0,10.7-.2l14.9-7.2a2.72,2.72,0,0,0,1.7-2.5,2.66,2.66,0,0,0-1.1-2.2h0a2.73,2.73,0,0,0-1.8-.5l-11.3,4.5a4.28,4.28,0,0,1-2.2.6h-9.6a1,1,0,0,1-1-1,.94.94,0,0,1,1-1h9.5a2.77,2.77,0,0,0,1.3-.3.1.1,0,0,0,.1-.1l1.3-.5a2.75,2.75,0,0,0-2.7-2.7h-6.1a1.4,1.4,0,0,1-.9-.3l-5-2.8a5.19,5.19,0,0,0-2.7-.7h-5.2v13.2Zm-2-15.2-7.7.1.1,17.1,7.7-.1v-17.1Z"/><path class="cls-3" d="M351.44,133.25a6,6,0,0,1-5.9-6,5.9,5.9,0,1,1,5.9,6Zm0-10.2a4.2,4.2,0,1,0,4.2,4.2A4.23,4.23,0,0,0,351.44,123.05Z"/><path class="cls-3" d="M347.64,119.45a6,6,0,0,1-5.9-6,5.9,5.9,0,1,1,11.8,0A6,6,0,0,1,347.64,119.45Zm0-10.2a4.2,4.2,0,1,0,4.2,4.2A4.29,4.29,0,0,0,347.64,109.25Z"/><path class="cls-3" d="M336,130.35a6,6,0,0,1-5.9-6,5.9,5.9,0,1,1,11.8,0A6,6,0,0,1,336,130.35Zm0-10.3a4.2,4.2,0,1,0,4.2,4.2A4.29,4.29,0,0,0,336,120.05Z"/><path class="cls-3" d="M465.64,140.69h-27.3a1,1,0,0,1,0-2h27.3a1,1,0,0,1,0,2Z"/><path class="cls-3" d="M456.54,122.89H454a1,1,0,0,1-1-1.1,1,1,0,0,1,1-1c1.9.1,3.8,0,5.7,0,1.6,0,3.3-.1,5,0V119l-22.9-10.8L418.94,119v1.7h10.8a1,1,0,0,1,0,2h-11.8a1,1,0,0,1-1-1v-3.4a.87.87,0,0,1,.6-.9l24.1-11.3a1.1,1.1,0,0,1,.8,0l23.9,11.3a1,1,0,0,1,.6.9v3.5a.91.91,0,0,1-.3.7,1.08,1.08,0,0,1-.7.3c-2-.1-4,0-5.9,0C458.84,122.79,457.74,122.89,456.54,122.89Z"/><path class="cls-3" d="M422.24,149.59a1,1,0,0,1-1-1v-26.4a.94.94,0,0,1,1-1,1,1,0,0,1,1,1v26.4A1,1,0,0,1,422.24,149.59Z"/><path class="cls-3" d="M426.64,149.59a1,1,0,0,1-1-1v-26.4a.94.94,0,0,1,1-1,1,1,0,0,1,1,1v26.4A1,1,0,0,1,426.64,149.59Z"/><path class="cls-3" d="M457.24,130.49a1,1,0,0,1-1-1v-7.4a.94.94,0,0,1,1-1,1,1,0,0,1,1,1v7.4A1,1,0,0,1,457.24,130.49Z"/><path class="cls-3" d="M461.64,130.49a1,1,0,0,1-1-1v-7.4a.94.94,0,0,1,1-1,1,1,0,0,1,1,1v7.4A.94.94,0,0,1,461.64,130.49Z"/><path class="cls-3" d="M434.44,150.09h-16.5a1,1,0,0,1,0-2h16.5a1,1,0,0,1,1,1A1.08,1.08,0,0,1,434.44,150.09Z"/><path class="cls-3" d="M463.14,154h-22.3a3.54,3.54,0,0,1-3.5-3.5v-14.9a3.54,3.54,0,0,1,3.5-3.5h22.3a3.54,3.54,0,0,1,3.5,3.5v14.9A3.54,3.54,0,0,1,463.14,154Zm-22.3-19.9a1.54,1.54,0,0,0-1.5,1.5v14.9a1.54,1.54,0,0,0,1.5,1.5h22.3a1.54,1.54,0,0,0,1.5-1.5v-14.9a1.54,1.54,0,0,0-1.5-1.5Z"/><path class="cls-3" d="M39.36,155.05H8.66c-2.6,0-4.6-2.3-4.6-5.2v-39.7c0-2.9,2-5.2,4.6-5.2h22a4.22,4.22,0,0,1,3.3,1.6l8.7,10.5a5.5,5.5,0,0,1,1.2,3.5v8.5a1,1,0,0,1-2,0v-8.5a3.49,3.49,0,0,0-.8-2.2l-8.7-10.5a2.46,2.46,0,0,0-1.9-.9h-22c-1.5,0-2.6,1.4-2.6,3.2v39.7a3,3,0,0,0,2.6,3.2h30.7a1,1,0,0,1,1,1C40.16,154.65,39.86,155.05,39.36,155.05Z"/><path class="cls-3" d="M24,131.25a1,1,0,0,1-1-1v-14.2a1,1,0,0,1,2,0v14.2A1,1,0,0,1,24,131.25Z"/><path class="cls-3" d="M30.76,124.15H17.16a1,1,0,0,1-1-1,.94.94,0,0,1,1-1h13.6a1,1,0,0,1,0,2Z"/><path class="cls-3" d="M39.46,151.75a8.84,8.84,0,0,1-8.6-9.1v-9a1,1,0,0,1,.8-1,51,51,0,0,1,15.6,0,1,1,0,0,1,.8,1v9A8.91,8.91,0,0,1,39.46,151.75Zm-6.7-17.2v8.1a6.92,6.92,0,0,0,6.7,7.1,6.92,6.92,0,0,0,6.7-7.1v-8.1A43,43,0,0,0,32.76,134.55Z"/><path class="cls-3" d="M38.26,145.45a1.85,1.85,0,0,1-1.2-.5l-2.2-2.3a1,1,0,1,1,1.4-1.4l2,2.1,4.2-4.3a1,1,0,0,1,1.4,1.4l-4.4,4.5a1.85,1.85,0,0,1-1.2.5Z"/><path class="cls-4" d="M88.36,202.8a8.81,8.81,0,0,1-8.7-8.9V185a1,1,0,0,1,.8-1,52.31,52.31,0,0,1,15.8,0,1,1,0,0,1,.8,1v8.8A8.84,8.84,0,0,1,88.36,202.8Zm-6.8-16.9v7.9a6.8,6.8,0,1,0,13.6,0v-7.9A51.6,51.6,0,0,0,81.56,185.9Z"/><path class="cls-4" d="M87.16,196.6h0a1.66,1.66,0,0,1-1.2-.5l-2.2-2.3a1,1,0,0,1,1.4-1.4l2,2.1,4.2-4.2a1,1,0,1,1,1.4,1.4l-4.4,4.4A1.66,1.66,0,0,1,87.16,196.6Z"/><path class="cls-4" d="M73.66,175.6a8.88,8.88,0,0,1-8.8-8.8h0a8.75,8.75,0,0,1,8.8-8.8h0a8.88,8.88,0,0,1,8.8,8.8,8.81,8.81,0,0,1-8.8,8.8Zm-6.8-8.8a6.89,6.89,0,0,0,6.8,6.9h0a6.83,6.83,0,0,0,6.8-6.9,6.57,6.57,0,0,0-2-4.8,6.73,6.73,0,0,0-4.8-2h0A6.74,6.74,0,0,0,66.86,166.8Z"/><path class="cls-4" d="M88.76,206H60.06a1,1,0,0,1-1-1V191.5a13.17,13.17,0,0,1,13-13.3h4.5a12.92,12.92,0,0,1,7.1,2.2,1,1,0,0,1-1.1,1.7,10.93,10.93,0,0,0-6-1.9h-4.5A11.27,11.27,0,0,0,61,191.6v12.5h27.8a1,1,0,0,1,1,1A.92.92,0,0,1,88.76,206Z"/><path class="cls-4" d="M253.26,205h-38.4a5.83,5.83,0,0,1-5.8-5.9v-24.4a5.83,5.83,0,0,1,5.8-5.9h38.4a5.83,5.83,0,0,1,5.8,5.9v24.4A5.83,5.83,0,0,1,253.26,205Zm-38.4-34.2a3.82,3.82,0,0,0-3.8,3.9v24.4a3.88,3.88,0,0,0,3.8,3.9h38.4a3.82,3.82,0,0,0,3.8-3.9v-24.4a3.88,3.88,0,0,0-3.8-3.9Z"/><path class="cls-4" d="M243.66,170.55a1,1,0,0,1-1-1V165a3.88,3.88,0,0,0-3.8-3.9h-9.6a3.82,3.82,0,0,0-3.8,3.9v4.6a.94.94,0,0,1-1,1,1,1,0,0,1-1-1V165a5.83,5.83,0,0,1,5.8-5.9h9.6a5.83,5.83,0,0,1,5.8,5.9v4.6A1,1,0,0,1,243.66,170.55Z"/><path class="cls-4" d="M234.06,196h-.5a8.33,8.33,0,0,1-7.5-8.5v-7.6a1,1,0,0,1,.9-1,49,49,0,0,1,14.3,0,1.06,1.06,0,0,1,.9,1v7.9a8.57,8.57,0,0,1-2.5,6A8.4,8.4,0,0,1,234.06,196Zm-6-15.3v6.8a6.26,6.26,0,0,0,5.6,6.4,5.8,5.8,0,0,0,4.5-1.7,6.36,6.36,0,0,0,1.9-4.5v-7A48.19,48.19,0,0,0,228.06,180.65Z"/><path class="cls-4" d="M233.06,190.25h0a1.85,1.85,0,0,1-1.2-.5l-2-2.1a1,1,0,1,1,1.4-1.4l1.8,1.8,3.7-3.8a1,1,0,0,1,1.4,1.4l-4,4A1.15,1.15,0,0,1,233.06,190.25Z"/><path class="cls-4" d="M278.75,172.1a2,2,0,0,1-.7-.1c-2.2-.5-4.2-3.2-4.6-6.4a8.78,8.78,0,0,1,1-5.4,3.89,3.89,0,0,1,3.3-2.2c2.4,0,4.8,2.9,5.2,6.5a8.78,8.78,0,0,1-1,5.4A3.64,3.64,0,0,1,278.75,172.1Zm-.9-12.1c-.8,0-1.4.9-1.6,1.2h0a6.88,6.88,0,0,0-.7,4.1c.3,2.6,1.8,4.5,3,4.7q1.05.15,1.8-1.2a6.88,6.88,0,0,0,.7-4.1C280.75,162,279.05,160,277.85,160Z"/><path class="cls-4" d="M268.65,184.4a5.85,5.85,0,0,1-2.2-.5,7.69,7.69,0,0,1-3.4-3.5,8.41,8.41,0,0,1-.9-4.8,4.43,4.43,0,0,1,2.2-3.3,4.36,4.36,0,0,1,4,.1,7.69,7.69,0,0,1,3.4,3.5,8.41,8.41,0,0,1,.9,4.8,4.43,4.43,0,0,1-2.2,3.3h0A5.84,5.84,0,0,1,268.65,184.4Zm-2.5-10.6a1.88,1.88,0,0,0-.8.2,2.31,2.31,0,0,0-1.1,1.9,6,6,0,0,0,.7,3.6,5.74,5.74,0,0,0,2.5,2.6,2.18,2.18,0,0,0,2.2.1h0a2.31,2.31,0,0,0,1.1-1.9,6,6,0,0,0-.7-3.6,4.34,4.34,0,0,0-3.9-2.9Z"/><path class="cls-4" d="M293.35,172.1H293a4.15,4.15,0,0,1-3.1-2.5,9.51,9.51,0,0,1-.8-5.1c.4-3.6,2.8-6.5,5.2-6.5h.4a4.15,4.15,0,0,1,3.1,2.5,9.51,9.51,0,0,1,.8,5.1,8.47,8.47,0,0,1-2.9,5.6A3.52,3.52,0,0,1,293.35,172.1Zm-3.3-7.5,1,.1a7.53,7.53,0,0,0,.6,4,2.48,2.48,0,0,0,1.5,1.4,1.59,1.59,0,0,0,1.2-.4,6.32,6.32,0,0,0,2.1-4.3,7.53,7.53,0,0,0-.6-4,2.48,2.48,0,0,0-1.5-1.4h-.1c-1.3,0-2.9,2-3.2,4.7Z"/><path class="cls-4" d="M303.45,184.4a3.92,3.92,0,0,1-1.8-.4,4.18,4.18,0,0,1-2.2-3.3,8.29,8.29,0,0,1,4.3-8.3,4.36,4.36,0,0,1,4-.1,4.43,4.43,0,0,1,2.2,3.3,8.29,8.29,0,0,1-4.3,8.3h0A5.85,5.85,0,0,1,303.45,184.4Zm2.5-10.6a3.08,3.08,0,0,0-1.3.3,6.29,6.29,0,0,0-3.2,6.2,2.58,2.58,0,0,0,1.1,1.9,2.46,2.46,0,0,0,2.2-.1h0a6.29,6.29,0,0,0,3.2-6.2,2.58,2.58,0,0,0-1.1-1.9A2.39,2.39,0,0,0,306,173.8Z"/><path class="cls-4" d="M293,206a8,8,0,0,1-2.7-.4,16.27,16.27,0,0,0-8.2,0,10,10,0,0,1-8.4-1.4,9.29,9.29,0,0,1-1.1-14.7,23.07,23.07,0,0,0,5-7.4,9.16,9.16,0,0,1,8.6-5.7,9.31,9.31,0,0,1,8.6,5.7,21,21,0,0,0,1.3,2.6,1,1,0,0,1-1.8,1,24.37,24.37,0,0,1-1.4-2.8,7.28,7.28,0,0,0-6.8-4.5,7.44,7.44,0,0,0-6.8,4.5,25.89,25.89,0,0,1-5.5,8.1,7.2,7.2,0,0,0-2.4,5.5,7.51,7.51,0,0,0,3.3,6.2,8.58,8.58,0,0,0,6.8,1.1,18.32,18.32,0,0,1,9.3,0,9.26,9.26,0,0,0,3.7.2,1,1,0,0,1,.4,2Z"/><path class="cls-4" d="M301.35,204.8h-.5a8.19,8.19,0,0,1-7.5-8.2v-7.4a1,1,0,0,1,.9-1,48.27,48.27,0,0,1,14.2,0,1.06,1.06,0,0,1,.9,1v7.7a7.94,7.94,0,0,1-2.5,5.8A8.35,8.35,0,0,1,301.35,204.8Zm-6-14.8v6.6a6,6,0,0,0,10.1,4.6,6,6,0,0,0,1.9-4.4V190A40.22,40.22,0,0,0,295.35,190Z"/><path class="cls-4" d="M300.35,199.3h0a1.85,1.85,0,0,1-1.2-.5l-2-2a1,1,0,0,1,1.4-1.4l1.8,1.8,3.7-3.7a1,1,0,1,1,1.4,1.4l-4,3.9A1.29,1.29,0,0,1,300.35,199.3Z"/><path class="cls-4" d="M338.74,204.55a15.18,15.18,0,0,1-5.9-1.2l-8.3-3.4a1.86,1.86,0,0,1-1.9,1.7h-7.8a1.92,1.92,0,0,1-1.9-2v-17.1a2,2,0,0,1,1.9-2h7.8a2,2,0,0,1,1.9,1.9h5.2a6.86,6.86,0,0,1,3.7,1l5,2.8h6a4.91,4.91,0,0,1,4.7,3.9l7.5-3a4.71,4.71,0,0,1,4.3.6,4.88,4.88,0,0,1,2,3.9,4.79,4.79,0,0,1-2.9,4.4l-14.9,7.2A17.41,17.41,0,0,1,338.74,204.55Zm-14.1-6.8h0l9,3.7a13.7,13.7,0,0,0,10.7-.2l14.9-7.2a2.72,2.72,0,0,0,1.7-2.5,2.66,2.66,0,0,0-1.1-2.2h0a2.73,2.73,0,0,0-1.8-.5l-11.3,4.5a4.28,4.28,0,0,1-2.2.6h-9.6a1,1,0,0,1-1-1,.94.94,0,0,1,1-1h9.5a2.77,2.77,0,0,0,1.3-.3.1.1,0,0,0,.1-.1l1.3-.5a2.75,2.75,0,0,0-2.7-2.7h-6.1a1.4,1.4,0,0,1-.9-.3l-5-2.8a5.19,5.19,0,0,0-2.7-.7h-5.2v13.2Zm-2-15.2-7.7.1.1,17.1,7.7-.1v-17.1Z"/><path class="cls-4" d="M351.44,185.25a6,6,0,0,1-5.9-6,5.9,5.9,0,1,1,5.9,6Zm0-10.2a4.2,4.2,0,1,0,4.2,4.2A4.23,4.23,0,0,0,351.44,175.05Z"/><path class="cls-4" d="M347.64,171.45a6,6,0,0,1-5.9-6,5.9,5.9,0,1,1,5.9,6Zm0-10.2a4.2,4.2,0,1,0,4.2,4.2A4.29,4.29,0,0,0,347.64,161.25Z"/><path class="cls-4" d="M336,182.35a6,6,0,0,1-5.9-6,5.9,5.9,0,1,1,11.8,0A6,6,0,0,1,336,182.35Zm0-10.3a4.2,4.2,0,1,0,4.2,4.2A4.29,4.29,0,0,0,336,172.05Z"/><path class="cls-4" d="M465.64,192.69h-27.3a1,1,0,0,1,0-2h27.3a1,1,0,0,1,0,2Z"/><path class="cls-4" d="M456.54,174.89H454a1,1,0,0,1-1-1.1,1,1,0,0,1,1-1c1.9.1,3.8,0,5.7,0,1.6,0,3.3-.1,5,0V171l-22.9-10.8L418.94,171v1.7h10.8a1,1,0,0,1,0,2h-11.8a1,1,0,0,1-1-1v-3.4a.87.87,0,0,1,.6-.9l24.1-11.3a1.1,1.1,0,0,1,.8,0l23.9,11.3a1,1,0,0,1,.6.9v3.5a.91.91,0,0,1-.3.7,1.08,1.08,0,0,1-.7.3c-2-.1-4,0-5.9,0C458.84,174.79,457.74,174.89,456.54,174.89Z"/><path class="cls-4" d="M422.24,201.59a1,1,0,0,1-1-1v-26.4a.94.94,0,0,1,1-1,1,1,0,0,1,1,1v26.4A1,1,0,0,1,422.24,201.59Z"/><path class="cls-4" d="M426.64,201.59a1,1,0,0,1-1-1v-26.4a.94.94,0,0,1,1-1,1,1,0,0,1,1,1v26.4A1,1,0,0,1,426.64,201.59Z"/><path class="cls-4" d="M457.24,182.49a1,1,0,0,1-1-1v-7.4a.94.94,0,0,1,1-1,1,1,0,0,1,1,1v7.4A1,1,0,0,1,457.24,182.49Z"/><path class="cls-4" d="M461.64,182.49a1,1,0,0,1-1-1v-7.4a.94.94,0,0,1,1-1,1,1,0,0,1,1,1v7.4A.94.94,0,0,1,461.64,182.49Z"/><path class="cls-4" d="M434.44,202.09h-16.5a1,1,0,0,1-1-1,.94.94,0,0,1,1-1h16.5a1,1,0,0,1,1,1A1.08,1.08,0,0,1,434.44,202.09Z"/><path class="cls-4" d="M463.14,206h-22.3a3.54,3.54,0,0,1-3.5-3.5v-14.9a3.54,3.54,0,0,1,3.5-3.5h22.3a3.54,3.54,0,0,1,3.5,3.5v14.9A3.54,3.54,0,0,1,463.14,206Zm-22.3-19.9a1.54,1.54,0,0,0-1.5,1.5v14.9a1.54,1.54,0,0,0,1.5,1.5h22.3a1.54,1.54,0,0,0,1.5-1.5v-14.9a1.54,1.54,0,0,0-1.5-1.5Z"/><path class="cls-4" d="M39.36,207.05H8.66c-2.6,0-4.6-2.3-4.6-5.2v-39.7c0-2.9,2-5.2,4.6-5.2h22a4.22,4.22,0,0,1,3.3,1.6l8.7,10.5a5.5,5.5,0,0,1,1.2,3.5v8.5a1,1,0,0,1-2,0v-8.5a3.49,3.49,0,0,0-.8-2.2l-8.7-10.5a2.46,2.46,0,0,0-1.9-.9h-22c-1.5,0-2.6,1.4-2.6,3.2v39.7a3,3,0,0,0,2.6,3.2h30.7a1,1,0,0,1,1,1C40.16,206.65,39.86,207.05,39.36,207.05Z"/><path class="cls-4" d="M24,183.25a1,1,0,0,1-1-1v-14.2a1,1,0,0,1,2,0v14.2A1,1,0,0,1,24,183.25Z"/><path class="cls-4" d="M30.76,176.15H17.16a1,1,0,0,1-1-1,.94.94,0,0,1,1-1h13.6a1,1,0,0,1,0,2Z"/><path class="cls-4" d="M39.46,203.75a8.84,8.84,0,0,1-8.6-9.1v-9a1,1,0,0,1,.8-1,51,51,0,0,1,15.6,0,1,1,0,0,1,.8,1v9A8.91,8.91,0,0,1,39.46,203.75Zm-6.7-17.2v8.1a6.92,6.92,0,0,0,6.7,7.1,6.92,6.92,0,0,0,6.7-7.1v-8.1A43,43,0,0,0,32.76,186.55Z"/><path class="cls-4" d="M38.26,197.45a1.85,1.85,0,0,1-1.2-.5l-2.2-2.3a1,1,0,1,1,1.4-1.4l2,2.1,4.2-4.3a1,1,0,0,1,1.4,1.4l-4.4,4.5a1.85,1.85,0,0,1-1.2.5Z"/><path class="cls-1" d="M3.55,236.64A.65.65,0,0,1,3,236v-9.8a.65.65,0,0,1,.6-.6.65.65,0,0,1,.6.6V236A.58.58,0,0,1,3.55,236.64Z"/><path class="cls-1" d="M5.75,236.84a.65.65,0,0,1-.6-.6v-10.4a.65.65,0,0,1,.6-.6.65.65,0,0,1,.6.6v10.4A.65.65,0,0,1,5.75,236.84Z"/><path class="cls-1" d="M17.15,226.24h-1a.6.6,0,1,1,0-1.2h4.1v-.3l-9-4.2-9.1,4.2v.3h4.1a.6.6,0,0,1,0,1.2H1.55a.65.65,0,0,1-.6-.6v-1.4a.62.62,0,0,1,.4-.6l9.7-4.5a.45.45,0,0,1,.5,0l9.7,4.5a.68.68,0,0,1,.4.6v1.4a.52.52,0,0,1-.2.4.76.76,0,0,1-.5.2h-3.8Z"/><path class="cls-1" d="M16.75,231.14a.65.65,0,0,1-.6-.6v-4.8a.6.6,0,0,1,1.2,0v4.8A.58.58,0,0,1,16.75,231.14Z"/><path class="cls-1" d="M19.15,231.14a.65.65,0,0,1-.6-.6v-4.8a.6.6,0,0,1,1.2,0v4.8A.58.58,0,0,1,19.15,231.14Z"/><path class="cls-1" d="M21,237H1.55a.6.6,0,0,1,0-1.2H21a.6.6,0,1,1,0,1.2Z"/><path class="cls-1" d="M30.35,237.14H5.75a.6.6,0,0,1,0-1.2h24.6a.6.6,0,1,1,0,1.2Z"/><path class="cls-1" d="M28.05,249.14H8a2.9,2.9,0,0,1-2.9-2.9v-13.5a2.9,2.9,0,0,1,2.9-2.9h20.2a2.9,2.9,0,0,1,2.9,2.9v13.5A3.06,3.06,0,0,1,28.05,249.14ZM8,231.14a1.58,1.58,0,0,0-1.6,1.6v13.5a1.58,1.58,0,0,0,1.6,1.6h20.2a1.58,1.58,0,0,0,1.6-1.6v-13.5a1.58,1.58,0,0,0-1.6-1.6Z"/><path class="cls-1" d="M56.8,231H55.3a.6.6,0,0,1,0-1.2h6.4v-1L48,222.39l-13.8,6.4v1h6.5a.6.6,0,1,1,0,1.2H33.6a.65.65,0,0,1-.6-.6v-2a.55.55,0,0,1,.3-.5l14.4-6.7a.45.45,0,0,1,.5,0l14.4,6.7a.55.55,0,0,1,.3.5v2a.52.52,0,0,1-.2.4.76.76,0,0,1-.4.2H56.8Z"/><path class="cls-1" d="M36.2,246.79a.65.65,0,0,1-.6-.6v-15.6a.6.6,0,1,1,1.2,0v15.6A.65.65,0,0,1,36.2,246.79Z"/><path class="cls-1" d="M38.8,246.79a.65.65,0,0,1-.6-.6v-15.6a.6.6,0,0,1,1.2,0v15.6A.58.58,0,0,1,38.8,246.79Z"/><path class="cls-1" d="M57.2,247.09a.65.65,0,0,1-.6-.6v-15.9a.6.6,0,1,1,1.2,0v15.9A.65.65,0,0,1,57.2,247.09Z"/><path class="cls-1" d="M59.8,247.09a.65.65,0,0,1-.6-.6v-15.9a.6.6,0,0,1,1.2,0v15.9A.58.58,0,0,1,59.8,247.09Z"/><path class="cls-1" d="M62.4,247.09H33.6a.6.6,0,0,1,0-1.2H62.4a.6.6,0,1,1,0,1.2Z"/><path class="cls-1" d="M48,230.19a.65.65,0,0,1-.6-.6v-1.2a.6.6,0,0,1,1.2,0v1.2A.65.65,0,0,1,48,230.19Z"/><path class="cls-1" d="M48,242.79a.65.65,0,0,1-.6-.6V241a.6.6,0,0,1,1.2,0v1.2A.65.65,0,0,1,48,242.79Z"/><path class="cls-1" d="M48,235.89a3.4,3.4,0,1,1,3.4-3.4.6.6,0,0,1-1.2,0,2.2,2.2,0,1,0-2.2,2.2.6.6,0,1,1,0,1.2Z"/><path class="cls-1" d="M48,241.49a3.37,3.37,0,0,1-3.4-3.4.6.6,0,1,1,1.2,0,2.2,2.2,0,1,0,2.2-2.2.6.6,0,0,1,0-1.2,3.4,3.4,0,0,1,0,6.8Z"/><path class="cls-1" d="M83.76,233a3.44,3.44,0,0,1-3.4-2.9.75.75,0,0,1,.1-.5.76.76,0,0,1,.5-.2h5.7c.2,0,.3.1.5.2a.44.44,0,0,1,.1.5A3.64,3.64,0,0,1,83.76,233Zm-2-2.5a2.4,2.4,0,0,0,2,1.2,2.27,2.27,0,0,0,2-1.2Z"/><path class="cls-1" d="M76.16,233a3.44,3.44,0,0,1-3.4-2.9.75.75,0,0,1,.1-.5.76.76,0,0,1,.5-.2H79c.2,0,.3.1.5.2a.44.44,0,0,1,.1.5A3.53,3.53,0,0,1,76.16,233Zm-2.1-2.5a2.4,2.4,0,0,0,2,1.2,2.27,2.27,0,0,0,2-1.2Z"/><path class="cls-1" d="M68.36,233a3.44,3.44,0,0,1-3.4-2.9.75.75,0,0,1,.1-.5.76.76,0,0,1,.5-.2h5.7c.2,0,.3.1.5.2a.44.44,0,0,1,.1.5A3.64,3.64,0,0,1,68.36,233Zm-2-2.5a2.27,2.27,0,0,0,4,0Z"/><path class="cls-1" d="M91.46,233a3.44,3.44,0,0,1-3.4-2.9.75.75,0,0,1,.1-.5.76.76,0,0,1,.5-.2h5.7c.2,0,.3.1.5.2a.44.44,0,0,1,.1.5A3.64,3.64,0,0,1,91.46,233Zm-2-2.4a2.4,2.4,0,0,0,2,1.2,2.27,2.27,0,0,0,2-1.2Z"/><path class="cls-1" d="M65.56,230.55a.55.55,0,0,1-.5-.3.64.64,0,0,1,0-.6l4.6-8.2a.55.55,0,0,1,.5-.3h19.7a.55.55,0,0,1,.5.3l4.6,8.2a.64.64,0,0,1,0,.6.55.55,0,0,1-.5.3Zm4.9-8.3-3.9,7h26.8l-3.9-7Z"/><path class="cls-1" d="M92.66,247.05h-25a.65.65,0,0,1-.6-.6v-14.1a.6.6,0,0,1,1.2,0v13.5h23.8v-13.5a.6.6,0,0,1,1.2,0v14.1A.65.65,0,0,1,92.66,247.05Z"/><path class="cls-1" d="M79.06,247.05h-7.7v-9.9a2.22,2.22,0,0,1,2.2-2.2h3.3a2.22,2.22,0,0,1,2.2,2.2Zm-6.5-1.2h5.3v-8.7a1,1,0,0,0-1-1h-3.3a1,1,0,0,0-1,1Z"/><path class="cls-1" d="M86.86,241.75h-3a2.11,2.11,0,0,1-2.1-2.1v-2.6a2.05,2.05,0,0,1,2.1-2.1h3a2.11,2.11,0,0,1,2.1,2.1v2.6A2.05,2.05,0,0,1,86.86,241.75Zm-3-5.6a.9.9,0,0,0-.9.9v2.6a.9.9,0,0,0,.9.9h3a.9.9,0,0,0,.9-.9v-2.6a.9.9,0,0,0-.9-.9Z"/><path class="cls-1" d="M112.05,249.09h-.8c-6.8-.5-12.2-6.7-12.2-14.3V221a1,1,0,0,1,.7-.9,77.44,77.44,0,0,1,24.5,0,1,1,0,0,1,.7.9v14.3a14.38,14.38,0,0,1-4.1,10.1A12.34,12.34,0,0,1,112.05,249.09Zm-11.4-27.4v13.1c0,6.7,4.7,12.2,10.6,12.6a10.85,10.85,0,0,0,8.5-3.2,12.55,12.55,0,0,0,3.6-8.9v-13.6A72,72,0,0,0,100.65,221.69Z"/><path class="cls-1" d="M110.35,238.79h0a2,2,0,0,1-1.4-.6l-3.5-3.7a.91.91,0,0,1,0-1.2.78.78,0,0,1,1.1,0l3.5,3.7a.31.31,0,0,0,.2.1c.1,0,.2,0,.2-.1l6.9-7.3a.78.78,0,0,1,1.1,0,.91.91,0,0,1,0,1.2l-6.9,7.3A1.31,1.31,0,0,1,110.35,238.79Z"/><path class="cls-1" d="M143.82,249.05h-10.5a3.33,3.33,0,0,1-3.3-3.3v-23.3a3.33,3.33,0,0,1,3.3-3.3h10.5a3.33,3.33,0,0,1,3.3,3.3v23.3A3.33,3.33,0,0,1,143.82,249.05Zm-10.5-28.8a2.11,2.11,0,0,0-2.1,2.1v23.3a2.05,2.05,0,0,0,2.1,2.1h10.5a2.12,2.12,0,0,0,2.11-2.1v-23.3a2.05,2.05,0,0,0-2.11-2.1Z"/><path class="cls-1" d="M153.32,234.85a.65.65,0,0,1-.6-.6v-10.9a.65.65,0,0,1,.6-.6.65.65,0,0,1,.61.6v10.9A.66.66,0,0,1,153.32,234.85Z"/><path class="cls-1" d="M153.32,239.45a.65.65,0,0,1-.6-.6v-2.7a.65.65,0,0,1,.6-.6.65.65,0,0,1,.61.6v2.7A.66.66,0,0,1,153.32,239.45Z"/><path class="cls-1" d="M153.32,243a.65.65,0,0,1-.6-.6v-1.5a.65.65,0,0,1,.6-.6.65.65,0,0,1,.61.6v1.5A.66.66,0,0,1,153.32,243Z"/><path class="cls-1" d="M157.42,228.05a.76.76,0,0,1-.4-.2l-3.7-3.7-3.7,3.7a.57.57,0,0,1-.8-.8l4.11-4.1a.61.61,0,0,1,.8,0l4.1,4.1a.61.61,0,0,1,0,.8A.56.56,0,0,1,157.42,228.05Z"/><path class="cls-1" d="M138.62,229a.65.65,0,0,1-.6-.6v-1.2a.61.61,0,0,1,1.21,0v1.2C139.12,228.75,138.92,229,138.62,229Z"/><path class="cls-1" d="M138.62,241.55a.65.65,0,0,1-.6-.6v-1.2a.61.61,0,0,1,1.21,0V241C139.12,241.25,138.92,241.55,138.62,241.55Z"/><path class="cls-1" d="M138.52,234.65a3.4,3.4,0,1,1,3.3-3.4.6.6,0,1,1-1.2,0,2.1,2.1,0,1,0-2.1,2.2.65.65,0,0,1,.6.6A.58.58,0,0,1,138.52,234.65Z"/><path class="cls-1" d="M138.62,240.15a3.35,3.35,0,0,1-3.3-3.4.61.61,0,0,1,1.21,0,2.1,2.1,0,1,0,2.1-2.2.6.6,0,0,1,0-1.2,3.4,3.4,0,0,1,0,6.8Z"/><path class="cls-1" d="M162.81,235a1.42,1.42,0,0,1-.6-.2.78.78,0,0,1,0-1.1l9-8.3a1.42,1.42,0,0,1,.6-.2h0a1.42,1.42,0,0,1,.6.2l5.3,5,10.8-10a.91.91,0,0,1,1.2,0,.78.78,0,0,1,0,1.1l-11.3,10.6a1.42,1.42,0,0,1-.6.2h0a1.42,1.42,0,0,1-.6-.2l-5.3-5-8.4,7.8C163.31,234.9,163.11,235,162.81,235Z"/><path class="cls-1" d="M189.11,228.4h0c-.5,0-.9-.4-.8-.8v-5.9H182a.79.79,0,0,1-.8-.8.86.86,0,0,1,.8-.8h7.2a.79.79,0,0,1,.8.8v6.7A.82.82,0,0,1,189.11,228.4Z"/><path class="cls-1" d="M171.71,233.7a.79.79,0,0,1-.8-.8v-1.4a.8.8,0,0,1,1.6,0v1.4A.79.79,0,0,1,171.71,233.7Z"/><path class="cls-1" d="M171.71,248.1a.79.79,0,0,1-.8-.8v-1.4a.8.8,0,0,1,1.6,0v1.4A.79.79,0,0,1,171.71,248.1Z"/><path class="cls-1" d="M171.71,240.2a4,4,0,1,1,4.2-4,.8.8,0,1,1-1.6,0,2.5,2.5,0,1,0-2.5,2.4.79.79,0,0,1,.8.8A1,1,0,0,1,171.71,240.2Z"/><path class="cls-1" d="M171.71,246.6a4.12,4.12,0,0,1-4.2-4,.8.8,0,1,1,1.6,0,2.5,2.5,0,1,0,2.5-2.4.79.79,0,0,1-.8-.8.86.86,0,0,1,.8-.8,4.12,4.12,0,0,1,4.2,4A4,4,0,0,1,171.71,246.6Z"/><path class="cls-5" d="M3.55,268.64A.65.65,0,0,1,3,268v-9.8a.65.65,0,0,1,.6-.6.65.65,0,0,1,.6.6V268A.58.58,0,0,1,3.55,268.64Z"/><path class="cls-5" d="M5.75,268.84a.65.65,0,0,1-.6-.6v-10.4a.65.65,0,0,1,.6-.6.65.65,0,0,1,.6.6v10.4A.65.65,0,0,1,5.75,268.84Z"/><path class="cls-5" d="M17.15,258.24h-1a.6.6,0,0,1,0-1.2h4.1v-.3l-9-4.2-9.1,4.2v.3h4.1a.6.6,0,0,1,0,1.2H1.55a.65.65,0,0,1-.6-.6v-1.4a.62.62,0,0,1,.4-.6l9.7-4.5a.45.45,0,0,1,.5,0l9.7,4.5a.68.68,0,0,1,.4.6v1.4a.52.52,0,0,1-.2.4.76.76,0,0,1-.5.2h-3.8Z"/><path class="cls-5" d="M16.75,263.14a.65.65,0,0,1-.6-.6v-4.8a.6.6,0,0,1,1.2,0v4.8A.58.58,0,0,1,16.75,263.14Z"/><path class="cls-5" d="M19.15,263.14a.65.65,0,0,1-.6-.6v-4.8a.6.6,0,0,1,1.2,0v4.8A.58.58,0,0,1,19.15,263.14Z"/><path class="cls-5" d="M21,269.14H1.55a.6.6,0,0,1,0-1.2H21a.6.6,0,1,1,0,1.2Z"/><path class="cls-5" d="M30.35,269.14H5.75a.6.6,0,0,1,0-1.2h24.6a.6.6,0,1,1,0,1.2Z"/><path class="cls-5" d="M28.05,281.14H8a2.9,2.9,0,0,1-2.9-2.9v-13.5a2.9,2.9,0,0,1,2.9-2.9h20.2a2.9,2.9,0,0,1,2.9,2.9v13.5A3.06,3.06,0,0,1,28.05,281.14ZM8,263.14a1.58,1.58,0,0,0-1.6,1.6v13.5a1.58,1.58,0,0,0,1.6,1.6h20.2a1.58,1.58,0,0,0,1.6-1.6v-13.5a1.58,1.58,0,0,0-1.6-1.6Z"/><path class="cls-5" d="M56.8,263.09H55.3a.6.6,0,1,1,0-1.2h6.4v-1L48,254.39l-13.8,6.4v1h6.5a.6.6,0,1,1,0,1.2H33.6a.65.65,0,0,1-.6-.6v-2a.55.55,0,0,1,.3-.5l14.4-6.7a.45.45,0,0,1,.5,0l14.4,6.7a.55.55,0,0,1,.3.5v2a.52.52,0,0,1-.2.4.76.76,0,0,1-.4.2H58.7C58.1,263,57.5,263.09,56.8,263.09Z"/><path class="cls-5" d="M36.2,278.79a.65.65,0,0,1-.6-.6v-15.6a.6.6,0,1,1,1.2,0v15.6A.65.65,0,0,1,36.2,278.79Z"/><path class="cls-5" d="M38.8,278.79a.65.65,0,0,1-.6-.6v-15.6a.6.6,0,0,1,1.2,0v15.6A.58.58,0,0,1,38.8,278.79Z"/><path class="cls-5" d="M57.2,279.09a.65.65,0,0,1-.6-.6v-15.9a.6.6,0,1,1,1.2,0v15.9A.65.65,0,0,1,57.2,279.09Z"/><path class="cls-5" d="M59.8,279.09a.65.65,0,0,1-.6-.6v-15.9a.6.6,0,0,1,1.2,0v15.9A.58.58,0,0,1,59.8,279.09Z"/><path class="cls-5" d="M62.4,279.09H33.6a.6.6,0,1,1,0-1.2H62.4a.6.6,0,1,1,0,1.2Z"/><path class="cls-5" d="M48,262.19a.65.65,0,0,1-.6-.6v-1.2a.6.6,0,0,1,1.2,0v1.2A.65.65,0,0,1,48,262.19Z"/><path class="cls-5" d="M48,274.79a.65.65,0,0,1-.6-.6V273a.6.6,0,0,1,1.2,0v1.2A.58.58,0,0,1,48,274.79Z"/><path class="cls-5" d="M48,267.89a3.4,3.4,0,1,1,3.4-3.4.6.6,0,0,1-1.2,0,2.2,2.2,0,1,0-2.2,2.2.65.65,0,0,1,.6.6A.58.58,0,0,1,48,267.89Z"/><path class="cls-5" d="M48,273.49a3.37,3.37,0,0,1-3.4-3.4.6.6,0,1,1,1.2,0,2.2,2.2,0,1,0,2.2-2.2.6.6,0,1,1,0-1.2,3.4,3.4,0,0,1,0,6.8Z"/><path class="cls-5" d="M83.76,265a3.44,3.44,0,0,1-3.4-2.9.75.75,0,0,1,.1-.5.76.76,0,0,1,.5-.2h5.7c.2,0,.3.1.5.2a.44.44,0,0,1,.1.5A3.64,3.64,0,0,1,83.76,265Zm-2-2.4a2.4,2.4,0,0,0,2,1.2,2.27,2.27,0,0,0,2-1.2Z"/><path class="cls-5" d="M76.16,265a3.44,3.44,0,0,1-3.4-2.9.75.75,0,0,1,.1-.5.76.76,0,0,1,.5-.2H79c.2,0,.3.1.5.2a.44.44,0,0,1,.1.5A3.53,3.53,0,0,1,76.16,265Zm-2.1-2.4a2.4,2.4,0,0,0,2,1.2,2.27,2.27,0,0,0,2-1.2Z"/><path class="cls-5" d="M68.36,265a3.44,3.44,0,0,1-3.4-2.9.75.75,0,0,1,.1-.5.76.76,0,0,1,.5-.2h5.7c.2,0,.3.1.5.2s.2.3.1.5A3.54,3.54,0,0,1,68.36,265Zm-2-2.4a2.27,2.27,0,0,0,4,0Z"/><path class="cls-5" d="M91.46,265a3.44,3.44,0,0,1-3.4-2.9.75.75,0,0,1,.1-.5.76.76,0,0,1,.5-.2h5.7c.2,0,.3.1.5.2a.44.44,0,0,1,.1.5A3.54,3.54,0,0,1,91.46,265Zm-2-2.4a2.4,2.4,0,0,0,2,1.2,2.27,2.27,0,0,0,2-1.2Z"/><path class="cls-5" d="M65.56,262.55a.55.55,0,0,1-.5-.3.64.64,0,0,1,0-.6l4.6-8.2a.55.55,0,0,1,.5-.3h19.7a.55.55,0,0,1,.5.3l4.6,8.2a.64.64,0,0,1,0,.6.55.55,0,0,1-.5.3Zm4.9-8.3-3.9,7h26.8l-3.9-7Z"/><path class="cls-5" d="M92.66,279.05h-25a.65.65,0,0,1-.6-.6v-14.1a.6.6,0,1,1,1.2,0v13.5h23.8v-13.5a.6.6,0,1,1,1.2,0v14.1A.65.65,0,0,1,92.66,279.05Z"/><path class="cls-5" d="M79.06,279.05h-7.7v-9.9a2.22,2.22,0,0,1,2.2-2.2h3.3a2.22,2.22,0,0,1,2.2,2.2Zm-6.5-1.2h5.3v-8.7a1,1,0,0,0-1-1h-3.3a1,1,0,0,0-1,1Z"/><path class="cls-5" d="M86.86,273.75h-3a2.11,2.11,0,0,1-2.1-2.1v-2.6a2.05,2.05,0,0,1,2.1-2.1h3a2.11,2.11,0,0,1,2.1,2.1v2.6A2.05,2.05,0,0,1,86.86,273.75Zm-3-5.6a.9.9,0,0,0-.9.9v2.6a.9.9,0,0,0,.9.9h3a.9.9,0,0,0,.9-.9v-2.6a.9.9,0,0,0-.9-.9Z"/><path class="cls-5" d="M112.05,281.09h-.8c-6.8-.5-12.2-6.7-12.2-14.3V253a1,1,0,0,1,.7-.9,77.44,77.44,0,0,1,24.5,0,1,1,0,0,1,.7.9v14.3a14.38,14.38,0,0,1-4.1,10.1A12.34,12.34,0,0,1,112.05,281.09Zm-11.4-27.4v13.1c0,6.7,4.7,12.2,10.6,12.6a10.85,10.85,0,0,0,8.5-3.2,12.55,12.55,0,0,0,3.6-8.9v-13.6A72,72,0,0,0,100.65,253.69Z"/><path class="cls-5" d="M110.35,270.79h0a2,2,0,0,1-1.4-.6l-3.5-3.7a.91.91,0,0,1,0-1.2.78.78,0,0,1,1.1,0l3.5,3.7a.31.31,0,0,0,.2.1c.1,0,.2,0,.2-.1l6.9-7.3a.78.78,0,0,1,1.1,0,.91.91,0,0,1,0,1.2l-6.9,7.3A1.31,1.31,0,0,1,110.35,270.79Z"/><path class="cls-5" d="M143.82,281.05h-10.5a3.33,3.33,0,0,1-3.3-3.3v-23.3a3.33,3.33,0,0,1,3.3-3.3h10.5a3.33,3.33,0,0,1,3.3,3.3v23.3A3.33,3.33,0,0,1,143.82,281.05Zm-10.5-28.8a2.11,2.11,0,0,0-2.1,2.1v23.3a2.05,2.05,0,0,0,2.1,2.1h10.5a2.12,2.12,0,0,0,2.11-2.1v-23.3a2.05,2.05,0,0,0-2.11-2.1Z"/><path class="cls-5" d="M153.32,266.85a.65.65,0,0,1-.6-.6v-10.9a.65.65,0,0,1,.6-.6.65.65,0,0,1,.61.6v10.9A.66.66,0,0,1,153.32,266.85Z"/><path class="cls-5" d="M153.32,271.45a.65.65,0,0,1-.6-.6v-2.7a.65.65,0,0,1,.6-.6.65.65,0,0,1,.61.6v2.7A.59.59,0,0,1,153.32,271.45Z"/><path class="cls-5" d="M153.32,275a.65.65,0,0,1-.6-.6v-1.5a.65.65,0,0,1,.6-.6.65.65,0,0,1,.61.6v1.5A.66.66,0,0,1,153.32,275Z"/><path class="cls-5" d="M157.42,260.05a.76.76,0,0,1-.4-.2l-3.7-3.7-3.7,3.7a.57.57,0,1,1-.8-.8l4.11-4.1a.61.61,0,0,1,.8,0l4.1,4.1a.61.61,0,0,1,0,.8C157.72,260.05,157.62,260.05,157.42,260.05Z"/><path class="cls-5" d="M138.62,261a.65.65,0,0,1-.6-.6v-1.2a.61.61,0,0,1,1.21,0v1.2C139.12,260.75,138.92,261,138.62,261Z"/><path class="cls-5" d="M138.62,273.55a.65.65,0,0,1-.6-.6v-1.2a.61.61,0,0,1,1.21,0V273C139.12,273.25,138.92,273.55,138.62,273.55Z"/><path class="cls-5" d="M138.52,266.65a3.4,3.4,0,1,1,3.3-3.4.6.6,0,1,1-1.2,0,2.1,2.1,0,1,0-2.1,2.2.65.65,0,0,1,.6.6A.58.58,0,0,1,138.52,266.65Z"/><path class="cls-5" d="M138.62,272.15a3.35,3.35,0,0,1-3.3-3.4.61.61,0,0,1,1.21,0,2.1,2.1,0,1,0,2.1-2.2.6.6,0,0,1,0-1.2,3.4,3.4,0,0,1,0,6.8Z"/><path class="cls-5" d="M162.81,267a1.42,1.42,0,0,1-.6-.2.78.78,0,0,1,0-1.1l9-8.3a1.42,1.42,0,0,1,.6-.2h0a1.42,1.42,0,0,1,.6.2l5.3,5,10.8-10a.91.91,0,0,1,1.2,0,.78.78,0,0,1,0,1.1l-11.4,10.6a1.42,1.42,0,0,1-.6.2h0a1.42,1.42,0,0,1-.6-.2l-5.3-5-8.4,7.8C163.31,267,163.11,267,162.81,267Z"/><path class="cls-5" d="M189.11,260.4h0c-.5,0-.9-.4-.8-.8v-5.9H182a.79.79,0,0,1-.8-.8.86.86,0,0,1,.8-.8h7.2a.79.79,0,0,1,.8.8v6.7A.82.82,0,0,1,189.11,260.4Z"/><path class="cls-5" d="M171.71,265.7a.79.79,0,0,1-.8-.8v-1.4a.8.8,0,0,1,1.6,0v1.4A.79.79,0,0,1,171.71,265.7Z"/><path class="cls-5" d="M171.71,280.1a.79.79,0,0,1-.8-.8v-1.4a.8.8,0,1,1,1.6,0v1.4A.74.74,0,0,1,171.71,280.1Z"/><path class="cls-5" d="M171.71,272.2a4,4,0,1,1,4.2-4,.8.8,0,1,1-1.6,0,2.5,2.5,0,1,0-2.5,2.4.79.79,0,0,1,.8.8A1,1,0,0,1,171.71,272.2Z"/><path class="cls-5" d="M171.71,278.6a4.12,4.12,0,0,1-4.2-4,.8.8,0,0,1,1.6,0,2.5,2.5,0,1,0,2.5-2.4.79.79,0,0,1-.8-.8.86.86,0,0,1,.8-.8,4.12,4.12,0,0,1,4.2,4A4,4,0,0,1,171.71,278.6Z"/><path class="cls-3" d="M3.55,300.64A.65.65,0,0,1,3,300v-9.8a.65.65,0,0,1,.6-.6.65.65,0,0,1,.6.6V300A.58.58,0,0,1,3.55,300.64Z"/><path class="cls-3" d="M5.75,300.84a.65.65,0,0,1-.6-.6v-10.4a.65.65,0,0,1,.6-.6.65.65,0,0,1,.6.6v10.4A.65.65,0,0,1,5.75,300.84Z"/><path class="cls-3" d="M17.15,290.24h-1a.6.6,0,0,1,0-1.2h4.1v-.3l-9-4.2-9.1,4.2v.3h4.1a.6.6,0,1,1,0,1.2H1.55a.65.65,0,0,1-.6-.6v-1.4a.62.62,0,0,1,.4-.6l9.7-4.5a.45.45,0,0,1,.5,0l9.7,4.5a.68.68,0,0,1,.4.6v1.4a.52.52,0,0,1-.2.4.76.76,0,0,1-.5.2h-3.8Z"/><path class="cls-3" d="M16.75,295.14a.65.65,0,0,1-.6-.6v-4.8a.6.6,0,0,1,1.2,0v4.8A.58.58,0,0,1,16.75,295.14Z"/><path class="cls-3" d="M19.15,295.14a.65.65,0,0,1-.6-.6v-4.8a.6.6,0,0,1,1.2,0v4.8A.58.58,0,0,1,19.15,295.14Z"/><path class="cls-3" d="M21,301.14H1.55a.6.6,0,0,1,0-1.2H21a.6.6,0,1,1,0,1.2Z"/><path class="cls-3" d="M30.35,301.14H5.75a.6.6,0,0,1,0-1.2h24.6a.6.6,0,1,1,0,1.2Z"/><path class="cls-3" d="M28.05,313.14H8a2.9,2.9,0,0,1-2.9-2.9v-13.5a2.9,2.9,0,0,1,2.9-2.9h20.2a2.9,2.9,0,0,1,2.9,2.9v13.5A3.06,3.06,0,0,1,28.05,313.14ZM8,295.14a1.58,1.58,0,0,0-1.6,1.6v13.5a1.58,1.58,0,0,0,1.6,1.6h20.2a1.58,1.58,0,0,0,1.6-1.6v-13.5a1.58,1.58,0,0,0-1.6-1.6Z"/><path class="cls-3" d="M56.8,295.09H55.3a.6.6,0,1,1,0-1.2h6.4v-1L48,286.39l-13.8,6.4v1h6.5a.6.6,0,1,1,0,1.2H33.6a.65.65,0,0,1-.6-.6v-2a.55.55,0,0,1,.3-.5l14.4-6.7a.45.45,0,0,1,.5,0l14.4,6.7a.55.55,0,0,1,.3.5v2a.52.52,0,0,1-.2.4.76.76,0,0,1-.4.2H58.7C58.1,295,57.5,295.09,56.8,295.09Z"/><path class="cls-3" d="M36.2,310.79a.65.65,0,0,1-.6-.6v-15.6a.6.6,0,1,1,1.2,0v15.6A.65.65,0,0,1,36.2,310.79Z"/><path class="cls-3" d="M38.8,310.79a.65.65,0,0,1-.6-.6v-15.6a.6.6,0,0,1,1.2,0v15.6A.58.58,0,0,1,38.8,310.79Z"/><path class="cls-3" d="M57.2,311.09a.65.65,0,0,1-.6-.6v-15.9a.6.6,0,1,1,1.2,0v15.9A.65.65,0,0,1,57.2,311.09Z"/><path class="cls-3" d="M59.8,311.09a.65.65,0,0,1-.6-.6v-15.9a.6.6,0,0,1,1.2,0v15.9A.58.58,0,0,1,59.8,311.09Z"/><path class="cls-3" d="M62.4,311.09H33.6a.6.6,0,0,1,0-1.2H62.4a.6.6,0,1,1,0,1.2Z"/><path class="cls-3" d="M48,294.19a.65.65,0,0,1-.6-.6v-1.2a.6.6,0,0,1,1.2,0v1.2A.65.65,0,0,1,48,294.19Z"/><path class="cls-3" d="M48,306.79a.65.65,0,0,1-.6-.6V305a.6.6,0,0,1,1.2,0v1.2A.58.58,0,0,1,48,306.79Z"/><path class="cls-3" d="M48,299.89a3.4,3.4,0,1,1,3.4-3.4.6.6,0,0,1-1.2,0,2.2,2.2,0,1,0-2.2,2.2.65.65,0,0,1,.6.6A.58.58,0,0,1,48,299.89Z"/><path class="cls-3" d="M48,305.49a3.37,3.37,0,0,1-3.4-3.4.6.6,0,1,1,1.2,0,2.2,2.2,0,1,0,2.2-2.2.6.6,0,1,1,0-1.2,3.4,3.4,0,0,1,0,6.8Z"/><path class="cls-3" d="M83.76,297a3.44,3.44,0,0,1-3.4-2.9.75.75,0,0,1,.1-.5.76.76,0,0,1,.5-.2h5.7c.2,0,.3.1.5.2a.44.44,0,0,1,.1.5A3.64,3.64,0,0,1,83.76,297Zm-2-2.4a2.4,2.4,0,0,0,2,1.2,2.27,2.27,0,0,0,2-1.2Z"/><path class="cls-3" d="M76.16,297a3.44,3.44,0,0,1-3.4-2.9.75.75,0,0,1,.1-.5.76.76,0,0,1,.5-.2H79c.2,0,.3.1.5.2a.44.44,0,0,1,.1.5A3.53,3.53,0,0,1,76.16,297Zm-2.1-2.4a2.4,2.4,0,0,0,2,1.2,2.27,2.27,0,0,0,2-1.2Z"/><path class="cls-3" d="M68.36,297a3.44,3.44,0,0,1-3.4-2.9.75.75,0,0,1,.1-.5.76.76,0,0,1,.5-.2h5.7c.2,0,.3.1.5.2s.2.3.1.5A3.54,3.54,0,0,1,68.36,297Zm-2-2.4a2.27,2.27,0,0,0,4,0Z"/><path class="cls-3" d="M91.46,297a3.44,3.44,0,0,1-3.4-2.9.75.75,0,0,1,.1-.5.76.76,0,0,1,.5-.2h5.7c.2,0,.3.1.5.2a.44.44,0,0,1,.1.5A3.54,3.54,0,0,1,91.46,297Zm-2-2.4a2.4,2.4,0,0,0,2,1.2,2.27,2.27,0,0,0,2-1.2Z"/><path class="cls-3" d="M65.56,294.55a.55.55,0,0,1-.5-.3.64.64,0,0,1,0-.6l4.6-8.2a.55.55,0,0,1,.5-.3h19.7a.55.55,0,0,1,.5.3l4.6,8.2a.64.64,0,0,1,0,.6.55.55,0,0,1-.5.3Zm4.9-8.3-3.9,7h26.8l-3.9-7Z"/><path class="cls-3" d="M92.66,311.05h-25a.65.65,0,0,1-.6-.6v-14.1a.6.6,0,1,1,1.2,0v13.5h23.8v-13.5a.6.6,0,1,1,1.2,0v14.1A.65.65,0,0,1,92.66,311.05Z"/><path class="cls-3" d="M79.06,311.05h-7.7v-9.9a2.22,2.22,0,0,1,2.2-2.2h3.3a2.22,2.22,0,0,1,2.2,2.2Zm-6.5-1.2h5.3v-8.7a1,1,0,0,0-1-1h-3.3a1,1,0,0,0-1,1Z"/><path class="cls-3" d="M86.86,305.75h-3a2.11,2.11,0,0,1-2.1-2.1v-2.6a2.05,2.05,0,0,1,2.1-2.1h3a2.11,2.11,0,0,1,2.1,2.1v2.6A2.05,2.05,0,0,1,86.86,305.75Zm-3-5.6a.9.9,0,0,0-.9.9v2.6a.9.9,0,0,0,.9.9h3a.9.9,0,0,0,.9-.9v-2.6a.9.9,0,0,0-.9-.9Z"/><path class="cls-3" d="M112.05,313.09h-.8c-6.8-.5-12.2-6.7-12.2-14.3V285a1,1,0,0,1,.7-.9,77.44,77.44,0,0,1,24.5,0,1,1,0,0,1,.7.9v14.3a14.38,14.38,0,0,1-4.1,10.1A12.34,12.34,0,0,1,112.05,313.09Zm-11.4-27.4v13.1c0,6.7,4.7,12.2,10.6,12.6a10.85,10.85,0,0,0,8.5-3.2,12.55,12.55,0,0,0,3.6-8.9v-13.6A72,72,0,0,0,100.65,285.69Z"/><path class="cls-3" d="M110.35,302.79h0a2,2,0,0,1-1.4-.6l-3.5-3.7a.91.91,0,0,1,0-1.2.78.78,0,0,1,1.1,0l3.5,3.7a.31.31,0,0,0,.2.1c.1,0,.2,0,.2-.1l6.9-7.3a.78.78,0,0,1,1.1,0,.91.91,0,0,1,0,1.2l-6.9,7.3A1.31,1.31,0,0,1,110.35,302.79Z"/><path class="cls-3" d="M143.82,313.05h-10.5a3.33,3.33,0,0,1-3.3-3.3v-23.3a3.33,3.33,0,0,1,3.3-3.3h10.5a3.33,3.33,0,0,1,3.3,3.3v23.3A3.33,3.33,0,0,1,143.82,313.05Zm-10.5-28.8a2.11,2.11,0,0,0-2.1,2.1v23.3a2.05,2.05,0,0,0,2.1,2.1h10.5a2.12,2.12,0,0,0,2.11-2.1v-23.3a2.05,2.05,0,0,0-2.11-2.1Z"/><path class="cls-3" d="M153.32,298.85a.65.65,0,0,1-.6-.6v-10.9a.65.65,0,0,1,.6-.6.65.65,0,0,1,.61.6v10.9A.66.66,0,0,1,153.32,298.85Z"/><path class="cls-3" d="M153.32,303.45a.65.65,0,0,1-.6-.6v-2.7a.65.65,0,0,1,.6-.6.65.65,0,0,1,.61.6v2.7A.59.59,0,0,1,153.32,303.45Z"/><path class="cls-3" d="M153.32,307a.65.65,0,0,1-.6-.6v-1.5a.65.65,0,0,1,.6-.6.65.65,0,0,1,.61.6v1.5A.66.66,0,0,1,153.32,307Z"/><path class="cls-3" d="M157.42,292.05a.76.76,0,0,1-.4-.2l-3.7-3.7-3.7,3.7a.57.57,0,1,1-.8-.8l4.11-4.1a.61.61,0,0,1,.8,0l4.1,4.1a.61.61,0,0,1,0,.8C157.72,292.05,157.62,292.05,157.42,292.05Z"/><path class="cls-3" d="M138.62,293a.65.65,0,0,1-.6-.6v-1.2a.61.61,0,0,1,1.21,0v1.2C139.12,292.75,138.92,293,138.62,293Z"/><path class="cls-3" d="M138.62,305.55a.65.65,0,0,1-.6-.6v-1.2a.61.61,0,0,1,1.21,0V305C139.12,305.25,138.92,305.55,138.62,305.55Z"/><path class="cls-3" d="M138.52,298.65a3.4,3.4,0,1,1,3.3-3.4.6.6,0,1,1-1.2,0,2.1,2.1,0,1,0-2.1,2.2.65.65,0,0,1,.6.6A.53.53,0,0,1,138.52,298.65Z"/><path class="cls-3" d="M138.62,304.15a3.35,3.35,0,0,1-3.3-3.4.61.61,0,0,1,1.21,0,2.1,2.1,0,1,0,2.1-2.2.6.6,0,0,1,0-1.2,3.4,3.4,0,0,1,0,6.8Z"/><path class="cls-3" d="M162.81,299a1.42,1.42,0,0,1-.6-.2.78.78,0,0,1,0-1.1l9-8.3a1.42,1.42,0,0,1,.6-.2h0a1.42,1.42,0,0,1,.6.2l5.3,5,10.8-10a.91.91,0,0,1,1.2,0,.78.78,0,0,1,0,1.1l-11.4,10.6a1.42,1.42,0,0,1-.6.2h0a1.42,1.42,0,0,1-.6-.2l-5.3-5-8.4,7.8C163.31,299,163.11,299,162.81,299Z"/><path class="cls-3" d="M189.11,292.4h0c-.5,0-.9-.4-.8-.8v-5.9H182a.79.79,0,0,1-.8-.8.86.86,0,0,1,.8-.8h7.2a.79.79,0,0,1,.8.8v6.7A.82.82,0,0,1,189.11,292.4Z"/><path class="cls-3" d="M171.71,297.7a.79.79,0,0,1-.8-.8v-1.4a.8.8,0,0,1,1.6,0v1.4A.79.79,0,0,1,171.71,297.7Z"/><path class="cls-3" d="M171.71,312.1a.79.79,0,0,1-.8-.8v-1.4a.8.8,0,1,1,1.6,0v1.4A.74.74,0,0,1,171.71,312.1Z"/><path class="cls-3" d="M171.71,304.2a4,4,0,1,1,4.2-4,.8.8,0,1,1-1.6,0,2.5,2.5,0,1,0-2.5,2.4.79.79,0,0,1,.8.8A1,1,0,0,1,171.71,304.2Z"/><path class="cls-3" d="M171.71,310.6a4.12,4.12,0,0,1-4.2-4,.8.8,0,0,1,1.6,0,2.5,2.5,0,1,0,2.5-2.4.79.79,0,0,1-.8-.8.86.86,0,0,1,.8-.8,4.12,4.12,0,0,1,4.2,4A4,4,0,0,1,171.71,310.6Z"/><path class="cls-4" d="M3.55,332.64A.65.65,0,0,1,3,332v-9.8a.65.65,0,0,1,.6-.6.65.65,0,0,1,.6.6V332A.58.58,0,0,1,3.55,332.64Z"/><path class="cls-4" d="M5.75,332.84a.65.65,0,0,1-.6-.6v-10.4a.65.65,0,0,1,.6-.6.65.65,0,0,1,.6.6v10.4A.65.65,0,0,1,5.75,332.84Z"/><path class="cls-4" d="M17.15,322.24h-1a.6.6,0,0,1,0-1.2h4.1v-.3l-9-4.2-9.1,4.2v.3h4.1a.6.6,0,1,1,0,1.2H1.55a.65.65,0,0,1-.6-.6v-1.4a.62.62,0,0,1,.4-.6l9.7-4.5a.45.45,0,0,1,.5,0l9.7,4.5a.68.68,0,0,1,.4.6v1.4a.52.52,0,0,1-.2.4.76.76,0,0,1-.5.2h-3.8Z"/><path class="cls-4" d="M16.75,327.14a.65.65,0,0,1-.6-.6v-4.8a.6.6,0,0,1,1.2,0v4.8A.58.58,0,0,1,16.75,327.14Z"/><path class="cls-4" d="M19.15,327.14a.65.65,0,0,1-.6-.6v-4.8a.6.6,0,0,1,1.2,0v4.8A.58.58,0,0,1,19.15,327.14Z"/><path class="cls-4" d="M21,333.14H1.55a.6.6,0,0,1,0-1.2H21a.6.6,0,1,1,0,1.2Z"/><path class="cls-4" d="M30.35,333.14H5.75a.6.6,0,0,1,0-1.2h24.6a.6.6,0,1,1,0,1.2Z"/><path class="cls-4" d="M28.05,345.14H8a2.9,2.9,0,0,1-2.9-2.9v-13.5a2.9,2.9,0,0,1,2.9-2.9h20.2a2.9,2.9,0,0,1,2.9,2.9v13.5A3.06,3.06,0,0,1,28.05,345.14ZM8,327.14a1.58,1.58,0,0,0-1.6,1.6v13.5a1.58,1.58,0,0,0,1.6,1.6h20.2a1.58,1.58,0,0,0,1.6-1.6v-13.5a1.58,1.58,0,0,0-1.6-1.6Z"/><path class="cls-4" d="M56.8,327.09H55.3a.6.6,0,1,1,0-1.2h6.4v-1L48,318.39l-13.8,6.4v1h6.5a.6.6,0,1,1,0,1.2H33.6a.65.65,0,0,1-.6-.6v-2a.55.55,0,0,1,.3-.5l14.4-6.7a.45.45,0,0,1,.5,0l14.4,6.7a.55.55,0,0,1,.3.5v2a.52.52,0,0,1-.2.4.76.76,0,0,1-.4.2H58.7C58.1,327,57.5,327.09,56.8,327.09Z"/><path class="cls-4" d="M36.2,342.79a.65.65,0,0,1-.6-.6v-15.6a.6.6,0,1,1,1.2,0v15.6A.65.65,0,0,1,36.2,342.79Z"/><path class="cls-4" d="M38.8,342.79a.65.65,0,0,1-.6-.6v-15.6a.6.6,0,0,1,1.2,0v15.6A.58.58,0,0,1,38.8,342.79Z"/><path class="cls-4" d="M57.2,343.09a.65.65,0,0,1-.6-.6v-15.9a.6.6,0,1,1,1.2,0v15.9A.65.65,0,0,1,57.2,343.09Z"/><path class="cls-4" d="M59.8,343.09a.65.65,0,0,1-.6-.6v-15.9a.6.6,0,0,1,1.2,0v15.9A.58.58,0,0,1,59.8,343.09Z"/><path class="cls-4" d="M62.4,343.09H33.6a.6.6,0,0,1,0-1.2H62.4a.6.6,0,1,1,0,1.2Z"/><path class="cls-4" d="M48,326.19a.65.65,0,0,1-.6-.6v-1.2a.6.6,0,0,1,1.2,0v1.2A.65.65,0,0,1,48,326.19Z"/><path class="cls-4" d="M48,338.79a.65.65,0,0,1-.6-.6V337a.6.6,0,0,1,1.2,0v1.2A.58.58,0,0,1,48,338.79Z"/><path class="cls-4" d="M48,331.89a3.4,3.4,0,1,1,3.4-3.4.6.6,0,0,1-1.2,0,2.2,2.2,0,1,0-2.2,2.2.6.6,0,1,1,0,1.2Z"/><path class="cls-4" d="M48,337.49a3.37,3.37,0,0,1-3.4-3.4.6.6,0,1,1,1.2,0,2.2,2.2,0,1,0,2.2-2.2.6.6,0,0,1,0-1.2,3.4,3.4,0,0,1,0,6.8Z"/><path class="cls-4" d="M83.76,329a3.44,3.44,0,0,1-3.4-2.9.75.75,0,0,1,.1-.5.76.76,0,0,1,.5-.2h5.7c.2,0,.3.1.5.2a.44.44,0,0,1,.1.5A3.64,3.64,0,0,1,83.76,329Zm-2-2.4a2.4,2.4,0,0,0,2,1.2,2.27,2.27,0,0,0,2-1.2Z"/><path class="cls-4" d="M76.16,329a3.44,3.44,0,0,1-3.4-2.9.75.75,0,0,1,.1-.5.76.76,0,0,1,.5-.2H79c.2,0,.3.1.5.2a.44.44,0,0,1,.1.5A3.53,3.53,0,0,1,76.16,329Zm-2.1-2.4a2.4,2.4,0,0,0,2,1.2,2.27,2.27,0,0,0,2-1.2Z"/><path class="cls-4" d="M68.36,329a3.44,3.44,0,0,1-3.4-2.9.75.75,0,0,1,.1-.5.76.76,0,0,1,.5-.2h5.7c.2,0,.3.1.5.2a.44.44,0,0,1,.1.5A3.54,3.54,0,0,1,68.36,329Zm-2-2.4a2.27,2.27,0,0,0,4,0Z"/><path class="cls-4" d="M91.46,329a3.44,3.44,0,0,1-3.4-2.9.75.75,0,0,1,.1-.5.76.76,0,0,1,.5-.2h5.7c.2,0,.3.1.5.2s.2.3.1.5A3.54,3.54,0,0,1,91.46,329Zm-2-2.4a2.4,2.4,0,0,0,2,1.2,2.27,2.27,0,0,0,2-1.2Z"/><path class="cls-4" d="M65.56,326.55a.55.55,0,0,1-.5-.3.64.64,0,0,1,0-.6l4.6-8.2a.55.55,0,0,1,.5-.3h19.7a.55.55,0,0,1,.5.3l4.6,8.2a.64.64,0,0,1,0,.6.55.55,0,0,1-.5.3Zm4.9-8.3-3.9,7h26.8l-3.9-7Z"/><path class="cls-4" d="M92.66,343.05h-25a.65.65,0,0,1-.6-.6v-14.1a.6.6,0,1,1,1.2,0v13.5h23.8v-13.5a.6.6,0,1,1,1.2,0v14.1A.65.65,0,0,1,92.66,343.05Z"/><path class="cls-4" d="M79.06,343.05h-7.7v-9.9a2.22,2.22,0,0,1,2.2-2.2h3.3a2.22,2.22,0,0,1,2.2,2.2Zm-6.5-1.2h5.3v-8.7a1,1,0,0,0-1-1h-3.3a1,1,0,0,0-1,1Z"/><path class="cls-4" d="M86.86,337.75h-3a2.11,2.11,0,0,1-2.1-2.1v-2.6a2.05,2.05,0,0,1,2.1-2.1h3a2.11,2.11,0,0,1,2.1,2.1v2.6A2.05,2.05,0,0,1,86.86,337.75Zm-3-5.6a.9.9,0,0,0-.9.9v2.6a.9.9,0,0,0,.9.9h3a.9.9,0,0,0,.9-.9v-2.6a.9.9,0,0,0-.9-.9Z"/><path class="cls-4" d="M112.05,345.09h-.8c-6.8-.5-12.2-6.7-12.2-14.3V317a1,1,0,0,1,.7-.9,77.44,77.44,0,0,1,24.5,0,1,1,0,0,1,.7.9v14.3a14.38,14.38,0,0,1-4.1,10.1A12.34,12.34,0,0,1,112.05,345.09Zm-11.4-27.4v13.1c0,6.7,4.7,12.2,10.6,12.6a10.85,10.85,0,0,0,8.5-3.2,12.55,12.55,0,0,0,3.6-8.9v-13.6A72,72,0,0,0,100.65,317.69Z"/><path class="cls-4" d="M110.35,334.79h0a2,2,0,0,1-1.4-.6l-3.5-3.7a.91.91,0,0,1,0-1.2.78.78,0,0,1,1.1,0l3.5,3.7a.31.31,0,0,0,.2.1c.1,0,.2,0,.2-.1l6.9-7.3a.78.78,0,0,1,1.1,0,.91.91,0,0,1,0,1.2l-6.9,7.3A1.31,1.31,0,0,1,110.35,334.79Z"/><path class="cls-4" d="M143.82,345.05h-10.5a3.33,3.33,0,0,1-3.3-3.3v-23.3a3.33,3.33,0,0,1,3.3-3.3h10.5a3.33,3.33,0,0,1,3.3,3.3v23.3A3.33,3.33,0,0,1,143.82,345.05Zm-10.5-28.8a2.11,2.11,0,0,0-2.1,2.1v23.3a2.05,2.05,0,0,0,2.1,2.1h10.5a2.12,2.12,0,0,0,2.11-2.1v-23.3a2.05,2.05,0,0,0-2.11-2.1Z"/><path class="cls-4" d="M153.32,330.85a.65.65,0,0,1-.6-.6v-10.9a.65.65,0,0,1,.6-.6.65.65,0,0,1,.61.6v10.9A.66.66,0,0,1,153.32,330.85Z"/><path class="cls-4" d="M153.32,335.45a.65.65,0,0,1-.6-.6v-2.7a.65.65,0,0,1,.6-.6.65.65,0,0,1,.61.6v2.7A.59.59,0,0,1,153.32,335.45Z"/><path class="cls-4" d="M153.32,339a.65.65,0,0,1-.6-.6v-1.5a.65.65,0,0,1,.6-.6.65.65,0,0,1,.61.6v1.5A.66.66,0,0,1,153.32,339Z"/><path class="cls-4" d="M157.42,324.05a.76.76,0,0,1-.4-.2l-3.7-3.7-3.7,3.7a.57.57,0,1,1-.8-.8l4.11-4.1a.61.61,0,0,1,.8,0l4.1,4.1a.61.61,0,0,1,0,.8C157.72,324.05,157.62,324.05,157.42,324.05Z"/><path class="cls-4" d="M138.62,325a.65.65,0,0,1-.6-.6v-1.2a.61.61,0,0,1,1.21,0v1.2C139.12,324.75,138.92,325,138.62,325Z"/><path class="cls-4" d="M138.62,337.55a.65.65,0,0,1-.6-.6v-1.2a.61.61,0,0,1,1.21,0V337C139.12,337.25,138.92,337.55,138.62,337.55Z"/><path class="cls-4" d="M138.52,330.65a3.4,3.4,0,1,1,3.3-3.4.6.6,0,1,1-1.2,0,2.1,2.1,0,1,0-2.1,2.2.65.65,0,0,1,.6.6A.53.53,0,0,1,138.52,330.65Z"/><path class="cls-4" d="M138.62,336.15a3.35,3.35,0,0,1-3.3-3.4.61.61,0,0,1,1.21,0,2.1,2.1,0,1,0,2.1-2.2.6.6,0,0,1,0-1.2,3.4,3.4,0,0,1,0,6.8Z"/><path class="cls-4" d="M162.81,331a1.42,1.42,0,0,1-.6-.2.78.78,0,0,1,0-1.1l9-8.3a1.42,1.42,0,0,1,.6-.2h0a1.42,1.42,0,0,1,.6.2l5.3,5,10.8-10a.91.91,0,0,1,1.2,0,.78.78,0,0,1,0,1.1l-11.4,10.6a1.42,1.42,0,0,1-.6.2h0a1.42,1.42,0,0,1-.6-.2l-5.3-5-8.4,7.8C163.31,331,163.11,331,162.81,331Z"/><path class="cls-4" d="M189.11,324.4h0c-.5,0-.9-.4-.8-.8v-5.9H182a.79.79,0,0,1-.8-.8.86.86,0,0,1,.8-.8h7.2a.79.79,0,0,1,.8.8v6.7A.82.82,0,0,1,189.11,324.4Z"/><path class="cls-4" d="M171.71,329.7a.79.79,0,0,1-.8-.8v-1.4a.8.8,0,0,1,1.6,0v1.4A.79.79,0,0,1,171.71,329.7Z"/><path class="cls-4" d="M171.71,344.1a.79.79,0,0,1-.8-.8v-1.4a.8.8,0,0,1,1.6,0v1.4A.74.74,0,0,1,171.71,344.1Z"/><path class="cls-4" d="M171.71,336.2a4,4,0,1,1,4.2-4,.8.8,0,1,1-1.6,0,2.5,2.5,0,1,0-2.5,2.4.79.79,0,0,1,.8.8A1,1,0,0,1,171.71,336.2Z"/><path class="cls-4" d="M171.71,342.6a4.12,4.12,0,0,1-4.2-4,.8.8,0,0,1,1.6,0,2.5,2.5,0,1,0,2.5-2.4.79.79,0,0,1-.8-.8.86.86,0,0,1,.8-.8,4.12,4.12,0,0,1,4.2,4A4,4,0,0,1,171.71,342.6Z"/><path class="cls-1" d="M147.7,50.91h-37a5.7,5.7,0,0,1-5.7-5.7V19.51a.91.91,0,0,1,.4-.8l21.1-17.4a1.05,1.05,0,0,1,1.3,0l21.1,17.4a1.23,1.23,0,0,1,.4.8v2.7a1,1,0,1,1-2,0V20L127.2,3.51,107,20v25.2a3.69,3.69,0,0,0,3.7,3.7h37a1,1,0,0,1,0,2Z"/><path class="cls-1" d="M133.7,50.91a.94.94,0,0,1-1-1V28.11H122.5v21.7a1,1,0,0,1-2,0V27.11a.94.94,0,0,1,1-1h12.2a.94.94,0,0,1,1,1v22.7A1,1,0,0,1,133.7,50.91Z"/><path class="cls-1" d="M146,45.61h-.6a9.2,9.2,0,0,1-8.4-9.3v-8.5a1,1,0,0,1,.9-1,55,55,0,0,1,16.2,0,1.06,1.06,0,0,1,.9,1v8.8a9.07,9.07,0,0,1-2.8,6.6A9.42,9.42,0,0,1,146,45.61Zm-7-17v7.7a7.15,7.15,0,0,0,6.5,7.3,6.63,6.63,0,0,0,5.2-1.9,7,7,0,0,0,2.2-5.1v-8A53.89,53.89,0,0,0,139,28.61Z"/><path class="cls-1" d="M144.9,39.21a1.85,1.85,0,0,1-1.2-.5l-2.3-2.3a1,1,0,0,1,1.4-1.4l2.1,2.1,4.3-4.3a1,1,0,0,1,1.4,1.4l-4.5,4.5a1.85,1.85,0,0,1-1.2.5Z"/><path class="cls-2" d="M147.76,102.91h-37a5.7,5.7,0,0,1-5.7-5.7V71.51a.91.91,0,0,1,.4-.8l21.1-17.4a1.05,1.05,0,0,1,1.3,0L149,70.71a1.23,1.23,0,0,1,.4.8v2.7a1,1,0,0,1-2,0V72l-20.1-16.5L107.06,72v25.2a3.69,3.69,0,0,0,3.7,3.7h37a1,1,0,0,1,0,2Z"/><path class="cls-2" d="M133.76,102.91a.94.94,0,0,1-1-1V80.11h-10.2v21.7a1,1,0,0,1-2,0V79.11a.94.94,0,0,1,1-1h12.2a.94.94,0,0,1,1,1v22.7A1,1,0,0,1,133.76,102.91Z"/><path class="cls-2" d="M146.06,97.61h-.6a9.2,9.2,0,0,1-8.4-9.3v-8.5a1,1,0,0,1,.9-1,55,55,0,0,1,16.2,0,1.06,1.06,0,0,1,.9,1v8.8a9.07,9.07,0,0,1-2.8,6.6A9.42,9.42,0,0,1,146.06,97.61Zm-7-17v7.7a7.15,7.15,0,0,0,6.5,7.3,6.63,6.63,0,0,0,5.2-1.9,7,7,0,0,0,2.2-5.1v-8A53.89,53.89,0,0,0,139.06,80.61Z"/><path class="cls-2" d="M145,91.21a1.85,1.85,0,0,1-1.2-.5l-2.3-2.3a1,1,0,0,1,1.4-1.4l2.1,2.1,4.3-4.3a1,1,0,0,1,1.4,1.4l-4.5,4.5a1.85,1.85,0,0,1-1.2.5Z"/><path class="cls-4" d="M147.76,206.91h-37a5.7,5.7,0,0,1-5.7-5.7v-25.7a.91.91,0,0,1,.4-.8l21.1-17.4a1.05,1.05,0,0,1,1.3,0l21.1,17.4a1.23,1.23,0,0,1,.4.8v2.7a1,1,0,1,1-2,0V176l-20.1-16.5L107.06,176v25.2a3.69,3.69,0,0,0,3.7,3.7h37a1,1,0,0,1,0,2Z"/><path class="cls-4" d="M133.76,206.91a.94.94,0,0,1-1-1v-21.7h-10.2v21.7a1,1,0,1,1-2,0v-22.7a.94.94,0,0,1,1-1h12.2a.94.94,0,0,1,1,1v22.7A1,1,0,0,1,133.76,206.91Z"/><path class="cls-4" d="M146.06,201.61h-.6a9.2,9.2,0,0,1-8.4-9.3v-8.5a1,1,0,0,1,.9-1,55,55,0,0,1,16.2,0,1.06,1.06,0,0,1,.9,1v8.8a9.07,9.07,0,0,1-2.8,6.6A9.42,9.42,0,0,1,146.06,201.61Zm-7-17v7.7a7.15,7.15,0,0,0,6.5,7.3,6.63,6.63,0,0,0,5.2-1.9,7,7,0,0,0,2.2-5.1v-8A53.89,53.89,0,0,0,139.06,184.61Z"/><path class="cls-4" d="M145,195.21a1.85,1.85,0,0,1-1.2-.5l-2.3-2.3a1,1,0,0,1,1.4-1.4l2.1,2.1,4.3-4.3a1,1,0,0,1,1.4,1.4l-4.5,4.5a1.85,1.85,0,0,1-1.2.5Z"/><path class="cls-3" d="M147.76,154.91h-37a5.7,5.7,0,0,1-5.7-5.7v-25.7a.91.91,0,0,1,.4-.8l21.1-17.4a1.05,1.05,0,0,1,1.3,0l21.1,17.4a1.23,1.23,0,0,1,.4.8v2.7a1,1,0,0,1-2,0V124l-20.1-16.5-20.2,16.4v25.2a3.69,3.69,0,0,0,3.7,3.7h37a.94.94,0,0,1,1,1A1,1,0,0,1,147.76,154.91Z"/><path class="cls-3" d="M133.76,154.91a.94.94,0,0,1-1-1v-21.7h-10.2v21.7a1,1,0,1,1-2,0v-22.7a.94.94,0,0,1,1-1h12.2a.94.94,0,0,1,1,1v22.7A1,1,0,0,1,133.76,154.91Z"/><path class="cls-3" d="M146.06,149.61h-.6a9.2,9.2,0,0,1-8.4-9.3v-8.5a1,1,0,0,1,.9-1,55,55,0,0,1,16.2,0,1.06,1.06,0,0,1,.9,1v8.8a9.07,9.07,0,0,1-2.8,6.6A9.42,9.42,0,0,1,146.06,149.61Zm-7-17v7.7a7.15,7.15,0,0,0,6.5,7.3,6.63,6.63,0,0,0,5.2-1.9,7,7,0,0,0,2.2-5.1v-8A53.89,53.89,0,0,0,139.06,132.61Z"/><path class="cls-3" d="M145,143.21a1.85,1.85,0,0,1-1.2-.5l-2.3-2.3a1,1,0,0,1,1.4-1.4l2.1,2.1,4.3-4.3a1,1,0,0,1,1.4,1.4l-4.5,4.5a1.85,1.85,0,0,1-1.2.5Z"/><path class="cls-1" d="M199.65,50.05h-1.1a4.93,4.93,0,0,1-5-4.9v-1.8h-23.1v1.8a4.87,4.87,0,0,1-5,4.9h-1.1a4.93,4.93,0,0,1-5-4.9v-3.8a6.11,6.11,0,0,1-2.3-4.7V25.35a7,7,0,0,1,2.8-5.5v-.2L162.45,8a6.76,6.76,0,0,1,6.6-5.2h16.8a.94.94,0,0,1,1,1,1,1,0,0,1-1,1h-16.8a4.72,4.72,0,0,0-4.6,3.7l-2.6,11.8h0a1,1,0,0,1-.5,1.1,4.63,4.63,0,0,0-2.4,4.1v11.3a4.6,4.6,0,0,0,1.9,3.5.91.91,0,0,1,.4.8.6.6,0,0,1-.1.4v3.9a3,3,0,0,0,3,3h1.1a3,3,0,0,0,3-3v-2.8a1,1,0,0,1,1-1h25.1a.94.94,0,0,1,1,1v2.8a3,3,0,0,0,3,3h1.1a3,3,0,0,0,3-3v-4a.91.91,0,0,1,.4-.8,4.69,4.69,0,0,0,1.9-3.7V25.25a4.19,4.19,0,0,0-1-2.8,1,1,0,0,1,.2-1.4,1.08,1.08,0,0,1,1.4.2,6.71,6.71,0,0,1,1.4,4v11.4a6.56,6.56,0,0,1-2.3,5v3.5A4.64,4.64,0,0,1,199.65,50.05Z"/><path class="cls-1" d="M189,20.85h-28.1a.94.94,0,0,1-1-1,1,1,0,0,1,1-1H189a.94.94,0,0,1,1,1A1.08,1.08,0,0,1,189,20.85Z"/><path class="cls-1" d="M168.85,35.55a4.9,4.9,0,1,1,5-4.9A5,5,0,0,1,168.85,35.55Zm0-7.9a3,3,0,0,0-3,3,3,3,0,0,0,3,3,3,3,0,0,0,3-3A3.08,3.08,0,0,0,168.85,27.65Z"/><path class="cls-1" d="M195.05,35.55a4.9,4.9,0,1,1,5-4.9A4.93,4.93,0,0,1,195.05,35.55Zm0-7.9a3,3,0,0,0-3,3,3,3,0,0,0,3,3,3,3,0,0,0,3-3A3,3,0,0,0,195.05,27.65Z"/><path class="cls-1" d="M198,21.15h-.6A9.1,9.1,0,0,1,189,12V3.55a1.06,1.06,0,0,1,.9-1,55,55,0,0,1,16.2,0,1.06,1.06,0,0,1,.9,1v8.7a8.87,8.87,0,0,1-9,8.9Zm-7-16.7v7.6a7.12,7.12,0,0,0,6.5,7.2,6.63,6.63,0,0,0,5.2-1.9,6.82,6.82,0,0,0,2.2-5V4.45A53.89,53.89,0,0,0,191,4.45Z"/><path class="cls-1" d="M196.85,15h0a1.66,1.66,0,0,1-1.2-.5l-2.3-2.3a1,1,0,0,1,1.4-1.4l2.1,2.1,4.3-4.3a1,1,0,1,1,1.4,1.4l-4.5,4.5A1.85,1.85,0,0,1,196.85,15Z"/><path class="cls-2" d="M199.71,102.05h-1.1a4.93,4.93,0,0,1-5-4.9v-1.8h-23.1v1.8a4.87,4.87,0,0,1-5,4.9h-1.1a4.93,4.93,0,0,1-5-4.9v-3.8a6.11,6.11,0,0,1-2.3-4.7V77.35a7,7,0,0,1,2.8-5.5v-.2l2.6-11.7a6.76,6.76,0,0,1,6.6-5.2h16.8a.94.94,0,0,1,1,1,1,1,0,0,1-1,1h-16.8a4.72,4.72,0,0,0-4.6,3.7l-2.6,11.8h0a1,1,0,0,1-.5,1.1,4.63,4.63,0,0,0-2.4,4.1v11.3a4.6,4.6,0,0,0,1.9,3.5.91.91,0,0,1,.4.8.6.6,0,0,1-.1.4v3.9a3,3,0,0,0,3,3h1.1a3,3,0,0,0,3-3v-2.8a1,1,0,0,1,1-1h25.1a.94.94,0,0,1,1,1v2.8a3,3,0,0,0,3,3h1.1a3,3,0,0,0,3-3v-4a.91.91,0,0,1,.4-.8,4.69,4.69,0,0,0,1.9-3.7V77.25a4.19,4.19,0,0,0-1-2.8,1,1,0,0,1,.2-1.4,1.08,1.08,0,0,1,1.4.2,6.71,6.71,0,0,1,1.4,4v11.4a6.56,6.56,0,0,1-2.3,5v3.5A4.64,4.64,0,0,1,199.71,102.05Z"/><path class="cls-2" d="M189,72.85h-28.1a.94.94,0,0,1-1-1,1,1,0,0,1,1-1H189a.94.94,0,0,1,1,1A1.08,1.08,0,0,1,189,72.85Z"/><path class="cls-2" d="M168.91,87.55a4.9,4.9,0,1,1,5-4.9A5,5,0,0,1,168.91,87.55Zm0-7.9a3,3,0,0,0-3,3,3,3,0,0,0,3,3,3,3,0,0,0,3-3A3.08,3.08,0,0,0,168.91,79.65Z"/><path class="cls-2" d="M195.11,87.55a4.9,4.9,0,1,1,5-4.9A4.93,4.93,0,0,1,195.11,87.55Zm0-7.9a3,3,0,0,0-3,3,3,3,0,0,0,3,3,3,3,0,0,0,3-3A3,3,0,0,0,195.11,79.65Z"/><path class="cls-2" d="M198,73.15h-.6A9.1,9.1,0,0,1,189,64v-8.4a1.06,1.06,0,0,1,.9-1,55,55,0,0,1,16.2,0,1.06,1.06,0,0,1,.9,1v8.7a8.87,8.87,0,0,1-9,8.9Zm-7-16.7v7.6a7.12,7.12,0,0,0,6.5,7.2,6.63,6.63,0,0,0,5.2-1.9,6.82,6.82,0,0,0,2.2-5v-7.9A53.89,53.89,0,0,0,191,56.45Z"/><path class="cls-2" d="M196.91,67h0a1.66,1.66,0,0,1-1.2-.5l-2.3-2.3a1,1,0,0,1,1.4-1.4l2.1,2.1,4.3-4.3a1,1,0,1,1,1.4,1.4l-4.5,4.5A1.85,1.85,0,0,1,196.91,67Z"/><path class="cls-3" d="M199.71,154.05h-1.1a4.93,4.93,0,0,1-5-4.9v-1.8h-23.1v1.8a4.87,4.87,0,0,1-5,4.9h-1.1a4.93,4.93,0,0,1-5-4.9v-3.8a6.11,6.11,0,0,1-2.3-4.7v-11.3a7,7,0,0,1,2.8-5.5v-.2l2.6-11.7a6.76,6.76,0,0,1,6.6-5.2h16.8a.94.94,0,0,1,1,1,1,1,0,0,1-1,1h-16.8a4.72,4.72,0,0,0-4.6,3.7l-2.6,11.8h0a1,1,0,0,1-.5,1.1,4.63,4.63,0,0,0-2.4,4.1v11.3a4.6,4.6,0,0,0,1.9,3.5.91.91,0,0,1,.4.8.6.6,0,0,1-.1.4v3.9a3,3,0,0,0,3,3h1.1a3,3,0,0,0,3-3v-2.8a1,1,0,0,1,1-1h25.1a.94.94,0,0,1,1,1v2.8a3,3,0,0,0,3,3h1.1a3,3,0,0,0,3-3v-4a.91.91,0,0,1,.4-.8,4.69,4.69,0,0,0,1.9-3.7v-11.4a4.19,4.19,0,0,0-1-2.8,1,1,0,0,1,.2-1.4,1.08,1.08,0,0,1,1.4.2,6.71,6.71,0,0,1,1.4,4v11.4a6.56,6.56,0,0,1-2.3,5v3.5A4.6,4.6,0,0,1,199.71,154.05Z"/><path class="cls-3" d="M189,124.75h-28.1a.94.94,0,0,1-1-1,1,1,0,0,1,1-1H189a.94.94,0,0,1,1,1A1,1,0,0,1,189,124.75Z"/><path class="cls-3" d="M168.91,139.55a4.9,4.9,0,1,1,5-4.9A5,5,0,0,1,168.91,139.55Zm0-7.9a3,3,0,1,0,3,3A3,3,0,0,0,168.91,131.65Z"/><path class="cls-3" d="M195.11,139.55a4.9,4.9,0,1,1,5-4.9A4.93,4.93,0,0,1,195.11,139.55Zm0-7.9a3,3,0,1,0,3,3A2.95,2.95,0,0,0,195.11,131.65Z"/><path class="cls-3" d="M198,125.15h-.6A9.1,9.1,0,0,1,189,116v-8.4a1.06,1.06,0,0,1,.9-1,55,55,0,0,1,16.2,0,1.06,1.06,0,0,1,.9,1v8.7a8.87,8.87,0,0,1-9,8.9Zm-7-16.7V116a7.12,7.12,0,0,0,6.5,7.2,6.63,6.63,0,0,0,5.2-1.9,6.82,6.82,0,0,0,2.2-5v-7.9A58.8,58.8,0,0,0,191,108.45Z"/><path class="cls-3" d="M196.91,119h0a1.66,1.66,0,0,1-1.2-.5l-2.3-2.3a1,1,0,0,1,1.4-1.4l2.1,2.1,4.3-4.3a1,1,0,1,1,1.4,1.4l-4.5,4.5A1.85,1.85,0,0,1,196.91,119Z"/><path class="cls-4" d="M199.71,206h-1.1a4.93,4.93,0,0,1-5-4.9v-1.8h-23.1v1.8a4.87,4.87,0,0,1-5,4.9h-1.1a4.93,4.93,0,0,1-5-4.9v-3.8a6.11,6.11,0,0,1-2.3-4.7V181.3a7,7,0,0,1,2.8-5.5v-.2l2.6-11.7a6.76,6.76,0,0,1,6.6-5.2h16.8a.94.94,0,0,1,1,1,1,1,0,0,1-1,1h-16.8a4.72,4.72,0,0,0-4.6,3.7l-2.6,11.8h0a1,1,0,0,1-.5,1.1,4.63,4.63,0,0,0-2.4,4.1v11.3a4.6,4.6,0,0,0,1.9,3.5.91.91,0,0,1,.4.8.6.6,0,0,1-.1.4v3.9a3,3,0,0,0,3,3h1.1a3,3,0,0,0,3-3v-2.8a1,1,0,0,1,1-1h25.1a.94.94,0,0,1,1,1v2.8a3,3,0,0,0,3,3h1.1a3,3,0,0,0,3-3v-4a.91.91,0,0,1,.4-.8,4.69,4.69,0,0,0,1.9-3.7V181.4a4.19,4.19,0,0,0-1-2.8,1,1,0,0,1,.2-1.4,1.08,1.08,0,0,1,1.4.2,6.71,6.71,0,0,1,1.4,4v11.4a6.56,6.56,0,0,1-2.3,5v3.5A4.6,4.6,0,0,1,199.71,206Z"/><path class="cls-4" d="M189,176.8h-28.1a.94.94,0,0,1-1-1,1,1,0,0,1,1-1H189a.94.94,0,0,1,1,1A1.08,1.08,0,0,1,189,176.8Z"/><path class="cls-4" d="M168.91,191.5a4.9,4.9,0,1,1,5-4.9A5,5,0,0,1,168.91,191.5Zm0-7.8a3,3,0,0,0-3,3,3,3,0,0,0,3,3,3,3,0,0,0,3-3A3,3,0,0,0,168.91,183.7Z"/><path class="cls-4" d="M195.11,191.5a4.9,4.9,0,1,1,5-4.9A4.93,4.93,0,0,1,195.11,191.5Zm0-7.8a3,3,0,0,0-3,3,3,3,0,0,0,3,3,3,3,0,0,0,0-6Z"/><path class="cls-4" d="M198,177.2h-.6A9.1,9.1,0,0,1,189,168v-8.4a1.06,1.06,0,0,1,.9-1,55,55,0,0,1,16.2,0,1.06,1.06,0,0,1,.9,1v8.7a9,9,0,0,1-2.8,6.5A9.42,9.42,0,0,1,198,177.2Zm-7-16.8v7.5a7.12,7.12,0,0,0,6.5,7.2,6.63,6.63,0,0,0,5.2-1.9,6.82,6.82,0,0,0,2.2-5v-7.9A58.8,58.8,0,0,0,191,160.4Z"/><path class="cls-4" d="M196.91,170.9h0a1.66,1.66,0,0,1-1.2-.5l-2.3-2.3a1,1,0,0,1,1.4-1.4l2.1,2.1,4.3-4.3a1,1,0,1,1,1.4,1.4l-4.5,4.5A1.85,1.85,0,0,1,196.91,170.9Z"/><path class="cls-1" d="M409.53,44h-39.3a5.27,5.27,0,0,1-5.4-5.2V13.2a5.27,5.27,0,0,1,5.4-5.2h39.3a5.27,5.27,0,0,1,5.4,5.2V38.7A5.29,5.29,0,0,1,409.53,44Zm-39.2-34a3.35,3.35,0,0,0-3.4,3.3V38.8a3.35,3.35,0,0,0,3.4,3.3h39.3a3.35,3.35,0,0,0,3.4-3.3V13.2a3.35,3.35,0,0,0-3.4-3.3h-39.3Z"/><path class="cls-1" d="M413.93,19.9h-48a.94.94,0,0,1-1-1,1,1,0,0,1,1-1h48a.94.94,0,0,1,1,1A1,1,0,0,1,413.93,19.9Z"/><path class="cls-1" d="M408,38h-10.3a.92.92,0,0,1-.9-1V31a.92.92,0,0,1,.9-1H408a.92.92,0,0,1,.9,1v6A.92.92,0,0,1,408,38Zm-9.4-2h8.6V32h-8.6Z"/><path class="cls-2" d="M409.59,96h-39.3a5.27,5.27,0,0,1-5.4-5.2V65.2a5.27,5.27,0,0,1,5.4-5.2h39.3a5.27,5.27,0,0,1,5.4,5.2V90.7A5.29,5.29,0,0,1,409.59,96Zm-39.2-34.1a3.35,3.35,0,0,0-3.4,3.3V90.7a3.35,3.35,0,0,0,3.4,3.3h39.3a3.35,3.35,0,0,0,3.4-3.3V65.2a3.35,3.35,0,0,0-3.4-3.3Z"/><path class="cls-2" d="M414,71.9H366a1,1,0,0,1,0-2h48a1,1,0,0,1,0,2Z"/><path class="cls-2" d="M408.09,90.1h-10.3a.92.92,0,0,1-.9-1v-6a.92.92,0,0,1,.9-1h10.3a.92.92,0,0,1,.9,1v6A1,1,0,0,1,408.09,90.1Zm-9.4-2h8.6v-4h-8.6Z"/><path class="cls-4" d="M409.59,200h-39.3a5.27,5.27,0,0,1-5.4-5.2v-25.5a5.27,5.27,0,0,1,5.4-5.2h39.3a5.27,5.27,0,0,1,5.4,5.2v25.5A5.27,5.27,0,0,1,409.59,200Zm-39.2-34a3.35,3.35,0,0,0-3.4,3.3v25.5a3.35,3.35,0,0,0,3.4,3.3h39.3a3.35,3.35,0,0,0,3.4-3.3v-25.5a3.35,3.35,0,0,0-3.4-3.3Z"/><path class="cls-4" d="M414,175.85H366a.94.94,0,0,1-1-1,1,1,0,0,1,1-1h48a.94.94,0,0,1,1,1A1,1,0,0,1,414,175.85Z"/><path class="cls-4" d="M408.09,194.05h-10.3a.92.92,0,0,1-.9-1v-6a.92.92,0,0,1,.9-1h10.3a.92.92,0,0,1,.9,1v6A1,1,0,0,1,408.09,194.05Zm-9.4-2h8.6v-4h-8.6Z"/><path class="cls-3" d="M409.59,148h-39.3a5.27,5.27,0,0,1-5.4-5.2v-25.5a5.27,5.27,0,0,1,5.4-5.2h39.3a5.27,5.27,0,0,1,5.4,5.2v25.5A5.27,5.27,0,0,1,409.59,148Zm-39.2-34a3.35,3.35,0,0,0-3.4,3.3v25.5a3.35,3.35,0,0,0,3.4,3.3h39.3a3.35,3.35,0,0,0,3.4-3.3v-25.5a3.35,3.35,0,0,0-3.4-3.3Z"/><path class="cls-3" d="M414,123.85H366a1,1,0,0,1,0-2h48a1,1,0,0,1,0,2Z"/><path class="cls-3" d="M408.09,142h-10.3a.92.92,0,0,1-.9-1v-6a.92.92,0,0,1,.9-1h10.3a.92.92,0,0,1,.9,1v6A1,1,0,0,1,408.09,142Zm-9.4-2h8.6v-4h-8.6Z"/><path class="cls-1" d="M493.83,50a52.75,52.75,0,0,1-16.4-2.8,39.83,39.83,0,0,1-6.6-2.9,1,1,0,1,1,1-1.8,36.92,36.92,0,0,0,5.3,2.4l4.5-14.7h-1.2a5.66,5.66,0,0,1-5.8-5.7l-1.1-21.4a.94.94,0,0,1,1-1,1,1,0,0,1,1,1l1.1,21.5a3.8,3.8,0,0,0,3.8,3.8h28a1,1,0,0,1,0,2H506l4.6,14.7a36.92,36.92,0,0,0,5.3-2.4,1,1,0,1,1,1,1.8,39.83,39.83,0,0,1-6.6,2.9l-.9.3h-.1A61.79,61.79,0,0,1,493.83,50ZM479,45.55a52.67,52.67,0,0,0,14.8,2.4,50,50,0,0,0,14.9-2.4l-4.8-15.4h-20.2Z"/><line class="cls-6" x1="505.58" y1="34" x2="482.18" y2="34"/><path class="cls-2" d="M493.89,102a52.75,52.75,0,0,1-16.4-2.8,39.83,39.83,0,0,1-6.6-2.9,1,1,0,1,1,1-1.8,36.92,36.92,0,0,0,5.3,2.4l4.5-14.7h-1.2a5.66,5.66,0,0,1-5.8-5.7L473.59,55a.94.94,0,0,1,1-1,1,1,0,0,1,1,1l1.1,21.5a3.8,3.8,0,0,0,3.8,3.8h28a1,1,0,0,1,0,2h-2.4l4.6,14.7a36.92,36.92,0,0,0,5.3-2.4,1,1,0,0,1,1,1.8,39.83,39.83,0,0,1-6.6,2.9l-.9.3h-.1A57.64,57.64,0,0,1,493.89,102Zm-14.8-4.4a52.67,52.67,0,0,0,14.8,2.4,50,50,0,0,0,14.9-2.4L504,82.2h-20.2Z"/><rect class="cls-2" x="481.99" y="85.2" width="24.4" height="2"/><path class="cls-3" d="M493.89,154a52.75,52.75,0,0,1-16.4-2.8,39.83,39.83,0,0,1-6.6-2.9,1,1,0,1,1,1-1.8,36.92,36.92,0,0,0,5.3,2.4l4.5-14.7h-1.2a5.66,5.66,0,0,1-5.8-5.7l-1.1-21.5a.94.94,0,0,1,1-1,1,1,0,0,1,1,1l1.1,21.5a3.8,3.8,0,0,0,3.8,3.8h28a1,1,0,0,1,0,2h-2.4l4.6,14.7a36.92,36.92,0,0,0,5.3-2.4,1,1,0,0,1,1,1.8,39.83,39.83,0,0,1-6.6,2.9l-.9.3h-.1A57.64,57.64,0,0,1,493.89,154Zm-14.8-4.3a52.67,52.67,0,0,0,14.8,2.4,50,50,0,0,0,14.9-2.4L504,134.3h-20.2Z"/><rect class="cls-3" x="481.99" y="137.3" width="24.4" height="2"/><path class="cls-4" d="M493.89,206a52.75,52.75,0,0,1-16.4-2.8,39.83,39.83,0,0,1-6.6-2.9,1,1,0,1,1,1-1.8,36.92,36.92,0,0,0,5.3,2.4l4.5-14.7h-1.2a5.66,5.66,0,0,1-5.8-5.7l-1.1-21.5a.94.94,0,0,1,1-1,1,1,0,0,1,1,1l1.1,21.5a3.8,3.8,0,0,0,3.8,3.8h28a1,1,0,0,1,0,2h-2.4l4.6,14.7a36.92,36.92,0,0,0,5.3-2.4,1,1,0,0,1,1,1.8,39.83,39.83,0,0,1-6.6,2.9l-.9.3h-.1A57.64,57.64,0,0,1,493.89,206Zm-14.8-4.3a52.67,52.67,0,0,0,14.8,2.4,50,50,0,0,0,14.9-2.4L504,186.3h-20.2Z"/><rect class="cls-4" x="481.99" y="189.2" width="24.4" height="2"/><path class="cls-1" d="M533.43,25.66l-.68,0a10.8,10.8,0,0,1-9.86-11V4.45a1.09,1.09,0,0,1,.89-1,64.3,64.3,0,0,1,19.29,0,1.09,1.09,0,0,1,.89,1V15a10.69,10.69,0,0,1-3.36,7.77A10.39,10.39,0,0,1,533.43,25.66ZM524.89,5.27v9.39a8.81,8.81,0,0,0,8,9,8.44,8.44,0,0,0,6.35-2.29A8.67,8.67,0,0,0,542,15V5.27A62.55,62.55,0,0,0,524.89,5.27Z"/><path class="cls-1" d="M532.1,18h0a1.88,1.88,0,0,1-1.32-.55L528,14.68a1,1,0,0,1,1.43-1.4l2.66,2.7,5.28-5.36a1,1,0,0,1,1.41,0,1,1,0,0,1,0,1.42l-5.39,5.43A1.92,1.92,0,0,1,532.1,18Z"/><path class="cls-1" d="M566.17,24.8h-16a3,3,0,0,1-3-3V5.8a3,3,0,0,1,3-3h16a3,3,0,0,1,3,3v16A3,3,0,0,1,566.17,24.8Zm-16-20a1,1,0,0,0-1,1v16a1,1,0,0,0,1,1h16a1,1,0,0,0,1-1V5.8a1,1,0,0,0-1-1Z"/><path class="cls-1" d="M533.21,49.29a11,11,0,1,1,11-11A11,11,0,0,1,533.21,49.29Zm0-20a9,9,0,1,0,9,9A9,9,0,0,0,533.21,29.29Z"/><path class="cls-1" d="M567.67,49.32h-19a2,2,0,0,1-1.79-2.9l9.5-19a2,2,0,0,1,1.79-1.1h0a2,2,0,0,1,1.79,1.1l9.5,19a2,2,0,0,1-1.79,2.9Zm-9.5-21h0l-9.5,19h19Zm-.9-.45h0Z"/><path class="cls-2" d="M533.49,77.66l-.68,0a10.8,10.8,0,0,1-9.86-11V56.45a1.09,1.09,0,0,1,.89-1,64.37,64.37,0,0,1,19.3,0,1.09,1.09,0,0,1,.88,1V67a10.69,10.69,0,0,1-3.36,7.77A10.39,10.39,0,0,1,533.49,77.66ZM525,57.27v9.39a8.81,8.81,0,0,0,8,9,8.44,8.44,0,0,0,6.35-2.29A8.67,8.67,0,0,0,542,67V57.27A62.55,62.55,0,0,0,525,57.27Z"/><path class="cls-2" d="M532.16,70h0a1.9,1.9,0,0,1-1.32-.55l-2.73-2.78a1,1,0,0,1,1.43-1.4l2.66,2.7,5.28-5.36a1,1,0,0,1,1.41,0,1,1,0,0,1,0,1.42l-5.39,5.43A1.92,1.92,0,0,1,532.16,70Z"/><path class="cls-2" d="M566.23,76.8h-16a3,3,0,0,1-3-3v-16a3,3,0,0,1,3-3h16a3,3,0,0,1,3,3v16A3,3,0,0,1,566.23,76.8Zm-16-20a1,1,0,0,0-1,1v16a1,1,0,0,0,1,1h16a1,1,0,0,0,1-1v-16a1,1,0,0,0-1-1Z"/><path class="cls-2" d="M533.27,101.29a11,11,0,1,1,11-11A11,11,0,0,1,533.27,101.29Zm0-20a9,9,0,1,0,9,9A9,9,0,0,0,533.27,81.29Z"/><path class="cls-2" d="M567.73,101.32h-19a2,2,0,0,1-1.79-2.9l9.5-19a2,2,0,0,1,1.79-1.1h0a2,2,0,0,1,1.79,1.1l9.5,19a2,2,0,0,1-1.79,2.9Zm-9.5-21h0l-9.5,19h19Zm-.9-.45h0Z"/><path class="cls-3" d="M533.49,129.66l-.68,0a10.8,10.8,0,0,1-9.86-11V108.45a1.09,1.09,0,0,1,.89-1,64.37,64.37,0,0,1,19.3,0,1.09,1.09,0,0,1,.88,1V119a10.69,10.69,0,0,1-3.36,7.77A10.39,10.39,0,0,1,533.49,129.66ZM525,109.27v9.39a8.81,8.81,0,0,0,8,9,8.44,8.44,0,0,0,6.35-2.29A8.67,8.67,0,0,0,542,119v-9.77A62.55,62.55,0,0,0,525,109.27Z"/><path class="cls-3" d="M532.16,122h0a1.9,1.9,0,0,1-1.32-.55l-2.73-2.78a1,1,0,0,1,1.43-1.4l2.66,2.7,5.28-5.36a1,1,0,0,1,1.41,0,1,1,0,0,1,0,1.42l-5.39,5.43A1.92,1.92,0,0,1,532.16,122Z"/><path class="cls-3" d="M566.23,128.8h-16a3,3,0,0,1-3-3v-16a3,3,0,0,1,3-3h16a3,3,0,0,1,3,3v16A3,3,0,0,1,566.23,128.8Zm-16-20a1,1,0,0,0-1,1v16a1,1,0,0,0,1,1h16a1,1,0,0,0,1-1v-16a1,1,0,0,0-1-1Z"/><path class="cls-3" d="M533.27,153.29a11,11,0,1,1,11-11A11,11,0,0,1,533.27,153.29Zm0-20a9,9,0,1,0,9,9A9,9,0,0,0,533.27,133.29Z"/><path class="cls-3" d="M567.73,153.32h-19a2,2,0,0,1-1.79-2.9l9.5-19a2,2,0,0,1,1.79-1.1h0a2,2,0,0,1,1.79,1.1l9.5,19a2,2,0,0,1-1.79,2.9Zm-9.5-21h0l-9.5,19h19Zm-.9-.45h0Z"/><path class="cls-4" d="M533.49,181.66l-.68,0a10.8,10.8,0,0,1-9.86-11V160.45a1.09,1.09,0,0,1,.89-1,64.37,64.37,0,0,1,19.3,0,1.09,1.09,0,0,1,.88,1V171a10.69,10.69,0,0,1-3.36,7.77A10.39,10.39,0,0,1,533.49,181.66ZM525,161.27v9.39a8.81,8.81,0,0,0,8,9,8.44,8.44,0,0,0,6.35-2.29A8.67,8.67,0,0,0,542,171v-9.77A62.55,62.55,0,0,0,525,161.27Z"/><path class="cls-4" d="M532.16,174h0a1.9,1.9,0,0,1-1.32-.55l-2.73-2.78a1,1,0,0,1,1.43-1.4l2.66,2.7,5.28-5.36a1,1,0,0,1,1.41,0,1,1,0,0,1,0,1.42l-5.39,5.43A1.92,1.92,0,0,1,532.16,174Z"/><path class="cls-4" d="M566.23,180.8h-16a3,3,0,0,1-3-3v-16a3,3,0,0,1,3-3h16a3,3,0,0,1,3,3v16A3,3,0,0,1,566.23,180.8Zm-16-20a1,1,0,0,0-1,1v16a1,1,0,0,0,1,1h16a1,1,0,0,0,1-1v-16a1,1,0,0,0-1-1Z"/><path class="cls-4" d="M533.27,205.29a11,11,0,1,1,11-11A11,11,0,0,1,533.27,205.29Zm0-20a9,9,0,1,0,9,9A9,9,0,0,0,533.27,185.29Z"/><path class="cls-4" d="M567.73,205.32h-19a2,2,0,0,1-1.79-2.9l9.5-19a2,2,0,0,1,1.79-1.1h0a2,2,0,0,1,1.79,1.1l9.5,19a2,2,0,0,1-1.79,2.9Zm-9.5-21h0l-9.5,19h19Zm-.9-.45h0Z"/><path class="cls-1" d="M618.48,24.74h-16a3,3,0,0,1-3-3v-16a3,3,0,0,1,3-3h16a3,3,0,0,1,3,3v16A3,3,0,0,1,618.48,24.74Zm-16-20a1,1,0,0,0-1,1v16a1,1,0,0,0,1,1h16a1,1,0,0,0,1-1v-16a1,1,0,0,0-1-1Z"/><path class="cls-1" d="M585.52,49.23a11,11,0,1,1,11-11A11,11,0,0,1,585.52,49.23Zm0-20a9,9,0,1,0,9,9A9,9,0,0,0,585.52,29.23Z"/><path class="cls-1" d="M620,49.26H601a2,2,0,0,1-1.79-2.9l9.5-19a2,2,0,0,1,1.79-1.1h0a2,2,0,0,1,1.79,1.1l9.49,19a2,2,0,0,1-.08,2A2,2,0,0,1,620,49.26ZM609.58,27.78l.9.45-9.5,19h19l-9.49-19Z"/><path class="cls-1" d="M591.67,12.37l-1.26,0a1,1,0,0,1-1-1,1,1,0,0,1,1-1c.85,0,2,0,3.08,0l2.13,0c-1.81-1-3.59-2-5.33-2.95-1.46-.83-3-1.69-4.47-2.49-1.49.8-2.95,1.63-4.38,2.44-1.75,1-3.56,2-5.47,3h5.24a1,1,0,0,1,0,2H574.9a1,1,0,0,1-1-1V9.82a1,1,0,0,1,.54-.89c2.14-1.11,4.15-2.25,6.1-3.35,1.58-.9,3.22-1.83,4.89-2.72a1,1,0,0,1,.94,0c1.67.89,3.36,1.85,5,2.77,1.94,1.1,3.94,2.24,5.94,3.27a1,1,0,0,1,.54.89v1.56a1,1,0,0,1-1,1c-.9,0-2.07,0-3.2,0Z"/><path class="cls-1" d="M576.87,24.32a1,1,0,0,1-1-1V11.5a1,1,0,0,1,2,0V23.32A1,1,0,0,1,576.87,24.32Z"/><path class="cls-1" d="M579.9,24.32a1,1,0,0,1-1-1V11.5a1,1,0,0,1,2,0V23.32A1,1,0,0,1,579.9,24.32Z"/><path class="cls-1" d="M591.84,24.55a1,1,0,0,1-1-1v-12a1,1,0,0,1,2,0V23.55A1,1,0,0,1,591.84,24.55Z"/><path class="cls-1" d="M594.87,24.55a1,1,0,0,1-1-1v-12a1,1,0,0,1,2,0V23.55A1,1,0,0,1,594.87,24.55Z"/><path class="cls-1" d="M596.84,24.55H574.9a1,1,0,0,1,0-2h21.94a1,1,0,0,1,0,2Z"/><path class="cls-2" d="M618.54,76.74h-16a3,3,0,0,1-3-3v-16a3,3,0,0,1,3-3h16a3,3,0,0,1,3,3v16A3,3,0,0,1,618.54,76.74Zm-16-20a1,1,0,0,0-1,1v16a1,1,0,0,0,1,1h16a1,1,0,0,0,1-1v-16a1,1,0,0,0-1-1Z"/><path class="cls-2" d="M585.58,101.23a11,11,0,1,1,11-11A11,11,0,0,1,585.58,101.23Zm0-20a9,9,0,1,0,9,9A9,9,0,0,0,585.58,81.23Z"/><path class="cls-2" d="M620,101.26H601a2,2,0,0,1-1.79-2.9l9.5-19a2,2,0,0,1,1.79-1.1h0a2,2,0,0,1,1.79,1.1l9.49,19a2,2,0,0,1-.08,2A2,2,0,0,1,620,101.26ZM609.64,79.78l.9.45-9.5,19h19l-9.49-19Z"/><path class="cls-2" d="M591.73,64.37l-1.26,0a1,1,0,0,1-1-1,1,1,0,0,1,1-1c.85,0,2,0,3.08,0l2.13,0c-1.8-1-3.59-2-5.32-3-1.47-.83-3-1.69-4.48-2.49-1.49.8-3,1.63-4.38,2.44-1.75,1-3.56,2-5.47,3h5.24a1,1,0,1,1,0,2H575a1,1,0,0,1-1-1V61.82a1,1,0,0,1,.54-.89c2.14-1.11,4.15-2.25,6.1-3.35,1.58-.9,3.22-1.83,4.89-2.72a1,1,0,0,1,.94,0c1.67.89,3.36,1.85,5,2.77,1.94,1.1,3.94,2.24,5.94,3.27a1,1,0,0,1,.54.89v1.56a1,1,0,0,1-.31.72,1,1,0,0,1-.73.28c-.9,0-2.07,0-3.2,0Z"/><path class="cls-2" d="M576.93,76.32a1,1,0,0,1-1-1V63.5a1,1,0,0,1,2,0V75.32A1,1,0,0,1,576.93,76.32Z"/><path class="cls-2" d="M580,76.32a1,1,0,0,1-1-1V63.5a1,1,0,0,1,2,0V75.32A1,1,0,0,1,580,76.32Z"/><path class="cls-2" d="M591.9,76.55a1,1,0,0,1-1-1v-12a1,1,0,0,1,2,0v12A1,1,0,0,1,591.9,76.55Z"/><path class="cls-2" d="M594.93,76.55a1,1,0,0,1-1-1v-12a1,1,0,0,1,2,0v12A1,1,0,0,1,594.93,76.55Z"/><path class="cls-2" d="M596.9,76.55H575a1,1,0,0,1,0-2H596.9a1,1,0,0,1,0,2Z"/><path class="cls-3" d="M618.54,128.74h-16a3,3,0,0,1-3-3v-16a3,3,0,0,1,3-3h16a3,3,0,0,1,3,3v16A3,3,0,0,1,618.54,128.74Zm-16-20a1,1,0,0,0-1,1v16a1,1,0,0,0,1,1h16a1,1,0,0,0,1-1v-16a1,1,0,0,0-1-1Z"/><path class="cls-3" d="M585.58,153.23a11,11,0,1,1,11-11A11,11,0,0,1,585.58,153.23Zm0-20a9,9,0,1,0,9,9A9,9,0,0,0,585.58,133.23Z"/><path class="cls-3" d="M620,153.26H601a2,2,0,0,1-1.79-2.9l9.5-19a2,2,0,0,1,1.79-1.1h0a2,2,0,0,1,1.79,1.1l9.49,19a2,2,0,0,1-.08,1.95A2,2,0,0,1,620,153.26Zm-10.39-21.48.9.45-9.5,19h19l-9.49-19Z"/><path class="cls-3" d="M591.73,116.37l-1.26,0a1,1,0,0,1-1-1,1,1,0,0,1,1-1c.85,0,2,0,3.08,0l2.13,0c-1.8-.95-3.59-2-5.32-2.95-1.47-.83-3-1.69-4.48-2.49-1.49.8-3,1.63-4.38,2.44-1.75,1-3.56,2-5.47,3h5.24a1,1,0,0,1,0,2H575a1,1,0,0,1-1-1v-1.53a1,1,0,0,1,.54-.89c2.14-1.11,4.15-2.25,6.1-3.35,1.58-.9,3.22-1.83,4.89-2.72a1,1,0,0,1,.94,0c1.67.89,3.36,1.85,5,2.77,1.94,1.1,3.94,2.24,5.94,3.27a1,1,0,0,1,.54.89v1.56a1,1,0,0,1-.31.72,1,1,0,0,1-.73.28c-.9,0-2.07,0-3.2,0Z"/><path class="cls-3" d="M576.93,128.32a1,1,0,0,1-1-1V115.5a1,1,0,0,1,2,0v11.82A1,1,0,0,1,576.93,128.32Z"/><path class="cls-3" d="M580,128.32a1,1,0,0,1-1-1V115.5a1,1,0,0,1,2,0v11.82A1,1,0,0,1,580,128.32Z"/><path class="cls-3" d="M591.9,128.55a1,1,0,0,1-1-1v-12a1,1,0,0,1,2,0v12A1,1,0,0,1,591.9,128.55Z"/><path class="cls-3" d="M594.93,128.55a1,1,0,0,1-1-1v-12a1,1,0,0,1,2,0v12A1,1,0,0,1,594.93,128.55Z"/><path class="cls-3" d="M596.9,128.55H575a1,1,0,1,1,0-2H596.9a1,1,0,0,1,0,2Z"/><path class="cls-4" d="M618.54,180.74h-16a3,3,0,0,1-3-3v-16a3,3,0,0,1,3-3h16a3,3,0,0,1,3,3v16A3,3,0,0,1,618.54,180.74Zm-16-20a1,1,0,0,0-1,1v16a1,1,0,0,0,1,1h16a1,1,0,0,0,1-1v-16a1,1,0,0,0-1-1Z"/><path class="cls-4" d="M585.58,205.23a11,11,0,1,1,11-11A11,11,0,0,1,585.58,205.23Zm0-20a9,9,0,1,0,9,9A9,9,0,0,0,585.58,185.23Z"/><path class="cls-4" d="M620,205.26H601a2,2,0,0,1-1.79-2.9l9.5-19a2,2,0,0,1,1.79-1.1h0a2,2,0,0,1,1.79,1.1l9.49,19a2,2,0,0,1-.08,1.95A2,2,0,0,1,620,205.26Zm-10.39-21.48.9.45-9.5,19h19l-9.49-19Z"/><path class="cls-4" d="M591.73,168.37l-1.26,0a1,1,0,0,1-1-1,1,1,0,0,1,1-1c.85,0,2,0,3.08,0l2.13,0c-1.8-.95-3.59-2-5.32-2.95-1.47-.83-3-1.69-4.48-2.49-1.49.8-3,1.63-4.38,2.44-1.75,1-3.56,2-5.47,3h5.24a1,1,0,0,1,0,2H575a1,1,0,0,1-1-1v-1.53a1,1,0,0,1,.54-.89c2.14-1.11,4.15-2.25,6.1-3.35,1.58-.9,3.22-1.83,4.89-2.72a1,1,0,0,1,.94,0c1.67.89,3.36,1.85,5,2.77,1.94,1.1,3.94,2.24,5.94,3.27a1,1,0,0,1,.54.89v1.56a1,1,0,0,1-.31.72,1,1,0,0,1-.73.28c-.9,0-2.07,0-3.2,0Z"/><path class="cls-4" d="M576.93,180.32a1,1,0,0,1-1-1V167.5a1,1,0,0,1,2,0v11.82A1,1,0,0,1,576.93,180.32Z"/><path class="cls-4" d="M580,180.32a1,1,0,0,1-1-1V167.5a1,1,0,0,1,2,0v11.82A1,1,0,0,1,580,180.32Z"/><path class="cls-4" d="M591.9,180.55a1,1,0,0,1-1-1V167.5a1,1,0,0,1,2,0v12.05A1,1,0,0,1,591.9,180.55Z"/><path class="cls-4" d="M594.93,180.55a1,1,0,0,1-1-1V167.5a1,1,0,0,1,2,0v12.05A1,1,0,0,1,594.93,180.55Z"/><path class="cls-4" d="M596.9,180.55H575a1,1,0,0,1,0-2H596.9a1,1,0,0,1,0,2Z"/></svg>