<svg id="Radio_Buttons_Check_Boxes" data-name="Radio Buttons &amp; Check Boxes" xmlns="http://www.w3.org/2000/svg" width="200" height="215.5" viewBox="0 0 200 215.5"><defs><style>.cls-1{fill:#707e8f;}.cls-2{fill:#348ffc;}.cls-3{fill:#fff;}.cls-4{fill:#d5d9de;}.cls-5{fill:#93989d;}</style></defs><title>spritesheet_radio button &amp;amp; check box</title><path class="cls-1" d="M35,2a5,5,0,1,1-5,5,5,5,0,0,1,5-5m0-1a6,6,0,1,0,6,6,6,6,0,0,0-6-6Z"/><path class="cls-2" d="M35,16a5,5,0,1,1-5,5,5,5,0,0,1,5-5m0-1a6,6,0,1,0,6,6,6,6,0,0,0-6-6Z"/><path class="cls-3" d="M35,30a5,5,0,1,1-5,5,5,5,0,0,1,5-5m0-1a6,6,0,1,0,6,6,6,6,0,0,0-6-6Z"/><path class="cls-4" d="M35,44a5,5,0,1,1-5,5,5,5,0,0,1,5-5m0-1a6,6,0,1,0,6,6,6,6,0,0,0-6-6Z"/><path class="cls-1" d="M49,1a6,6,0,1,0,6,6A6,6,0,0,0,49,1Zm0,11a5,5,0,1,1,5-5A5,5,0,0,1,49,12Z"/><circle class="cls-1" cx="49" cy="7" r="3.5"/><path class="cls-2" d="M49,15a6,6,0,1,0,6,6A6,6,0,0,0,49,15Zm0,11a5,5,0,1,1,5-5A5,5,0,0,1,49,26Z"/><circle class="cls-2" cx="49" cy="21" r="3.5"/><path class="cls-3" d="M49,29a6,6,0,1,0,6,6A6,6,0,0,0,49,29Zm0,11a5,5,0,1,1,5-5A5,5,0,0,1,49,40Z"/><circle class="cls-3" cx="49" cy="35" r="3.5"/><path class="cls-4" d="M49,43a6,6,0,1,0,6,6A6,6,0,0,0,49,43Zm0,11a5,5,0,1,1,5-5A5,5,0,0,1,49,54Z"/><circle class="cls-4" cx="49" cy="49" r="3.5"/><path class="cls-2" d="M26.5,21a.5.5,0,0,0-.5.5V26H16V16h5.5a.5.5,0,0,0,0-1h-6a.5.5,0,0,0-.5.5v11a.5.5,0,0,0,.5.5h11a.5.5,0,0,0,.5-.5v-5A.5.5,0,0,0,26.5,21Z"/><path class="cls-2" d="M17.85,20.15a.49.49,0,0,0-.7.7l3,3a.47.47,0,0,0,.35.15h0a.49.49,0,0,0,.36-.2l6-8a.5.5,0,0,0-.1-.7.51.51,0,0,0-.7.1l-5.65,7.54Z"/><path class="cls-2" d="M12.5,27H1.5a.5.5,0,0,1-.5-.5v-11a.5.5,0,0,1,.5-.5h11a.5.5,0,0,1,.5.5v11A.5.5,0,0,1,12.5,27ZM2,26H12V16H2Z"/><path class="cls-3" d="M26.5,35a.5.5,0,0,0-.5.5V40H16V30h5.5a.5.5,0,0,0,0-1h-6a.5.5,0,0,0-.5.5v11a.5.5,0,0,0,.5.5h11a.5.5,0,0,0,.5-.5v-5A.5.5,0,0,0,26.5,35Z"/><path class="cls-3" d="M17.85,34.15a.49.49,0,0,0-.7.7l3,3a.47.47,0,0,0,.35.15h0a.49.49,0,0,0,.36-.2l6-8a.5.5,0,0,0-.1-.7.51.51,0,0,0-.7.1l-5.65,7.54Z"/><path class="cls-3" d="M12.5,41H1.5a.5.5,0,0,1-.5-.5v-11a.5.5,0,0,1,.5-.5h11a.5.5,0,0,1,.5.5v11A.5.5,0,0,1,12.5,41ZM2,40H12V30H2Z"/><path class="cls-4" d="M26.5,49a.5.5,0,0,0-.5.5V54H16V44h5.5a.5.5,0,0,0,0-1h-6a.5.5,0,0,0-.5.5v11a.5.5,0,0,0,.5.5h11a.5.5,0,0,0,.5-.5v-5A.5.5,0,0,0,26.5,49Z"/><path class="cls-4" d="M17.85,48.15a.49.49,0,0,0-.7.7l3,3a.47.47,0,0,0,.35.15h0a.49.49,0,0,0,.36-.2l6-8a.5.5,0,0,0-.1-.7.51.51,0,0,0-.7.1l-5.65,7.54Z"/><path class="cls-4" d="M12.5,55H1.5a.5.5,0,0,1-.5-.5v-11a.5.5,0,0,1,.5-.5h11a.5.5,0,0,1,.5.5v11A.5.5,0,0,1,12.5,55ZM2,54H12V44H2Z"/><path class="cls-5" d="M35,58a5,5,0,1,1-5,5,5,5,0,0,1,5-5m0-1a6,6,0,1,0,6,6,6,6,0,0,0-6-6Z"/><path class="cls-5" d="M49,57a6,6,0,1,0,6,6A6,6,0,0,0,49,57Zm0,11a5,5,0,1,1,5-5A5,5,0,0,1,49,68Z"/><circle class="cls-5" cx="49" cy="63" r="3.5"/><path class="cls-5" d="M26.5,63a.5.5,0,0,0-.5.5V68H16V58h5.5a.5.5,0,0,0,0-1h-6a.5.5,0,0,0-.5.5v11a.5.5,0,0,0,.5.5h11a.5.5,0,0,0,.5-.5v-5A.5.5,0,0,0,26.5,63Z"/><path class="cls-5" d="M17.85,62.15a.49.49,0,0,0-.7.7l3,3a.47.47,0,0,0,.35.15h0a.49.49,0,0,0,.36-.2l6-8a.5.5,0,0,0-.1-.7.51.51,0,0,0-.7.1l-5.65,7.54Z"/><path class="cls-5" d="M12.5,69H1.5a.5.5,0,0,1-.5-.5v-11a.5.5,0,0,1,.5-.5h11a.5.5,0,0,1,.5.5v11A.5.5,0,0,1,12.5,69ZM2,68H12V58H2Z"/><path class="cls-1" d="M26.5,7a.5.5,0,0,0-.5.5V12H16V2h5.5a.5.5,0,0,0,0-1h-6a.5.5,0,0,0-.5.5v11a.5.5,0,0,0,.5.5h11a.5.5,0,0,0,.5-.5v-5A.5.5,0,0,0,26.5,7Z"/><path class="cls-1" d="M17.85,6.15a.49.49,0,0,0-.7.7l3,3a.47.47,0,0,0,.35.15h0a.49.49,0,0,0,.36-.2l6-8a.5.5,0,0,0-.1-.7.51.51,0,0,0-.7.1L20.45,8.74Z"/><path class="cls-1" d="M12.5,13H1.5a.5.5,0,0,1-.5-.5V1.5A.5.5,0,0,1,1.5,1h11a.5.5,0,0,1,.5.5v11A.5.5,0,0,1,12.5,13ZM2,12H12V2H2Z"/></svg>