<?xml version="1.0" encoding="utf-8"?>
<!-- Generator: Adobe Illustrator 21.1.0, SVG Export Plug-In . SVG Version: 6.00 Build 0)  -->
<svg version="1.1" id="Layer_1" xmlns="http://www.w3.org/2000/svg" xmlns:xlink="http://www.w3.org/1999/xlink" x="0px" y="0px"
	 viewBox="0 0 21 12.3" enable-background="new 0 0 21 12.3" xml:space="preserve">
<g>
	<g>
		<g>
			<path fill="#FFFFFF" d="M18.1,11.6h-12c-1.3,0-2.4-1.1-2.4-2.4c0-0.2,0.2-0.4,0.4-0.4S4.5,9,4.5,9.2c0,0.9,0.8,1.7,1.7,1.7h12
				c0.9,0,1.7-0.8,1.7-1.7V3.1c0-0.9-0.8-1.7-1.7-1.7h-12c-0.9,0-1.7,0.8-1.7,1.7c0,0.2-0.2,0.4-0.4,0.4S3.8,3.3,3.8,3.1
				c0-1.3,1.1-2.4,2.4-2.4h12c1.3,0,2.4,1.1,2.4,2.4v6.1C20.5,10.5,19.5,11.6,18.1,11.6z"/>
		</g>
		<g>
			<g>
				<path fill="#FFFFFF" d="M17.6,3.5H10c-0.2,0-0.4-0.2-0.4-0.4S9.8,2.8,10,2.8h7.6C17.8,2.8,18,3,18,3.2S17.8,3.5,17.6,3.5z"/>
			</g>
			<g>
				<path fill="#FFFFFF" d="M15.3,5.5H10c-0.2,0-0.4-0.2-0.4-0.4S9.8,4.8,10,4.8h5.3c0.2,0,0.4,0.2,0.4,0.4S15.4,5.5,15.3,5.5z"/>
			</g>
			<g>
				<path fill="#FFFFFF" d="M16.4,7.5H10c-0.2,0-0.4-0.2-0.4-0.4S9.8,6.8,10,6.8h6.5c0.2,0,0.4,0.2,0.4,0.4S16.6,7.5,16.4,7.5z"/>
			</g>
			<g>
				<path fill="#FFFFFF" d="M15.3,9.5H10c-0.2,0-0.4-0.2-0.4-0.4S9.8,8.8,10,8.8h5.3c0.2,0,0.4,0.2,0.4,0.4S15.4,9.5,15.3,9.5z"/>
			</g>
		</g>
	</g>
	<g>
		<g>
			<path fill="#FFFFFF" d="M7.6,6.5H0.8c-0.2,0-0.4-0.2-0.4-0.4s0.2-0.4,0.4-0.4h6.8C7.8,5.8,8,6,8,6.1S7.8,6.5,7.6,6.5z"/>
		</g>
		<g>
			<path fill="#FFFFFF" d="M6.2,8.1C6.1,8.1,6,8,5.9,8c-0.1-0.1-0.1-0.4,0-0.5l1.3-1.3L5.9,4.8c-0.1-0.1-0.1-0.4,0-0.5
				s0.4-0.1,0.5,0l1.5,1.5C8,5.9,8,6,8,6.1S8,6.4,7.9,6.5L6.4,8C6.3,8,6.2,8.1,6.2,8.1z M7.4,6.3C7.4,6.3,7.4,6.3,7.4,6.3L7.4,6.3z
				 M7.4,6C7.4,6,7.4,6,7.4,6L7.4,6z"/>
		</g>
	</g>
</g>
</svg>
