<svg id="Layer_1" data-name="Layer 1" xmlns="http://www.w3.org/2000/svg" xmlns:xlink="http://www.w3.org/1999/xlink" width="200" height="200"><defs><style>.cls-1{fill:none}.cls-2{fill:#509dfc}.cls-3{fill:#6ec8fc}.cls-27{fill:#6ec7fc}.cls-28{fill:#6dc7fc}.cls-29{fill:#6dc6fc}.cls-30{fill:#6cc5fc}.cls-31{fill:#6bc4fc}.cls-32{fill:#6bc3fc}.cls-33{fill:#6ac3fc}.cls-34{fill:#6ac2fc}.cls-35{fill:#69c1fc}.cls-36{fill:#69c0fc}.cls-37{fill:#68c0fc}.cls-38{fill:#67bffc}.cls-39{fill:#67befc}.cls-40{fill:#66bdfc}.cls-41{fill:#65bcfc}.cls-42{fill:#65bbfc}.cls-43{fill:#64bafc}.cls-44{fill:#63b8fc}.cls-45{fill:#62b7fc}.cls-46{fill:#61b6fc}.cls-47{fill:#61b5fc}.cls-48{fill:#60b4fc}.cls-49{fill:#5fb2fc}.cls-50{fill:#5eb1fc}.cls-51{fill:#5db0fc}.cls-52{fill:#5caefc}.cls-53{fill:#5badfc}.cls-54{fill:#5aabfc}.cls-55{fill:#59aafc}.cls-56{fill:#58a8fc}.cls-57{fill:#57a7fc}.cls-58{fill:#56a5fc}.cls-59{fill:#55a4fc}.cls-60{fill:#54a2fc}.cls-61{fill:#52a0fc}.cls-62{fill:#519ffc}</style><linearGradient id="linear-gradient" x1="111.44" y1="38.41" x2="111.44" y2="69.26" gradientUnits="userSpaceOnUse"><stop offset="0" stop-color="#6ec8fc"/><stop offset=".29" stop-color="#6ac3fc"/><stop offset=".64" stop-color="#60b3fc"/><stop offset="1" stop-color="#509dfc"/></linearGradient><linearGradient id="linear-gradient-2" x1="95.03" y1="52.34" x2="95.03" y2="169.76" xlink:href="#linear-gradient"/><linearGradient id="linear-gradient-3" x1="151.74" y1="112.04" x2="151.74" y2="162.79" xlink:href="#linear-gradient"/><linearGradient id="linear-gradient-4" x1="133.83" y1="81.2" x2="133.83" y2="82.2" xlink:href="#linear-gradient"/><linearGradient id="linear-gradient-5" x1="123.88" y1="81.2" x2="123.88" y2="82.2" xlink:href="#linear-gradient"/><linearGradient id="linear-gradient-6" x1="85.57" y1="81.2" x2="85.57" y2="82.2" xlink:href="#linear-gradient"/><linearGradient id="linear-gradient-7" x1="142.79" y1="6.57" x2="142.79" y2="7.57" xlink:href="#linear-gradient"/><linearGradient id="linear-gradient-8" x1="132.83" y1="6.57" x2="132.83" y2="7.57" xlink:href="#linear-gradient"/><linearGradient id="linear-gradient-9" x1="108.96" y1="6.57" x2="108.96" y2="7.57" xlink:href="#linear-gradient"/><linearGradient id="linear-gradient-10" x1="19.73" y1="186.67" x2="19.73" y2="187.67" gradientTransform="matrix(-1 0 0 1 66 0)" xlink:href="#linear-gradient"/><linearGradient id="linear-gradient-11" x1="9.28" y1="186.67" x2="9.28" y2="187.67" gradientTransform="matrix(-1 0 0 1 66 0)" xlink:href="#linear-gradient"/><linearGradient id="linear-gradient-12" x1="-14.1" y1="186.67" x2="-14.1" y2="187.67" gradientTransform="matrix(-1 0 0 1 66 0)" xlink:href="#linear-gradient"/><linearGradient id="linear-gradient-13" x1="15.42" y1="89.16" x2="15.42" y2="90.16" xlink:href="#linear-gradient"/><linearGradient id="linear-gradient-14" x1="5.48" y1="89.16" x2="5.48" y2="90.16" xlink:href="#linear-gradient"/><linearGradient id="linear-gradient-15" x1="118.42" y1="92.14" x2="118.42" y2="93.14" gradientTransform="matrix(-1 0 0 1 303 0)" xlink:href="#linear-gradient"/><linearGradient id="linear-gradient-16" x1="108.48" y1="92.14" x2="108.48" y2="93.14" gradientTransform="matrix(-1 0 0 1 303 0)" xlink:href="#linear-gradient"/><linearGradient id="linear-gradient-17" x1="95.52" y1="96.12" x2="95.52" y2="97.12" xlink:href="#linear-gradient"/><linearGradient id="New_Gradient_Swatch_copy" x1="187.06" y1="147.95" x2="187.06" y2="156.11" xlink:href="#linear-gradient"/><linearGradient id="New_Gradient_Swatch_copy-2" x1="192.04" y1="147.86" x2="192.04" y2="151.85" xlink:href="#linear-gradient"/><linearGradient id="New_Gradient_Swatch_copy-3" x1="-45.1" y1="24.33" x2="-45.1" y2="32.81" gradientTransform="matrix(-1 0 0 1 -26.5 0)" xlink:href="#linear-gradient"/><linearGradient id="New_Gradient_Swatch_copy-4" x1="-40.43" y1="24.48" x2="-40.43" y2="28.47" gradientTransform="matrix(-1 0 0 1 -26.5 0)" xlink:href="#linear-gradient"/><clipPath id="clip-path"><path class="cls-1" d="M74.13 9.2a.51.51 0 0 1-.5-.51v-.25a2 2 0 0 1-1.43-1.92.5.5 0 1 1 1 0 .94.94 0 1 0 .94-1 2 2 0 0 1-1.93-2 2 2 0 0 1 1.43-1.92v-.2a.5.5 0 1 1 1 0v.25a2 2 0 0 1 1.43 1.92.5.5 0 1 1-1 0 .94.94 0 1 0-.94 1 2 2 0 0 1 .5 3.9v.25a.51.51 0 0 1-.5.48z"/></clipPath><clipPath id="clip-path-2"><path class="cls-1" d="M113.93 199.11a.51.51 0 0 1-.5-.51v-.25a2 2 0 0 1-1.43-1.92.5.5 0 1 1 1 0 .94.94 0 1 0 .94-1 2 2 0 0 1-.5-3.89v-.26a.5.5 0 0 1 1 0v.26a2 2 0 0 1 1.43 1.91.5.5 0 1 1-1 0 .94.94 0 1 0-.94 1 2 2 0 0 1 .5 3.9v.25a.51.51 0 0 1-.5.51z"/></clipPath><clipPath id="clip-path-3"><path class="cls-1" d="M183.55 32.83l-6.31-.22-.24-6.31a.53.53 0 0 0-.55-.51 7.33 7.33 0 1 0 7.6 7.59.53.53 0 0 0-.5-.55zm-13 1a6.25 6.25 0 0 1 5.45-7.15l.23 6.2v.26l.06.09.09.06h.31l6.21.22a6.28 6.28 0 0 1-12.44.16z"/></clipPath><clipPath id="clip-path-4"><path class="cls-1" d="M184.87 27.06a7.28 7.28 0 0 0-6.25-3.47.52.52 0 0 0-.51.52v6.39c0 .72.24.95.53.95h6.8a.52.52 0 0 0 .53-.51 7.17 7.17 0 0 0-1.1-3.88zm-5.77 3.39v-5.7a6.24 6.24 0 0 1 4.81 2.94 6.13 6.13 0 0 1 .9 2.76z"/></clipPath><clipPath id="clip-path-5"><path class="cls-1" d="M27.37 92.17a.5.5 0 0 1-.5-.5v-.26a2 2 0 0 1-1.44-1.91.5.5 0 0 1 .5-.51.51.51 0 0 1 .5.51.94.94 0 1 0 .94-1 2 2 0 0 1-.5-3.9v-.26a.5.5 0 1 1 1 0v.26a2 2 0 0 1 1.44 1.91.5.5 0 0 1-.5.51.51.51 0 0 1-.5-.51.94.94 0 1 0-.93 1 2 2 0 0 1 .49 3.9v.26a.49.49 0 0 1-.5.5z"/></clipPath><linearGradient id="linear-gradient-18" x1="115.13" y1="116.74" x2="115.13" y2="163.92" xlink:href="#linear-gradient"/><linearGradient id="New_Gradient_Swatch_copy-5" x1="136.71" y1="177.48" x2="136.71" y2="159.05" gradientTransform="translate(2.51 -1.94)" xlink:href="#linear-gradient"/></defs><path class="cls-2" d="M71 168.84a.5.5 0 0 1-.5-.5c0-9.4-7-16.77-16-16.77A16.21 16.21 0 0 0 38.09 168a.5.5 0 0 1-1 0 17.2 17.2 0 0 1 17.33-17.43c9.55 0 17 7.81 17 17.77a.5.5 0 0 1-.42.5zm-16.27-20.97a10 10 0 1 1 10-10 10 10 0 0 1-10 10zm0-18.91a9 9 0 1 0 9 8.95 9 9 0 0 0-9-8.91z"/><path class="cls-3" d="M155 116.12a.5.5 0 0 1-.29-.91 17.15 17.15 0 0 0 7.17-10.64 15.63 15.63 0 0 0-2.55-12.1 16.09 16.09 0 0 0-14.53-7 .51.51 0 0 1-.53-.46.49.49 0 0 1 .46-.54 17.08 17.08 0 0 1 15.42 7.47 16.63 16.63 0 0 1 2.71 12.87 18.16 18.16 0 0 1-7.57 11.19.47.47 0 0 1-.29.12zm15.46-24.7a10.83 10.83 0 0 1-1.79-.16 9.9 9.9 0 1 1 1.79.16zm0-18.91a9 9 0 0 0-1.58 17.76 9 9 0 0 0 10.4-7.22 9 9 0 0 0-7.28-10.4 8.54 8.54 0 0 0-1.57-.14z"/><path d="M158.71 69.26a.5.5 0 0 1-.5-.5V40.89a1.48 1.48 0 0 0-1.48-1.48H66.15a1.47 1.47 0 0 0-1.47 1.47v12a.5.5 0 0 1-1 0v-12a2.48 2.48 0 0 1 2.47-2.47h90.58a2.49 2.49 0 0 1 2.48 2.48v27.87a.5.5 0 0 1-.5.5z" fill="url(#linear-gradient)"/><path d="M142.79 169.76H71.14a.51.51 0 0 1-.5-.5.5.5 0 0 1 .5-.5h71.65a1.49 1.49 0 0 0 1.49-1.48V54.82a1.49 1.49 0 0 0-1.49-1.48H47.25a1.47 1.47 0 0 0-1.47 1.48v70.66a.51.51 0 0 1-.5.5.5.5 0 0 1-.5-.5V54.82a2.48 2.48 0 0 1 2.47-2.48h95.54a2.49 2.49 0 0 1 2.49 2.48v112.46a2.49 2.49 0 0 1-2.49 2.48z" fill="url(#linear-gradient-2)"/><path d="M156.72 162.79h-11.94a.5.5 0 0 1 0-1h11.94a1.49 1.49 0 0 0 1.49-1.48v-47.77a.5.5 0 0 1 .5-.5.5.5 0 0 1 .5.5v47.77a2.49 2.49 0 0 1-2.49 2.48z" fill="url(#linear-gradient-3)"/><path d="M134.83 82.2h-2a.51.51 0 0 1-.5-.5.5.5 0 0 1 .5-.5h2a.5.5 0 0 1 .5.5.51.51 0 0 1-.5.5z" fill="url(#linear-gradient-4)"/><path d="M128.86 82.2h-10a.5.5 0 0 1-.5-.5.5.5 0 0 1 .5-.5h10a.5.5 0 0 1 .5.5.51.51 0 0 1-.5.5z" fill="url(#linear-gradient-5)"/><path d="M115.92 82.2h-60.7a.51.51 0 0 1-.5-.5.5.5 0 0 1 .5-.5h60.7a.5.5 0 0 1 .5.5.5.5 0 0 1-.5.5z" fill="url(#linear-gradient-6)"/><path d="M143.78 7.57h-2a.5.5 0 0 1 0-1h2a.5.5 0 0 1 0 1z" fill="url(#linear-gradient-7)"/><path d="M137.81 7.57h-10a.5.5 0 0 1 0-1h10a.5.5 0 0 1 0 1z" fill="url(#linear-gradient-8)"/><path d="M124.88 7.57H93a.5.5 0 0 1 0-1h31.84a.5.5 0 0 1 0 1z" fill="url(#linear-gradient-9)"/><path d="M47.26 187.67h-2a.5.5 0 0 1-.5-.5.5.5 0 0 1 .5-.5h2a.5.5 0 0 1 .5.5.5.5 0 0 1-.5.5z" fill="url(#linear-gradient-10)"/><path d="M61.2 187.67h-9a.5.5 0 0 1-.5-.5.5.5 0 0 1 .5-.5h9a.5.5 0 0 1 .5.5.51.51 0 0 1-.5.5z" fill="url(#linear-gradient-11)"/><path d="M96 187.67H64.18a.5.5 0 0 1-.5-.5.5.5 0 0 1 .5-.5H96a.5.5 0 0 1 .5.5.5.5 0 0 1-.5.5z" fill="url(#linear-gradient-12)"/><path d="M16.42 90.16h-2a.5.5 0 0 1-.5-.5.5.5 0 0 1 .5-.5h2a.5.5 0 0 1 .5.5.5.5 0 0 1-.5.5z" fill="url(#linear-gradient-13)"/><path d="M10.45 90.16H.5a.5.5 0 0 1-.5-.5.5.5 0 0 1 .5-.5h10a.5.5 0 0 1 .5.5.5.5 0 0 1-.55.5z" fill="url(#linear-gradient-14)"/><path d="M185.57 93.14h-2a.5.5 0 0 1 0-1h2a.5.5 0 0 1 0 1z" fill="url(#linear-gradient-15)"/><path d="M199.5 93.14h-9.95a.5.5 0 0 1 0-1h9.95a.5.5 0 0 1 0 1z" fill="url(#linear-gradient-16)"/><path d="M127.86 97.12H63.18a.5.5 0 0 1 0-1h64.68a.5.5 0 1 1 0 1z" fill="url(#linear-gradient-17)"/><path d="M181 156.11a.5.5 0 0 1-.34-.88l4.78-4.25a1 1 0 0 1 1.11-.14l2.3 1.18 4-3.93a.49.49 0 0 1 .7 0 .48.48 0 0 1 0 .7l-4 3.93a1 1 0 0 1-1.14.18l-2.31-1.18-4.79 4.28a.5.5 0 0 1-.31.11z" fill="url(#New_Gradient_Swatch_copy)"/><path d="M193.53 151.85a.5.5 0 0 1-.5-.5v-2.49h-2.49a.5.5 0 1 1 0-1h3a.5.5 0 0 1 .5.5v3a.5.5 0 0 1-.51.49z" fill="url(#New_Gradient_Swatch_copy-2)"/><path d="M25 32.81a.46.46 0 0 1-.33-.13l-5-4.43-2.42 1.22a1 1 0 0 1-1.17-.19l-4.18-4.09a.5.5 0 1 1 .7-.71l4.15 4.09 2.42-1.22a1 1 0 0 1 1.13.15l5 4.43a.5.5 0 0 1 0 .71.48.48 0 0 1-.3.17z" fill="url(#New_Gradient_Swatch_copy-3)"/><path d="M12.44 28.47a.5.5 0 0 1-.5-.5V25a.5.5 0 0 1 .5-.5h3a.5.5 0 0 1 0 1h-2.5V28a.5.5 0 0 1-.5.47z" fill="url(#New_Gradient_Swatch_copy-4)"/><g clip-path="url(#clip-path)"><path class="cls-3" d="M72.2.89h3.87v.19H72.2zm0 .19h3.87v.19H72.2zm0 .2h3.87v.19H72.2z"/><path class="cls-27" d="M72.2 1.47h3.87v.19H72.2z"/><path class="cls-28" d="M72.2 1.66h3.87v.19H72.2zm0 .2h3.87v.19H72.2z"/><path class="cls-29" d="M72.2 2.05h3.87v.19H72.2zm0 .19h3.87v.19H72.2z"/><path class="cls-30" d="M72.2 2.44h3.87v.19H72.2zm0 .19h3.87v.19H72.2z"/><path class="cls-31" d="M72.2 2.82h3.87v.19H72.2z"/><path class="cls-32" d="M72.2 3.02h3.87v.19H72.2z"/><path class="cls-33" d="M72.2 3.21h3.87v.19H72.2z"/><path class="cls-34" d="M72.2 3.4h3.87v.19H72.2z"/><path class="cls-35" d="M72.2 3.6h3.87v.19H72.2z"/><path class="cls-36" d="M72.2 3.79h3.87v.19H72.2z"/><path class="cls-37" d="M72.2 3.98h3.87v.19H72.2z"/><path class="cls-38" d="M72.2 4.18h3.87v.19H72.2z"/><path class="cls-39" d="M72.2 4.37h3.87v.19H72.2z"/><path class="cls-40" d="M72.2 4.56h3.87v.19H72.2z"/><path class="cls-41" d="M72.2 4.75h3.87v.19H72.2z"/><path class="cls-42" d="M72.2 4.95h3.87v.19H72.2z"/><path class="cls-43" d="M72.2 5.14h3.87v.19H72.2z"/><path class="cls-44" d="M72.2 5.33h3.87v.19H72.2z"/><path class="cls-45" d="M72.2 5.53h3.87v.19H72.2z"/><path class="cls-46" d="M72.2 5.72h3.87v.19H72.2z"/><path class="cls-47" d="M72.2 5.91h3.87v.19H72.2z"/><path class="cls-48" d="M72.2 6.11h3.87v.19H72.2z"/><path class="cls-49" d="M72.2 6.3h3.87v.19H72.2z"/><path class="cls-50" d="M72.2 6.49h3.87v.19H72.2z"/><path class="cls-51" d="M72.2 6.69h3.87v.19H72.2z"/><path class="cls-52" d="M72.2 6.88h3.87v.19H72.2z"/><path class="cls-53" d="M72.2 7.07h3.87v.19H72.2z"/><path class="cls-54" d="M72.2 7.27h3.87v.19H72.2z"/><path class="cls-55" d="M72.2 7.46h3.87v.19H72.2z"/><path class="cls-56" d="M72.2 7.65h3.87v.19H72.2z"/><path class="cls-57" d="M72.2 7.85h3.87v.19H72.2z"/><path class="cls-58" d="M72.2 8.04h3.87v.19H72.2z"/><path class="cls-59" d="M72.2 8.23h3.87v.19H72.2z"/><path class="cls-60" d="M72.2 8.43h3.87v.19H72.2z"/><path class="cls-61" d="M72.2 8.62h3.87v.19H72.2z"/><path class="cls-62" d="M72.2 8.81h3.87V9H72.2z"/><path class="cls-2" d="M72.2 9.01h3.87v.19H72.2z"/></g><g clip-path="url(#clip-path-2)"><path class="cls-3" d="M112 190.81h3.87v.19H112zm0 .19h3.87v.19H112zm0 .19h3.87v.19H112z"/><path class="cls-27" d="M112 191.39h3.87v.19H112z"/><path class="cls-28" d="M112 191.58h3.87v.19H112zm0 .19h3.87v.19H112z"/><path class="cls-29" d="M112 191.96h3.87v.19H112zm0 .2h3.87v.19H112z"/><path class="cls-30" d="M112 192.35h3.87v.19H112zm0 .19h3.87v.19H112z"/><path class="cls-31" d="M112 192.74h3.87v.19H112z"/><path class="cls-32" d="M112 192.93h3.87v.19H112z"/><path class="cls-33" d="M112 193.12h3.87v.19H112z"/><path class="cls-34" d="M112 193.32h3.87v.19H112z"/><path class="cls-35" d="M112 193.51h3.87v.19H112z"/><path class="cls-36" d="M112 193.7h3.87v.19H112z"/><path class="cls-37" d="M112 193.9h3.87v.19H112z"/><path class="cls-38" d="M112 194.09h3.87v.19H112z"/><path class="cls-39" d="M112 194.28h3.87v.19H112z"/><path class="cls-40" d="M112 194.48h3.87v.19H112z"/><path class="cls-41" d="M112 194.67h3.87v.19H112z"/><path class="cls-42" d="M112 194.86h3.87v.19H112z"/><path class="cls-43" d="M112 195.05h3.87v.19H112z"/><path class="cls-44" d="M112 195.25h3.87v.19H112z"/><path class="cls-45" d="M112 195.44h3.87v.19H112z"/><path class="cls-46" d="M112 195.63h3.87v.19H112z"/><path class="cls-47" d="M112 195.83h3.87v.19H112z"/><path class="cls-48" d="M112 196.02h3.87v.19H112z"/><path class="cls-49" d="M112 196.21h3.87v.19H112z"/><path class="cls-50" d="M112 196.41h3.87v.19H112z"/><path class="cls-51" d="M112 196.6h3.87v.19H112z"/><path class="cls-52" d="M112 196.79h3.87v.19H112z"/><path class="cls-53" d="M112 196.99h3.87v.19H112z"/><path class="cls-54" d="M112 197.18h3.87v.19H112z"/><path class="cls-55" d="M112 197.37h3.87v.19H112z"/><path class="cls-56" d="M112 197.56h3.87v.19H112z"/><path class="cls-57" d="M112 197.76h3.87v.19H112z"/><path class="cls-58" d="M112 197.95h3.87v.19H112z"/><path class="cls-59" d="M112 198.14h3.87v.19H112z"/><path class="cls-60" d="M112 198.34h3.87v.19H112z"/><path class="cls-61" d="M112 198.53h3.87v.19H112z"/><path class="cls-62" d="M112 198.72h3.87v.19H112z"/><path class="cls-2" d="M112 198.92h3.87v.19H112z"/></g><g opacity=".4"><g clip-path="url(#clip-path-3)"><path class="cls-3" d="M170.01 26.68h12.95v.13h-12.95z"/><path class="cls-27" d="M170.01 26.81h12.95v.34h-12.95z"/><path class="cls-28" d="M170.01 27.16h12.95v.34h-12.95zm0 .34h12.95v.34h-12.95z"/><path class="cls-29" d="M170.01 27.84h12.95v.34h-12.95zm0 .34h12.95v.34h-12.95z"/><path class="cls-30" d="M170.01 28.52h12.95v.34h-12.95zm0 .34h12.95v.34h-12.95z"/><path class="cls-31" d="M170.01 29.2h12.95v.34h-12.95z"/><path class="cls-32" d="M170.01 29.54h12.95v.34h-12.95z"/><path class="cls-33" d="M170.01 29.88h12.95v.34h-12.95z"/><path class="cls-34" d="M170.01 30.22h12.95v.34h-12.95z"/><path class="cls-35" d="M170.01 30.56h12.95v.34h-12.95z"/><path class="cls-36" d="M170.01 30.91h12.95v.34h-12.95z"/><path class="cls-37" d="M170.01 31.25h12.95v.34h-12.95z"/><path class="cls-38" d="M170.01 31.59h12.95v.34h-12.95z"/><path class="cls-39" d="M170.01 31.93h12.95v.34h-12.95z"/><path class="cls-40" d="M170.01 32.27h12.95v.34h-12.95z"/><path class="cls-41" d="M170.01 32.61h12.95v.34h-12.95z"/><path class="cls-42" d="M170.01 32.95h12.95v.34h-12.95z"/><path class="cls-43" d="M170.01 33.29h12.95v.34h-12.95z"/><path class="cls-44" d="M170.01 33.63h12.95v.34h-12.95z"/><path class="cls-45" d="M170.01 33.97h12.95v.34h-12.95z"/><path class="cls-46" d="M170.01 34.31h12.95v.34h-12.95z"/><path class="cls-47" d="M170.01 34.66h12.95V35h-12.95z"/><path class="cls-48" d="M170.01 35h12.95v.34h-12.95z"/><path class="cls-49" d="M170.01 35.34h12.95v.34h-12.95z"/><path class="cls-50" d="M170.01 35.68h12.95v.34h-12.95z"/><path class="cls-51" d="M170.01 36.02h12.95v.34h-12.95z"/><path class="cls-52" d="M170.01 36.36h12.95v.34h-12.95z"/><path class="cls-53" d="M170.01 36.7h12.95v.34h-12.95z"/><path class="cls-54" d="M170.01 37.04h12.95v.34h-12.95z"/><path class="cls-55" d="M170.01 37.38h12.95v.34h-12.95z"/><path class="cls-56" d="M170.01 37.72h12.95v.34h-12.95z"/><path class="cls-57" d="M170.01 38.06h12.95v.34h-12.95z"/><path class="cls-58" d="M170.01 38.41h12.95v.34h-12.95z"/><path class="cls-59" d="M170.01 38.75h12.95v.34h-12.95z"/><path class="cls-60" d="M170.01 39.09h12.95v.34h-12.95z"/><path class="cls-61" d="M170.01 39.43h12.95v.18h-12.95z"/><path class="cls-3" d="M169.4 25.77h14.68v.02H169.4zm0 .02h14.68v.34H169.4zm0 .34h14.68v.34H169.4zm0 .34h14.68v.34H169.4z"/><path class="cls-27" d="M169.4 26.81h14.68v.34H169.4z"/><path class="cls-28" d="M169.4 27.16h14.68v.34H169.4zm0 .34h14.68v.34H169.4z"/><path class="cls-29" d="M169.4 27.84h14.68v.34H169.4zm0 .34h14.68v.34H169.4z"/><path class="cls-30" d="M169.4 28.52h14.68v.34H169.4zm0 .34h14.68v.34H169.4z"/><path class="cls-31" d="M169.4 29.2h14.68v.34H169.4z"/><path class="cls-32" d="M169.4 29.54h14.68v.34H169.4z"/><path class="cls-33" d="M169.4 29.88h14.68v.34H169.4z"/><path class="cls-34" d="M169.4 30.22h14.68v.34H169.4z"/><path class="cls-35" d="M169.4 30.56h14.68v.34H169.4z"/><path class="cls-36" d="M169.4 30.91h14.68v.34H169.4z"/><path class="cls-37" d="M169.4 31.25h14.68v.34H169.4z"/><path class="cls-38" d="M169.4 31.59h14.68v.34H169.4z"/><path class="cls-39" d="M169.4 31.93h14.68v.34H169.4z"/><path class="cls-40" d="M169.4 32.27h14.68v.34H169.4z"/><path class="cls-41" d="M169.4 32.61h14.68v.34H169.4z"/><path class="cls-42" d="M169.4 32.95h14.68v.34H169.4z"/><path class="cls-43" d="M169.4 33.29h14.68v.34H169.4z"/><path class="cls-44" d="M169.4 33.63h14.68v.34H169.4z"/><path class="cls-45" d="M169.4 33.97h14.68v.34H169.4z"/><path class="cls-46" d="M169.4 34.31h14.68v.34H169.4z"/><path class="cls-47" d="M169.4 34.66h14.68V35H169.4z"/><path class="cls-48" d="M169.4 35h14.68v.34H169.4z"/><path class="cls-49" d="M169.4 35.34h14.68v.34H169.4z"/><path class="cls-50" d="M169.4 35.68h14.68v.34H169.4z"/><path class="cls-51" d="M169.4 36.02h14.68v.34H169.4z"/><path class="cls-52" d="M169.4 36.36h14.68v.34H169.4z"/><path class="cls-53" d="M169.4 36.7h14.68v.34H169.4z"/><path class="cls-54" d="M169.4 37.04h14.68v.34H169.4z"/><path class="cls-55" d="M169.4 37.38h14.68v.34H169.4z"/><path class="cls-56" d="M169.4 37.72h14.68v.34H169.4z"/><path class="cls-57" d="M169.4 38.06h14.68v.34H169.4z"/><path class="cls-58" d="M169.4 38.41h14.68v.34H169.4z"/><path class="cls-59" d="M169.4 38.75h14.68v.34H169.4z"/><path class="cls-60" d="M169.4 39.09h14.68v.34H169.4z"/><path class="cls-61" d="M169.4 39.43h14.68v.34H169.4z"/><path class="cls-62" d="M169.4 39.77h14.68v.34H169.4z"/><path class="cls-2" d="M169.4 40.11h14.68v.34H169.4z"/></g><g clip-path="url(#clip-path-4)"><path class="cls-29" d="M179.1 24.75h5.71v.11h-5.71zm0 .12h5.71v.18h-5.71z"/><path class="cls-30" d="M179.1 25.05h5.71v.18h-5.71zm0 .18h5.71v.18h-5.71z"/><path class="cls-31" d="M179.1 25.41h5.71v.18h-5.71z"/><path class="cls-32" d="M179.1 25.6h5.71v.18h-5.71z"/><path class="cls-33" d="M179.1 25.78h5.71v.18h-5.71z"/><path class="cls-34" d="M179.1 25.96h5.71v.18h-5.71z"/><path class="cls-35" d="M179.1 26.15h5.71v.18h-5.71z"/><path class="cls-36" d="M179.1 26.33h5.71v.18h-5.71z"/><path class="cls-37" d="M179.1 26.51h5.71v.18h-5.71z"/><path class="cls-38" d="M179.1 26.69h5.71v.18h-5.71z"/><path class="cls-39" d="M179.1 26.88h5.71v.18h-5.71z"/><path class="cls-40" d="M179.1 27.06h5.71v.18h-5.71z"/><path class="cls-41" d="M179.1 27.24h5.71v.18h-5.71z"/><path class="cls-42" d="M179.1 27.43h5.71v.18h-5.71z"/><path class="cls-43" d="M179.1 27.61h5.71v.18h-5.71z"/><path class="cls-44" d="M179.1 27.79h5.71v.18h-5.71z"/><path class="cls-45" d="M179.1 27.97h5.71v.18h-5.71z"/><path class="cls-46" d="M179.1 28.16h5.71v.18h-5.71z"/><path class="cls-47" d="M179.1 28.34h5.71v.18h-5.71z"/><path class="cls-48" d="M179.1 28.52h5.71v.18h-5.71z"/><path class="cls-49" d="M179.1 28.71h5.71v.18h-5.71z"/><path class="cls-50" d="M179.1 28.89h5.71v.18h-5.71z"/><path class="cls-51" d="M179.1 29.07h5.71v.18h-5.71z"/><path class="cls-52" d="M179.1 29.25h5.71v.18h-5.71z"/><path class="cls-53" d="M179.1 29.44h5.71v.18h-5.71z"/><path class="cls-54" d="M179.1 29.62h5.71v.18h-5.71z"/><path class="cls-55" d="M179.1 29.8h5.71v.18h-5.71z"/><path class="cls-56" d="M179.1 29.99h5.71v.18h-5.71z"/><path class="cls-57" d="M179.1 30.17h5.71v.18h-5.71z"/><path class="cls-58" d="M179.1 30.35h5.71v.1h-5.71z"/><path class="cls-3" d="M178.11 23.58h7.87v.01h-7.87zm0 .01h7.87v.18h-7.87zm0 .18h7.87v.18h-7.87zm0 .18h7.87v.18h-7.87z"/><path class="cls-27" d="M178.11 24.13h7.87v.18h-7.87z"/><path class="cls-28" d="M178.11 24.32h7.87v.18h-7.87zm0 .18h7.87v.18h-7.87z"/><path class="cls-29" d="M178.11 24.68h7.87v.18h-7.87zm0 .19h7.87v.18h-7.87z"/><path class="cls-30" d="M178.11 25.05h7.87v.18h-7.87zm0 .18h7.87v.18h-7.87z"/><path class="cls-31" d="M178.11 25.41h7.87v.18h-7.87z"/><path class="cls-32" d="M178.11 25.6h7.87v.18h-7.87z"/><path class="cls-33" d="M178.11 25.78h7.87v.18h-7.87z"/><path class="cls-34" d="M178.11 25.96h7.87v.18h-7.87z"/><path class="cls-35" d="M178.11 26.15h7.87v.18h-7.87z"/><path class="cls-36" d="M178.11 26.33h7.87v.18h-7.87z"/><path class="cls-37" d="M178.11 26.51h7.87v.18h-7.87z"/><path class="cls-38" d="M178.11 26.69h7.87v.18h-7.87z"/><path class="cls-39" d="M178.11 26.88h7.87v.18h-7.87z"/><path class="cls-40" d="M178.11 27.06h7.87v.18h-7.87z"/><path class="cls-41" d="M178.11 27.24h7.87v.18h-7.87z"/><path class="cls-42" d="M178.11 27.43h7.87v.18h-7.87z"/><path class="cls-43" d="M178.11 27.61h7.87v.18h-7.87z"/><path class="cls-44" d="M178.11 27.79h7.87v.18h-7.87z"/><path class="cls-45" d="M178.11 27.97h7.87v.18h-7.87z"/><path class="cls-46" d="M178.11 28.16h7.87v.18h-7.87z"/><path class="cls-47" d="M178.11 28.34h7.87v.18h-7.87z"/><path class="cls-48" d="M178.11 28.52h7.87v.18h-7.87z"/><path class="cls-49" d="M178.11 28.71h7.87v.18h-7.87z"/><path class="cls-50" d="M178.11 28.89h7.87v.18h-7.87z"/><path class="cls-51" d="M178.11 29.07h7.87v.18h-7.87z"/><path class="cls-52" d="M178.11 29.25h7.87v.18h-7.87z"/><path class="cls-53" d="M178.11 29.44h7.87v.18h-7.87z"/><path class="cls-54" d="M178.11 29.62h7.87v.18h-7.87z"/><path class="cls-55" d="M178.11 29.8h7.87v.18h-7.87z"/><path class="cls-56" d="M178.11 29.99h7.87v.18h-7.87z"/><path class="cls-57" d="M178.11 30.17h7.87v.18h-7.87z"/><path class="cls-58" d="M178.11 30.35h7.87v.18h-7.87z"/><path class="cls-59" d="M178.11 30.53h7.87v.18h-7.87z"/><path class="cls-60" d="M178.11 30.72h7.87v.18h-7.87z"/><path class="cls-61" d="M178.11 30.9h7.87v.18h-7.87z"/><path class="cls-62" d="M178.11 31.08h7.87v.18h-7.87z"/><path class="cls-2" d="M178.11 31.27h7.87v.18h-7.87z"/></g></g><g clip-path="url(#clip-path-5)"><path class="cls-3" d="M25.43 83.87h3.87v.19h-3.87zm0 .19h3.87v.19h-3.87zm0 .19h3.87v.19h-3.87z"/><path class="cls-27" d="M25.43 84.45h3.87v.19h-3.87z"/><path class="cls-28" d="M25.43 84.64h3.87v.19h-3.87zm0 .19h3.87v.19h-3.87z"/><path class="cls-29" d="M25.43 85.03h3.87v.19h-3.87zm0 .19h3.87v.19h-3.87z"/><path class="cls-30" d="M25.43 85.41h3.87v.19h-3.87zm0 .2h3.87v.19h-3.87z"/><path class="cls-31" d="M25.43 85.8h3.87v.19h-3.87z"/><path class="cls-32" d="M25.43 85.99h3.87v.19h-3.87z"/><path class="cls-33" d="M25.43 86.18h3.87v.19h-3.87z"/><path class="cls-34" d="M25.43 86.38h3.87v.19h-3.87z"/><path class="cls-35" d="M25.43 86.57h3.87v.19h-3.87z"/><path class="cls-36" d="M25.43 86.76h3.87v.19h-3.87z"/><path class="cls-37" d="M25.43 86.96h3.87v.19h-3.87z"/><path class="cls-38" d="M25.43 87.15h3.87v.19h-3.87z"/><path class="cls-39" d="M25.43 87.34h3.87v.19h-3.87z"/><path class="cls-40" d="M25.43 87.54h3.87v.19h-3.87z"/><path class="cls-41" d="M25.43 87.73h3.87v.19h-3.87z"/><path class="cls-42" d="M25.43 87.92h3.87v.19h-3.87z"/><path class="cls-43" d="M25.43 88.12h3.87v.19h-3.87z"/><path class="cls-44" d="M25.43 88.31h3.87v.19h-3.87z"/><path class="cls-45" d="M25.43 88.5h3.87v.19h-3.87z"/><path class="cls-46" d="M25.43 88.7h3.87v.19h-3.87z"/><path class="cls-47" d="M25.43 88.89h3.87v.19h-3.87z"/><path class="cls-48" d="M25.43 89.08h3.87v.19h-3.87z"/><path class="cls-49" d="M25.43 89.28h3.87v.19h-3.87z"/><path class="cls-50" d="M25.43 89.47h3.87v.19h-3.87z"/><path class="cls-51" d="M25.43 89.66h3.87v.19h-3.87z"/><path class="cls-52" d="M25.43 89.86h3.87v.19h-3.87z"/><path class="cls-53" d="M25.43 90.05h3.87v.19h-3.87z"/><path class="cls-54" d="M25.43 90.24h3.87v.19h-3.87z"/><path class="cls-55" d="M25.43 90.44h3.87v.19h-3.87z"/><path class="cls-56" d="M25.43 90.63h3.87v.19h-3.87z"/><path class="cls-57" d="M25.43 90.82h3.87v.19h-3.87z"/><path class="cls-58" d="M25.43 91.02h3.87v.19h-3.87z"/><path class="cls-59" d="M25.43 91.21h3.87v.19h-3.87z"/><path class="cls-60" d="M25.43 91.4h3.87v.19h-3.87z"/><path class="cls-61" d="M25.43 91.59h3.87v.19h-3.87z"/><path class="cls-62" d="M25.43 91.79h3.87v.19h-3.87z"/><path class="cls-2" d="M25.43 91.98h3.87v.19h-3.87z"/></g><path d="M115.13 163.92a23.59 23.59 0 1 1 23.59-23.59 23.61 23.61 0 0 1-23.59 23.59zm0-46.18a22.59 22.59 0 1 0 22.59 22.59 22.61 22.61 0 0 0-22.59-22.59z" fill="url(#linear-gradient-18)"/><path d="M146.76 176.5a.5.5 0 0 1-.35-.15l-17.32-17.54a.5.5 0 0 1 0-.71.49.49 0 0 1 .7 0l17.32 17.55a.51.51 0 0 1 0 .71.54.54 0 0 1-.35.14z" fill="url(#New_Gradient_Swatch_copy-5)"/></svg>