<svg xmlns="http://www.w3.org/2000/svg" width="1920" height="1080" viewBox="0 0 1920 1080"><defs><style>.cls-1{fill:#707e8f;}.cls-2{fill:#348ffc;}.cls-3{fill:#fff;}.cls-4{fill:#d5d9de;}.cls-5{fill:#6484ac;}.cls-6{fill:#707e8e;}</style></defs><title>Icons</title><g id="Icon"><path class="cls-1" d="M4,1V3H2V13h8V11h2V1ZM9,12H3V4H9Zm2-2H10V3H5V2h6Z"/><path class="cls-1" d="M37,3V1H33V3H30V4h1v9h8V4h1V3ZM34,2h2V3H34Zm4,10H32V4h6Z"/><rect class="cls-1" x="33" y="5" width="1" height="6"/><rect class="cls-1" x="36" y="5" width="1" height="6"/><path class="cls-1" d="M26,4,23,1,16,8v3h3Zm-9,6V8.41l6-6L24.59,4l-6,6Z"/><rect class="cls-1" x="16" y="12" width="8" height="1"/><path class="cls-1" d="M52,2V1H51V2H47V1H46V2H43V13H55V2Zm2,10H44V7H54Zm0-6H44V3h2V4h1V3h4V4h1V3h2Z"/><path class="cls-1" d="M63,11a.52.52,0,0,1-.36-.16l-5.5-5.93a.57.57,0,0,1,0-.76.49.49,0,0,1,.71,0L63,9.71l5.14-5.55a.49.49,0,0,1,.71,0,.57.57,0,0,1,0,.76l-5.5,5.93A.52.52,0,0,1,63,11Z"/><path class="cls-1" d="M77,4a.52.52,0,0,1,.36.16l5.5,5.93a.57.57,0,0,1,0,.76.49.49,0,0,1-.71,0L77,5.29l-5.14,5.55a.49.49,0,0,1-.71,0,.57.57,0,0,1,0-.76l5.5-5.93A.52.52,0,0,1,77,4Z"/><path class="cls-2" d="M4,15v2H2V27h8V25h2V15ZM9,26H3V18H9Zm2-2H10V17H5V16h6Z"/><path class="cls-2" d="M37,17V15H33v2H30v1h1v9h8V18h1V17Zm-3-1h2v1H34Zm4,10H32V18h6Z"/><rect class="cls-2" x="33" y="19" width="1" height="6"/><rect class="cls-2" x="36" y="19" width="1" height="6"/><path class="cls-2" d="M26,18l-3-3-7,7v3h3Zm-9,6V22.41l6-6L24.59,18l-6,6Z"/><rect class="cls-2" x="16" y="26" width="8" height="1"/><path class="cls-2" d="M52,16V15H51v1H47V15H46v1H43V27H55V16Zm2,10H44V21H54Zm0-6H44V17h2v1h1V17h4v1h1V17h2Z"/><path class="cls-2" d="M63,25a.52.52,0,0,1-.36-.16l-5.5-5.93a.57.57,0,0,1,0-.76.49.49,0,0,1,.71,0L63,23.71l5.14-5.55a.49.49,0,0,1,.71,0,.57.57,0,0,1,0,.76l-5.5,5.93A.52.52,0,0,1,63,25Z"/><path class="cls-2" d="M77,18a.52.52,0,0,1,.36.16l5.5,5.93a.57.57,0,0,1,0,.76.49.49,0,0,1-.71,0L77,19.29l-5.14,5.55a.49.49,0,0,1-.71,0,.57.57,0,0,1,0-.76l5.5-5.93A.52.52,0,0,1,77,18Z"/><path class="cls-3" d="M4,29v2H2V41h8V39h2V29ZM9,40H3V32H9Zm2-2H10V31H5V30h6Z"/><path class="cls-3" d="M37,31V29H33v2H30v1h1v9h8V32h1V31Zm-3-1h2v1H34Zm4,10H32V32h6Z"/><rect class="cls-3" x="33" y="33" width="1" height="6"/><rect class="cls-3" x="36" y="33" width="1" height="6"/><path class="cls-3" d="M26,32l-3-3-7,7v3h3Zm-9,6V36.41l6-6L24.59,32l-6,6Z"/><rect class="cls-3" x="16" y="40" width="8" height="1"/><path class="cls-3" d="M52,30V29H51v1H47V29H46v1H43V41H55V30Zm2,10H44V35H54Zm0-6H44V31h2v1h1V31h4v1h1V31h2Z"/><path class="cls-3" d="M63,39a.52.52,0,0,1-.36-.16l-5.5-5.93a.57.57,0,0,1,0-.76.49.49,0,0,1,.71,0L63,37.71l5.14-5.55a.49.49,0,0,1,.71,0,.57.57,0,0,1,0,.76l-5.5,5.93A.52.52,0,0,1,63,39Z"/><path class="cls-3" d="M77,32a.52.52,0,0,1,.36.16l5.5,5.93a.57.57,0,0,1,0,.76.49.49,0,0,1-.71,0L77,33.29l-5.14,5.55a.49.49,0,0,1-.71,0,.57.57,0,0,1,0-.76l5.5-5.93A.52.52,0,0,1,77,32Z"/><path class="cls-4" d="M4,43v2H2V55h8V53h2V43ZM9,54H3V46H9Zm2-2H10V45H5V44h6Z"/><path class="cls-4" d="M37,45V43H33v2H30v1h1v9h8V46h1V45Zm-3-1h2v1H34Zm4,10H32V46h6Z"/><rect class="cls-4" x="33" y="47" width="1" height="6"/><rect class="cls-4" x="36" y="47" width="1" height="6"/><path class="cls-4" d="M26,46l-3-3-7,7v3h3Zm-9,6V50.41l6-6L24.59,46l-6,6Z"/><rect class="cls-4" x="16" y="54" width="8" height="1"/><path class="cls-4" d="M52,44V43H51v1H47V43H46v1H43V55H55V44Zm2,10H44V49H54Zm0-6H44V45h2v1h1V45h4v1h1V45h2Z"/><path class="cls-4" d="M63,53a.52.52,0,0,1-.36-.16l-5.5-5.93a.57.57,0,0,1,0-.76.49.49,0,0,1,.71,0L63,51.71l5.14-5.55a.49.49,0,0,1,.71,0,.57.57,0,0,1,0,.76l-5.5,5.93A.52.52,0,0,1,63,53Z"/><path class="cls-4" d="M77,46a.52.52,0,0,1,.36.16l5.5,5.93a.57.57,0,0,1,0,.76.49.49,0,0,1-.71,0L77,47.29l-5.14,5.55a.49.49,0,0,1-.71,0,.57.57,0,0,1,0-.76l5.5-5.93A.52.52,0,0,1,77,46Z"/><path class="cls-1" d="M153,67a8,8,0,0,0-6.87,3.9s0,.07,0,.1H146V67.5a.5.5,0,0,0-1,0v4a.5.5,0,0,0,.5.5h4a.5.5,0,0,0,0-1h-2.23A7,7,0,1,1,146,75a.5.5,0,0,0-1,0,8,8,0,1,0,8-8Z"/><path class="cls-1" d="M16.85,82.15l-3.57-3.57A6.89,6.89,0,0,0,15,74a7,7,0,1,0-7,7,6.89,6.89,0,0,0,4.58-1.72l3.57,3.57a.48.48,0,0,0,.7,0A.48.48,0,0,0,16.85,82.15ZM12.45,78a3.05,3.05,0,0,1-.44.44A5.9,5.9,0,0,1,8,80a6,6,0,1,1,6-6A5.9,5.9,0,0,1,12.45,78Z"/><path class="cls-1" d="M34.5,78H33V72.92A5.91,5.91,0,0,0,27.25,67h-.5A5.91,5.91,0,0,0,21,72.92V78H19.5a.5.5,0,0,0,0,1H24v1a3,3,0,0,0,6,0V79h4.5a.5.5,0,0,0,0-1ZM29,80a2,2,0,0,1-4,0V79h4Zm-7-2V72.92A4.9,4.9,0,0,1,26.75,68h.5A4.9,4.9,0,0,1,32,72.92V78Z"/><path class="cls-1" d="M69.5,74H63V67.5a.5.5,0,0,0-1,0V74H55.5a.5.5,0,0,0,0,1H62v6.5a.5.5,0,0,0,1,0V75h6.5a.5.5,0,0,0,0-1Z"/><path class="cls-1" d="M50.5,75a.5.5,0,0,0-.5.5V80H40V70h5.5a.5.5,0,0,0,0-1h-6a.5.5,0,0,0-.5.5v11a.5.5,0,0,0,.5.5h11a.5.5,0,0,0,.5-.5v-5A.5.5,0,0,0,50.5,75Z"/><path class="cls-1" d="M41.85,74.15a.49.49,0,0,0-.7.7l3,3a.47.47,0,0,0,.35.15h0a.49.49,0,0,0,.36-.2l6-8a.5.5,0,0,0-.1-.7.51.51,0,0,0-.7.1l-5.65,7.54Z"/><path class="cls-1" d="M82.5,83a.47.47,0,0,1-.35-.15l-3-3A.47.47,0,0,1,79,79.5V73.71l-5.85-5.86a.47.47,0,0,1-.11-.54A.5.5,0,0,1,73.5,67h15a.5.5,0,0,1,.46.31.47.47,0,0,1-.11.54L83,73.71V82.5a.5.5,0,0,1-.31.46A.43.43,0,0,1,82.5,83ZM80,79.29l2,2V73.5a.47.47,0,0,1,.15-.35L87.29,68H74.71l5.14,5.15a.47.47,0,0,1,.15.35Z"/><path class="cls-1" d="M99.75,75l7.09-7.09a.53.53,0,0,0-.75-.75L99,74.25l-7.09-7.09a.53.53,0,0,0-.75.75L98.25,75l-7.09,7.09a.53.53,0,0,0,0,.75.5.5,0,0,0,.37.16.51.51,0,0,0,.38-.16L99,75.75l7.09,7.09a.51.51,0,0,0,.38.16.5.5,0,0,0,.37-.16.53.53,0,0,0,0-.75Z"/><path class="cls-1" d="M117,68a7,7,0,1,1-7,7,7,7,0,0,1,7-7m0-1a8,8,0,1,0,8,8,8,8,0,0,0-8-8Z"/><path class="cls-1" d="M135,67a8,8,0,1,0,8,8A8,8,0,0,0,135,67Zm0,15a7,7,0,1,1,7-7A7,7,0,0,1,135,82Z"/><circle class="cls-1" cx="135" cy="75" r="5"/><path class="cls-2" d="M153,85a8,8,0,0,0-6.87,3.9s0,.07,0,.1H146V85.5a.5.5,0,0,0-1,0v4a.5.5,0,0,0,.5.5h4a.5.5,0,0,0,0-1h-2.23A7,7,0,1,1,146,93a.5.5,0,0,0-1,0,8,8,0,1,0,8-8Z"/><path class="cls-2" d="M16.85,100.15l-3.57-3.57A6.89,6.89,0,0,0,15,92a7,7,0,1,0-7,7,6.89,6.89,0,0,0,4.58-1.72l3.57,3.57a.48.48,0,0,0,.7,0A.48.48,0,0,0,16.85,100.15ZM12.45,96a3.05,3.05,0,0,1-.44.44A5.9,5.9,0,0,1,8,98a6,6,0,1,1,6-6A5.9,5.9,0,0,1,12.45,96Z"/><path class="cls-2" d="M34.5,96H33V90.92A5.91,5.91,0,0,0,27.25,85h-.5A5.91,5.91,0,0,0,21,90.92V96H19.5a.5.5,0,0,0,0,1H24v1a3,3,0,0,0,6,0V97h4.5a.5.5,0,0,0,0-1ZM29,98a2,2,0,0,1-4,0V97h4Zm-7-2V90.92A4.9,4.9,0,0,1,26.75,86h.5A4.9,4.9,0,0,1,32,90.92V96Z"/><path class="cls-2" d="M69.5,92H63V85.5a.5.5,0,0,0-1,0V92H55.5a.5.5,0,0,0,0,1H62v6.5a.5.5,0,0,0,1,0V93h6.5a.5.5,0,0,0,0-1Z"/><path class="cls-2" d="M50.5,93a.5.5,0,0,0-.5.5V98H40V88h5.5a.5.5,0,0,0,0-1h-6a.5.5,0,0,0-.5.5v11a.5.5,0,0,0,.5.5h11a.5.5,0,0,0,.5-.5v-5A.5.5,0,0,0,50.5,93Z"/><path class="cls-2" d="M41.85,92.15a.49.49,0,0,0-.7.7l3,3a.47.47,0,0,0,.35.15h0a.49.49,0,0,0,.36-.2l6-8a.5.5,0,0,0-.1-.7.51.51,0,0,0-.7.1l-5.65,7.54Z"/><path class="cls-2" d="M82.5,101a.47.47,0,0,1-.35-.15l-3-3A.47.47,0,0,1,79,97.5V91.71l-5.85-5.86a.47.47,0,0,1-.11-.54A.5.5,0,0,1,73.5,85h15a.5.5,0,0,1,.46.31.47.47,0,0,1-.11.54L83,91.71v8.79a.5.5,0,0,1-.31.46A.43.43,0,0,1,82.5,101ZM80,97.29l2,2V91.5a.47.47,0,0,1,.15-.35L87.29,86H74.71l5.14,5.15a.47.47,0,0,1,.15.35Z"/><path class="cls-2" d="M99.75,93l7.09-7.09a.53.53,0,0,0-.75-.75L99,92.25l-7.09-7.09a.53.53,0,0,0-.75.75L98.25,93l-7.09,7.09a.53.53,0,0,0,0,.75.5.5,0,0,0,.37.16.51.51,0,0,0,.38-.16L99,93.75l7.09,7.09a.51.51,0,0,0,.38.16.5.5,0,0,0,.37-.16.53.53,0,0,0,0-.75Z"/><path class="cls-2" d="M117,86a7,7,0,1,1-7,7,7,7,0,0,1,7-7m0-1a8,8,0,1,0,8,8,8,8,0,0,0-8-8Z"/><path class="cls-2" d="M135,85a8,8,0,1,0,8,8A8,8,0,0,0,135,85Zm0,15a7,7,0,1,1,7-7A7,7,0,0,1,135,100Z"/><circle class="cls-2" cx="135" cy="93" r="5"/><path class="cls-3" d="M153,103a8,8,0,0,0-6.87,3.9s0,.07,0,.1H146v-3.5a.5.5,0,0,0-1,0v4a.5.5,0,0,0,.5.5h4a.5.5,0,0,0,0-1h-2.23a7,7,0,1,1-1.27,4,.5.5,0,0,0-1,0,8,8,0,1,0,8-8Z"/><path class="cls-3" d="M16.85,118.15l-3.57-3.57A6.89,6.89,0,0,0,15,110a7,7,0,1,0-7,7,6.89,6.89,0,0,0,4.58-1.72l3.57,3.57a.48.48,0,0,0,.7,0A.48.48,0,0,0,16.85,118.15ZM12.45,114a3.05,3.05,0,0,1-.44.44A5.9,5.9,0,0,1,8,116a6,6,0,1,1,6-6A5.9,5.9,0,0,1,12.45,114Z"/><path class="cls-3" d="M34.5,114H33v-5.08A5.91,5.91,0,0,0,27.25,103h-.5A5.91,5.91,0,0,0,21,108.92V114H19.5a.5.5,0,0,0,0,1H24v1a3,3,0,0,0,6,0v-1h4.5a.5.5,0,0,0,0-1ZM29,116a2,2,0,0,1-4,0v-1h4Zm-7-2v-5.08A4.9,4.9,0,0,1,26.75,104h.5A4.9,4.9,0,0,1,32,108.92V114Z"/><path class="cls-3" d="M69.5,110H63v-6.5a.5.5,0,0,0-1,0V110H55.5a.5.5,0,0,0,0,1H62v6.5a.5.5,0,0,0,1,0V111h6.5a.5.5,0,0,0,0-1Z"/><path class="cls-3" d="M50.5,111a.5.5,0,0,0-.5.5V116H40V106h5.5a.5.5,0,0,0,0-1h-6a.5.5,0,0,0-.5.5v11a.5.5,0,0,0,.5.5h11a.5.5,0,0,0,.5-.5v-5A.5.5,0,0,0,50.5,111Z"/><path class="cls-3" d="M41.85,110.15a.49.49,0,0,0-.7.7l3,3a.47.47,0,0,0,.35.15h0a.49.49,0,0,0,.36-.2l6-8a.5.5,0,0,0-.1-.7.51.51,0,0,0-.7.1l-5.65,7.54Z"/><path class="cls-3" d="M82.5,119a.47.47,0,0,1-.35-.15l-3-3a.47.47,0,0,1-.15-.35v-5.79l-5.85-5.86a.47.47,0,0,1-.11-.54.5.5,0,0,1,.46-.31h15a.5.5,0,0,1,.46.31.47.47,0,0,1-.11.54L83,109.71v8.79a.5.5,0,0,1-.31.46A.43.43,0,0,1,82.5,119ZM80,115.29l2,2V109.5a.47.47,0,0,1,.15-.35L87.29,104H74.71l5.14,5.15a.47.47,0,0,1,.15.35Z"/><path class="cls-3" d="M99.75,111l7.09-7.09a.53.53,0,0,0-.75-.75L99,110.25l-7.09-7.09a.53.53,0,0,0-.75.75L98.25,111l-7.09,7.09a.53.53,0,0,0,0,.75.5.5,0,0,0,.37.16.51.51,0,0,0,.38-.16L99,111.75l7.09,7.09a.51.51,0,0,0,.38.16.5.5,0,0,0,.37-.16.53.53,0,0,0,0-.75Z"/><path class="cls-3" d="M117,104a7,7,0,1,1-7,7,7,7,0,0,1,7-7m0-1a8,8,0,1,0,8,8,8,8,0,0,0-8-8Z"/><path class="cls-3" d="M135,103a8,8,0,1,0,8,8A8,8,0,0,0,135,103Zm0,15a7,7,0,1,1,7-7A7,7,0,0,1,135,118Z"/><circle class="cls-3" cx="135" cy="111" r="5"/><path class="cls-4" d="M153,121a8,8,0,0,0-6.87,3.9s0,.07,0,.1H146v-3.5a.5.5,0,0,0-1,0v4a.5.5,0,0,0,.5.5h4a.5.5,0,0,0,0-1h-2.23a7,7,0,1,1-1.27,4,.5.5,0,0,0-1,0,8,8,0,1,0,8-8Z"/><path class="cls-4" d="M16.85,136.15l-3.57-3.57A6.89,6.89,0,0,0,15,128a7,7,0,1,0-7,7,6.89,6.89,0,0,0,4.58-1.72l3.57,3.57a.48.48,0,0,0,.7,0A.48.48,0,0,0,16.85,136.15ZM12.45,132a3.05,3.05,0,0,1-.44.44A5.9,5.9,0,0,1,8,134a6,6,0,1,1,6-6A5.9,5.9,0,0,1,12.45,132Z"/><path class="cls-4" d="M34.5,132H33v-5.08A5.91,5.91,0,0,0,27.25,121h-.5A5.91,5.91,0,0,0,21,126.92V132H19.5a.5.5,0,0,0,0,1H24v1a3,3,0,0,0,6,0v-1h4.5a.5.5,0,0,0,0-1ZM29,134a2,2,0,0,1-4,0v-1h4Zm-7-2v-5.08A4.9,4.9,0,0,1,26.75,122h.5A4.9,4.9,0,0,1,32,126.92V132Z"/><path class="cls-4" d="M69.5,128H63v-6.5a.5.5,0,0,0-1,0V128H55.5a.5.5,0,0,0,0,1H62v6.5a.5.5,0,0,0,1,0V129h6.5a.5.5,0,0,0,0-1Z"/><path class="cls-4" d="M50.5,129a.5.5,0,0,0-.5.5V134H40V124h5.5a.5.5,0,0,0,0-1h-6a.5.5,0,0,0-.5.5v11a.5.5,0,0,0,.5.5h11a.5.5,0,0,0,.5-.5v-5A.5.5,0,0,0,50.5,129Z"/><path class="cls-4" d="M41.85,128.15a.49.49,0,0,0-.7.7l3,3a.47.47,0,0,0,.35.15h0a.49.49,0,0,0,.36-.2l6-8a.5.5,0,0,0-.1-.7.51.51,0,0,0-.7.1l-5.65,7.54Z"/><path class="cls-4" d="M82.5,137a.47.47,0,0,1-.35-.15l-3-3a.47.47,0,0,1-.15-.35v-5.79l-5.85-5.86a.47.47,0,0,1-.11-.54.5.5,0,0,1,.46-.31h15a.5.5,0,0,1,.46.31.47.47,0,0,1-.11.54L83,127.71v8.79a.5.5,0,0,1-.31.46A.43.43,0,0,1,82.5,137ZM80,133.29l2,2V127.5a.47.47,0,0,1,.15-.35L87.29,122H74.71l5.14,5.15a.47.47,0,0,1,.15.35Z"/><path class="cls-4" d="M99.75,129l7.09-7.09a.53.53,0,0,0-.75-.75L99,128.25l-7.09-7.09a.53.53,0,0,0-.75.75L98.25,129l-7.09,7.09a.53.53,0,0,0,0,.75.5.5,0,0,0,.37.16.51.51,0,0,0,.38-.16L99,129.75l7.09,7.09a.51.51,0,0,0,.38.16.5.5,0,0,0,.37-.16.53.53,0,0,0,0-.75Z"/><path class="cls-4" d="M117,122a7,7,0,1,1-7,7,7,7,0,0,1,7-7m0-1a8,8,0,1,0,8,8,8,8,0,0,0-8-8Z"/><path class="cls-4" d="M135,121a8,8,0,1,0,8,8A8,8,0,0,0,135,121Zm0,15a7,7,0,1,1,7-7A7,7,0,0,1,135,136Z"/><circle class="cls-4" cx="135" cy="129" r="5"/><path class="cls-1" d="M169,72.5a2.5,2.5,0,0,0-2-2.45V67.5a.5.5,0,0,0-1,0v2.55a2.5,2.5,0,0,0,0,4.9s0,0,0,0v7.5a.5.5,0,0,0,1,0V75s0,0,0,0A2.51,2.51,0,0,0,169,72.5ZM166.5,74a1.5,1.5,0,1,1,1.5-1.5A1.5,1.5,0,0,1,166.5,74Z"/><path class="cls-1" d="M179,72.5a2.5,2.5,0,0,0-2-2.45V67.5a.5.5,0,0,0-1,0v2.55a2.5,2.5,0,0,0,0,4.9s0,0,0,0v7.5a.5.5,0,0,0,1,0V75s0,0,0,0A2.51,2.51,0,0,0,179,72.5ZM176.5,74a1.5,1.5,0,1,1,1.5-1.5A1.5,1.5,0,0,1,176.5,74Z"/><path class="cls-1" d="M172,76.05V67.5a.5.5,0,0,0-1,0v8.55a2.5,2.5,0,0,0,0,4.9V82.5a.5.5,0,0,0,1,0V81a2.5,2.5,0,0,0,0-4.9Zm-.5,4a1.5,1.5,0,1,1,1.5-1.5A1.5,1.5,0,0,1,171.5,80Z"/><path class="cls-2" d="M169,90.5a2.5,2.5,0,0,0-2-2.45V85.5a.5.5,0,0,0-1,0v2.55a2.5,2.5,0,0,0,0,4.9s0,0,0,0v7.5a.5.5,0,0,0,1,0V93s0,0,0,0A2.51,2.51,0,0,0,169,90.5ZM166.5,92a1.5,1.5,0,1,1,1.5-1.5A1.5,1.5,0,0,1,166.5,92Z"/><path class="cls-2" d="M179,90.5a2.5,2.5,0,0,0-2-2.45V85.5a.5.5,0,0,0-1,0v2.55a2.5,2.5,0,0,0,0,4.9s0,0,0,0v7.5a.5.5,0,0,0,1,0V93s0,0,0,0A2.51,2.51,0,0,0,179,90.5ZM176.5,92a1.5,1.5,0,1,1,1.5-1.5A1.5,1.5,0,0,1,176.5,92Z"/><path class="cls-2" d="M172,94.05V85.5a.5.5,0,0,0-1,0v8.55a2.5,2.5,0,0,0,0,4.9v1.55a.5.5,0,0,0,1,0V99a2.5,2.5,0,0,0,0-4.9Zm-.5,4a1.5,1.5,0,1,1,1.5-1.5A1.5,1.5,0,0,1,171.5,98Z"/><path class="cls-3" d="M169,108.5a2.5,2.5,0,0,0-2-2.45V103.5a.5.5,0,0,0-1,0v2.55a2.5,2.5,0,0,0,0,4.9s0,0,0,0v7.5a.5.5,0,0,0,1,0V111s0,0,0,0A2.51,2.51,0,0,0,169,108.5Zm-2.5,1.5a1.5,1.5,0,1,1,1.5-1.5A1.5,1.5,0,0,1,166.5,110Z"/><path class="cls-3" d="M179,108.5a2.5,2.5,0,0,0-2-2.45V103.5a.5.5,0,0,0-1,0v2.55a2.5,2.5,0,0,0,0,4.9s0,0,0,0v7.5a.5.5,0,0,0,1,0V111s0,0,0,0A2.51,2.51,0,0,0,179,108.5Zm-2.5,1.5a1.5,1.5,0,1,1,1.5-1.5A1.5,1.5,0,0,1,176.5,110Z"/><path class="cls-3" d="M172,112.05V103.5a.5.5,0,0,0-1,0v8.55a2.5,2.5,0,0,0,0,4.9v1.55a.5.5,0,0,0,1,0V117a2.5,2.5,0,0,0,0-4.9Zm-.5,4a1.5,1.5,0,1,1,1.5-1.5A1.5,1.5,0,0,1,171.5,116Z"/><path class="cls-4" d="M169,126.5a2.5,2.5,0,0,0-2-2.45V121.5a.5.5,0,0,0-1,0v2.55a2.5,2.5,0,0,0,0,4.9s0,0,0,.05v7.5a.5.5,0,0,0,1,0V129s0,0,0-.05A2.51,2.51,0,0,0,169,126.5Zm-2.5,1.5a1.5,1.5,0,1,1,1.5-1.5A1.5,1.5,0,0,1,166.5,128Z"/><path class="cls-4" d="M179,126.5a2.5,2.5,0,0,0-2-2.45V121.5a.5.5,0,0,0-1,0v2.55a2.5,2.5,0,0,0,0,4.9s0,0,0,.05v7.5a.5.5,0,0,0,1,0V129s0,0,0-.05A2.51,2.51,0,0,0,179,126.5Zm-2.5,1.5a1.5,1.5,0,1,1,1.5-1.5A1.5,1.5,0,0,1,176.5,128Z"/><path class="cls-4" d="M172,130.05V121.5a.5.5,0,0,0-1,0v8.55a2.5,2.5,0,0,0,0,4.9v1.55a.5.5,0,0,0,1,0V135a2.5,2.5,0,0,0,0-4.9Zm-.5,3.95a1.5,1.5,0,1,1,1.5-1.5A1.5,1.5,0,0,1,171.5,134Z"/><path class="cls-1" d="M196.5,71h-5a.5.5,0,0,0,0,1H196v4h-8l-3-7.68a.5.5,0,0,0-.46-.32H181.5a.5.5,0,0,0,0,1h2.74l3,7.68a.51.51,0,0,0,.47.32h8.81a.5.5,0,0,0,.5-.5v-5A.5.5,0,0,0,196.5,71Z"/><path class="cls-1" d="M189,78a2,2,0,1,0,2,2A2,2,0,0,0,189,78Zm0,3a1,1,0,1,1,1-1A1,1,0,0,1,189,81Z"/><path class="cls-1" d="M195,78a2,2,0,1,0,2,2A2,2,0,0,0,195,78Zm0,3a1,1,0,1,1,1-1A1,1,0,0,1,195,81Z"/><path class="cls-2" d="M196.5,89h-5a.5.5,0,0,0,0,1H196v4h-8l-3-7.68a.5.5,0,0,0-.46-.32H181.5a.5.5,0,0,0,0,1h2.74l3,7.68a.51.51,0,0,0,.47.32h8.81a.5.5,0,0,0,.5-.5v-5A.5.5,0,0,0,196.5,89Z"/><path class="cls-2" d="M189,96a2,2,0,1,0,2,2A2,2,0,0,0,189,96Zm0,3a1,1,0,1,1,1-1A1,1,0,0,1,189,99Z"/><path class="cls-2" d="M195,96a2,2,0,1,0,2,2A2,2,0,0,0,195,96Zm0,3a1,1,0,1,1,1-1A1,1,0,0,1,195,99Z"/><path class="cls-3" d="M196.5,107h-5a.5.5,0,0,0,0,1H196v4h-8l-3-7.68a.5.5,0,0,0-.46-.32H181.5a.5.5,0,0,0,0,1h2.74l3,7.68a.51.51,0,0,0,.47.32h8.81a.5.5,0,0,0,.5-.5v-5A.5.5,0,0,0,196.5,107Z"/><path class="cls-3" d="M189,114a2,2,0,1,0,2,2A2,2,0,0,0,189,114Zm0,3a1,1,0,1,1,1-1A1,1,0,0,1,189,117Z"/><path class="cls-3" d="M195,114a2,2,0,1,0,2,2A2,2,0,0,0,195,114Zm0,3a1,1,0,1,1,1-1A1,1,0,0,1,195,117Z"/><path class="cls-4" d="M196.5,125h-5a.5.5,0,0,0,0,1H196v4h-8l-3-7.68a.5.5,0,0,0-.46-.32H181.5a.5.5,0,0,0,0,1h2.74l3,7.68a.51.51,0,0,0,.47.32h8.81a.5.5,0,0,0,.5-.5v-5A.5.5,0,0,0,196.5,125Z"/><path class="cls-4" d="M189,132a2,2,0,1,0,2,2A2,2,0,0,0,189,132Zm0,3a1,1,0,1,1,1-1A1,1,0,0,1,189,135Z"/><path class="cls-4" d="M195,132a2,2,0,1,0,2,2A2,2,0,0,0,195,132Zm0,3a1,1,0,1,1,1-1A1,1,0,0,1,195,135Z"/><path class="cls-1" d="M13,266.44A3.44,3.44,0,1,0,9.56,263,3.44,3.44,0,0,0,13,266.44Zm0-5.88A2.44,2.44,0,1,1,10.56,263,2.44,2.44,0,0,1,13,260.56Z"/><path class="cls-1" d="M5.32,264.1l1.51.59a6.37,6.37,0,0,0,.62,1.48l-.66,1.48a.52.52,0,0,0,.1.56l.9.9a.52.52,0,0,0,.56.1l1.48-.66a6.37,6.37,0,0,0,1.48.62l.59,1.51a.5.5,0,0,0,.46.32h1.28a.5.5,0,0,0,.46-.32l.59-1.51a6.37,6.37,0,0,0,1.48-.62l1.48.66a.52.52,0,0,0,.56-.1l.9-.9a.52.52,0,0,0,.1-.56l-.66-1.48a6.37,6.37,0,0,0,.62-1.48l1.51-.59a.5.5,0,0,0,.32-.46v-1.28a.5.5,0,0,0-.32-.46l-1.51-.59a6.37,6.37,0,0,0-.62-1.48l.66-1.48a.52.52,0,0,0-.1-.56l-.9-.9a.52.52,0,0,0-.56-.1l-1.48.66a6.37,6.37,0,0,0-1.48-.62l-.59-1.51a.5.5,0,0,0-.46-.32H12.36a.5.5,0,0,0-.46.32l-.59,1.51a6.37,6.37,0,0,0-1.48.62l-1.48-.66a.52.52,0,0,0-.56.1l-.9.9a.52.52,0,0,0-.1.56l.66,1.48a6.37,6.37,0,0,0-.62,1.48l-1.51.59a.5.5,0,0,0-.32.46v1.28A.5.5,0,0,0,5.32,264.1ZM6,262.71l1.43-.56a.48.48,0,0,0,.31-.35,5.67,5.67,0,0,1,.69-1.67.52.52,0,0,0,0-.47l-.63-1.4.42-.42,1.4.63a.49.49,0,0,0,.47,0,5.67,5.67,0,0,1,1.67-.69.48.48,0,0,0,.35-.31l.56-1.43h.58l.56,1.43a.48.48,0,0,0,.35.31,5.67,5.67,0,0,1,1.67.69.49.49,0,0,0,.47,0l1.4-.63.42.42-.63,1.4a.52.52,0,0,0,0,.47,5.67,5.67,0,0,1,.69,1.67.48.48,0,0,0,.31.35l1.43.56v.58l-1.43.56a.48.48,0,0,0-.31.35,5.67,5.67,0,0,1-.69,1.67.52.52,0,0,0,0,.47l.63,1.4-.42.42-1.4-.63a.49.49,0,0,0-.47,0,5.67,5.67,0,0,1-1.67.69.48.48,0,0,0-.35.31L13.29,270h-.58l-.56-1.43a.48.48,0,0,0-.35-.31,5.67,5.67,0,0,1-1.67-.69.49.49,0,0,0-.47,0l-1.4.63-.42-.42.63-1.4a.52.52,0,0,0,0-.47,5.67,5.67,0,0,1-.69-1.67.48.48,0,0,0-.31-.35L6,263.29Z"/><path class="cls-1" d="M23,271H17.75c-1.24.33-3.46,2-4.75,2h0c-1.33,0-3.63-1.67-4.91-2H3a2,2,0,0,0-2,2v4a2,2,0,0,0,2,2H23a2,2,0,0,0,2-2v-4A2,2,0,0,0,23,271Zm1,6a1,1,0,0,1-1,1H3a1,1,0,0,1-1-1v-4a1,1,0,0,1,1-1H7.94a12.28,12.28,0,0,1,1.63.76A8.42,8.42,0,0,0,13,274a8.12,8.12,0,0,0,3.31-1.24A11.48,11.48,0,0,1,17.9,272H23a1,1,0,0,1,1,1Z"/><path class="cls-1" d="M47.5,267h-17a.5.5,0,0,1,0-1h17a.5.5,0,0,1,0,1Z"/><path class="cls-1" d="M48.5,260H43v-1.94A2.08,2.08,0,0,0,40.9,256H37.1a2.08,2.08,0,0,0-2.1,2.06V260H29.5a2.5,2.5,0,0,0-2.5,2.5v13a2.5,2.5,0,0,0,2.5,2.5h19a2.5,2.5,0,0,0,2.5-2.5v-13A2.5,2.5,0,0,0,48.5,260ZM36,258.06A1.08,1.08,0,0,1,37.1,257h3.8a1.08,1.08,0,0,1,1.1,1.06V260H36ZM50,275.5a1.5,1.5,0,0,1-1.5,1.5h-19a1.5,1.5,0,0,1-1.5-1.5v-13a1.5,1.5,0,0,1,1.5-1.5h19a1.5,1.5,0,0,1,1.5,1.5Z"/><path class="cls-1" d="M112.5,266a3.49,3.49,0,0,1-2.47-6,3.57,3.57,0,0,1,4.94,0h0a3.5,3.5,0,0,1-2.47,6Zm0-6a2.5,2.5,0,0,0-1.77,4.27,2.57,2.57,0,0,0,3.54,0,2.51,2.51,0,0,0,0-3.54h0A2.49,2.49,0,0,0,112.5,260Z"/><path class="cls-1" d="M119.91,279a2.78,2.78,0,0,1-2-.82l-12.48-12.48a1.5,1.5,0,0,1-.44-1.06l0-7.13a2.5,2.5,0,0,1,2.49-2.49l6.71,0h0a2.47,2.47,0,0,1,1.76.74l12.19,12.18a2.79,2.79,0,0,1,.82,2,2.9,2.9,0,0,1-.85,2L122,278.13a2.87,2.87,0,0,1-2,.85Zm-5.68-23h0l-6.71,0a1.5,1.5,0,0,0-1.49,1.5l0,7.12a.47.47,0,0,0,.15.35l12.48,12.49a1.86,1.86,0,0,0,2.62,0l6.19-6.19a1.87,1.87,0,0,0,.56-1.32,1.81,1.81,0,0,0-.53-1.3l-12.18-12.19A1.52,1.52,0,0,0,114.23,256Z"/><path class="cls-1" d="M169,255a12,12,0,1,0,12,12A12,12,0,0,0,169,255Zm0,1a11,11,0,0,1,7.42,2.88L175,260.3a8.95,8.95,0,0,0-12,0l-1.43-1.43A11,11,0,0,1,169,256Zm0,22a11,11,0,0,1-8.12-18.42l1.7,1.7,0,0,0,0a.48.48,0,0,0,.7,0,8,8,0,0,1,11.28,0h0v0a.48.48,0,0,0,.7,0l1.77-1.77A11,11,0,0,1,169,278Z"/><path class="cls-1" d="M169,267.5a.47.47,0,0,1-.35-.15L164,263a.71.71,0,0,1,1-1l4.35,4.65a.48.48,0,0,1,0,.7A.47.47,0,0,1,169,267.5Z"/><path class="cls-1" d="M152.37,260.82l-4.37-5a2.22,2.22,0,0,0-1.67-.79h-11a2.41,2.41,0,0,0-2.3,2.5v19a2.41,2.41,0,0,0,2.3,2.5h15.39a2.41,2.41,0,0,0,2.31-2.5v-14A2.61,2.61,0,0,0,152.37,260.82ZM152,276.5a1.42,1.42,0,0,1-1.31,1.5H135.3a1.41,1.41,0,0,1-1.3-1.5v-19a1.41,1.41,0,0,1,1.3-1.5h11a1.22,1.22,0,0,1,.92.45l4.37,5a1.64,1.64,0,0,1,.38,1.06Z"/><path class="cls-1" d="M142.49,266.09a2.57,2.57,0,0,1,2.28,1.17,2.74,2.74,0,0,1-1.77,4.19v.6a.5.5,0,0,1-1,0v-.6a2.71,2.71,0,0,1-2.2-2.66.5.5,0,0,1,1,0,1.7,1.7,0,1,0,1.71-1.7,2.54,2.54,0,0,1-2.28-1.16,2.75,2.75,0,0,1,1.77-4.2v-.62a.5.5,0,0,1,1,0v.62a2.71,2.71,0,0,1,2.2,2.66.5.5,0,0,1-1,0,1.78,1.78,0,0,0-1.24-1.68,1.7,1.7,0,1,0-.47,3.34Z"/><path class="cls-1" d="M93.86,276.62a10.09,10.09,0,0,1-5.71-.06.51.51,0,0,0-.63.33.5.5,0,0,0,.33.62,11,11,0,0,0,3.25.49,11.26,11.26,0,0,0,3-.42.5.5,0,0,0,.34-.62A.5.5,0,0,0,93.86,276.62Z"/><path class="cls-1" d="M82.15,267.31l.12,0a.49.49,0,0,0,.48-.38,9.58,9.58,0,0,1,2.85-4.74.5.5,0,0,0,0-.71.5.5,0,0,0-.71,0,10.58,10.58,0,0,0-3.15,5.24A.5.5,0,0,0,82.15,267.31Z"/><path class="cls-1" d="M98.78,267a.51.51,0,0,0,.49.38l.12,0a.48.48,0,0,0,.36-.6,10.48,10.48,0,0,0-3.15-5.24.49.49,0,0,0-.7,0,.5.5,0,0,0,0,.71A9.44,9.44,0,0,1,98.78,267Z"/><path class="cls-1" d="M83,269a4,4,0,1,0,4,4A4,4,0,0,0,83,269Zm0,7a3,3,0,1,1,3-3A3,3,0,0,1,83,276Z"/><path class="cls-1" d="M99,269a4,4,0,1,0,4,4A4,4,0,0,0,99,269Zm0,7a3,3,0,1,1,3-3A3,3,0,0,1,99,276Z"/><path class="cls-1" d="M91,264a4,4,0,1,0-4-4A4,4,0,0,0,91,264Zm0-7a3,3,0,1,1-3,3A3,3,0,0,1,91,257Z"/><path class="cls-1" d="M67.5,266h8a1.5,1.5,0,0,0,1.34-2.17l-4-8a1.5,1.5,0,0,0-2.68,0l-4,8A1.5,1.5,0,0,0,67.5,266Zm-.44-1.72,4-8h0a.5.5,0,0,1,.9,0l4,8a.45.45,0,0,1,0,.48.48.48,0,0,1-.42.24h-8a.48.48,0,0,1-.42-.24A.45.45,0,0,1,67.06,264.28Z"/><path class="cls-1" d="M62,268H55a2,2,0,0,0-2,2v7a2,2,0,0,0,2,2h7a2,2,0,0,0,2-2v-7A2,2,0,0,0,62,268Zm1,9a1,1,0,0,1-1,1H55a1,1,0,0,1-1-1v-7a1,1,0,0,1,1-1h7a1,1,0,0,1,1,1Z"/><path class="cls-1" d="M58.5,255a5.5,5.5,0,1,0,5.5,5.5A5.5,5.5,0,0,0,58.5,255Zm0,10a4.5,4.5,0,1,1,4.5-4.5A4.51,4.51,0,0,1,58.5,265Z"/><path class="cls-1" d="M71.5,268a5.5,5.5,0,1,0,5.5,5.5A5.5,5.5,0,0,0,71.5,268Zm0,10a4.5,4.5,0,1,1,4.5-4.5A4.51,4.51,0,0,1,71.5,278Z"/><path class="cls-1" d="M13,292.44A3.44,3.44,0,1,0,9.56,289,3.44,3.44,0,0,0,13,292.44Zm0-5.88A2.44,2.44,0,1,1,10.56,289,2.44,2.44,0,0,1,13,286.56Z"/><path class="cls-1" d="M5.32,290.1l1.51.59a6.37,6.37,0,0,0,.62,1.48l-.66,1.48a.52.52,0,0,0,.1.56l.9.9a.52.52,0,0,0,.56.1l1.48-.66a6.37,6.37,0,0,0,1.48.62l.59,1.51a.5.5,0,0,0,.46.32h1.28a.5.5,0,0,0,.46-.32l.59-1.51a6.37,6.37,0,0,0,1.48-.62l1.48.66a.52.52,0,0,0,.56-.1l.9-.9a.52.52,0,0,0,.1-.56l-.66-1.48a6.37,6.37,0,0,0,.62-1.48l1.51-.59a.5.5,0,0,0,.32-.46v-1.28a.5.5,0,0,0-.32-.46l-1.51-.59a6.37,6.37,0,0,0-.62-1.48l.66-1.48a.52.52,0,0,0-.1-.56l-.9-.9a.52.52,0,0,0-.56-.1l-1.48.66a6.37,6.37,0,0,0-1.48-.62l-.59-1.51a.5.5,0,0,0-.46-.32H12.36a.5.5,0,0,0-.46.32l-.59,1.51a6.37,6.37,0,0,0-1.48.62l-1.48-.66a.52.52,0,0,0-.56.1l-.9.9a.52.52,0,0,0-.1.56l.66,1.48a6.37,6.37,0,0,0-.62,1.48l-1.51.59a.5.5,0,0,0-.32.46v1.28A.5.5,0,0,0,5.32,290.1ZM6,288.71l1.43-.56a.48.48,0,0,0,.31-.35,5.67,5.67,0,0,1,.69-1.67.52.52,0,0,0,0-.47l-.63-1.4.42-.42,1.4.63a.49.49,0,0,0,.47,0,5.67,5.67,0,0,1,1.67-.69.48.48,0,0,0,.35-.31l.56-1.43h.58l.56,1.43a.48.48,0,0,0,.35.31,5.67,5.67,0,0,1,1.67.69.49.49,0,0,0,.47,0l1.4-.63.42.42-.63,1.4a.52.52,0,0,0,0,.47,5.67,5.67,0,0,1,.69,1.67.48.48,0,0,0,.31.35l1.43.56v.58l-1.43.56a.48.48,0,0,0-.31.35,5.67,5.67,0,0,1-.69,1.67.52.52,0,0,0,0,.47l.63,1.4-.42.42-1.4-.63a.49.49,0,0,0-.47,0,5.67,5.67,0,0,1-1.67.69.48.48,0,0,0-.35.31L13.29,296h-.58l-.56-1.43a.48.48,0,0,0-.35-.31,5.67,5.67,0,0,1-1.67-.69.49.49,0,0,0-.47,0l-1.4.63-.42-.42.63-1.4a.52.52,0,0,0,0-.47,5.67,5.67,0,0,1-.69-1.67.48.48,0,0,0-.31-.35L6,289.29Z"/><path class="cls-1" d="M23,297H17.75c-1.24.33-3.46,2-4.75,2h0c-1.33,0-3.63-1.67-4.91-2H3a2,2,0,0,0-2,2v4a2,2,0,0,0,2,2H23a2,2,0,0,0,2-2v-4A2,2,0,0,0,23,297Zm1,6a1,1,0,0,1-1,1H3a1,1,0,0,1-1-1v-4a1,1,0,0,1,1-1H7.94a12.28,12.28,0,0,1,1.63.76A8.42,8.42,0,0,0,13,300a8.12,8.12,0,0,0,3.31-1.24A11.48,11.48,0,0,1,17.9,298H23a1,1,0,0,1,1,1Z"/><path class="cls-1" d="M47.5,293h-17a.5.5,0,0,1,0-1h17a.5.5,0,0,1,0,1Z"/><path class="cls-1" d="M48.5,286H43v-1.94A2.08,2.08,0,0,0,40.9,282H37.1a2.08,2.08,0,0,0-2.1,2.06V286H29.5a2.5,2.5,0,0,0-2.5,2.5v13a2.5,2.5,0,0,0,2.5,2.5h19a2.5,2.5,0,0,0,2.5-2.5v-13A2.5,2.5,0,0,0,48.5,286ZM36,284.06A1.08,1.08,0,0,1,37.1,283h3.8a1.08,1.08,0,0,1,1.1,1.06V286H36ZM50,301.5a1.5,1.5,0,0,1-1.5,1.5h-19a1.5,1.5,0,0,1-1.5-1.5v-13a1.5,1.5,0,0,1,1.5-1.5h19a1.5,1.5,0,0,1,1.5,1.5Z"/><path class="cls-1" d="M112.5,292a3.49,3.49,0,0,1-2.47-6,3.57,3.57,0,0,1,4.94,0h0a3.5,3.5,0,0,1-2.47,6Zm0-6a2.5,2.5,0,0,0-1.77,4.27,2.57,2.57,0,0,0,3.54,0,2.51,2.51,0,0,0,0-3.54h0A2.49,2.49,0,0,0,112.5,286Z"/><path class="cls-1" d="M119.91,305a2.78,2.78,0,0,1-2-.82l-12.48-12.48a1.5,1.5,0,0,1-.44-1.06l0-7.13a2.5,2.5,0,0,1,2.49-2.49l6.71,0h0a2.47,2.47,0,0,1,1.76.74l12.19,12.18a2.79,2.79,0,0,1,.82,2,2.9,2.9,0,0,1-.85,2L122,304.13a2.87,2.87,0,0,1-2,.85Zm-5.68-23h0l-6.71,0a1.5,1.5,0,0,0-1.49,1.5l0,7.12a.47.47,0,0,0,.15.35l12.48,12.49a1.86,1.86,0,0,0,2.62,0l6.19-6.19a1.87,1.87,0,0,0,.56-1.32,1.81,1.81,0,0,0-.53-1.3l-12.18-12.19A1.52,1.52,0,0,0,114.23,282Z"/><path class="cls-1" d="M169,281a12,12,0,1,0,12,12A12,12,0,0,0,169,281Zm0,1a11,11,0,0,1,7.42,2.88L175,286.3a8.95,8.95,0,0,0-12,0l-1.43-1.43A11,11,0,0,1,169,282Zm0,22a11,11,0,0,1-8.12-18.42l1.7,1.7,0,0,0,0a.48.48,0,0,0,.7,0,8,8,0,0,1,11.28,0h0v0a.48.48,0,0,0,.7,0l1.77-1.77A11,11,0,0,1,169,304Z"/><path class="cls-1" d="M169,293.5a.47.47,0,0,1-.35-.15L164,289a.71.71,0,0,1,1-1l4.35,4.65a.48.48,0,0,1,0,.7A.47.47,0,0,1,169,293.5Z"/><path class="cls-1" d="M152.37,286.82l-4.37-5a2.22,2.22,0,0,0-1.67-.79h-11a2.41,2.41,0,0,0-2.3,2.5v19a2.41,2.41,0,0,0,2.3,2.5h15.39a2.41,2.41,0,0,0,2.31-2.5v-14A2.61,2.61,0,0,0,152.37,286.82ZM152,302.5a1.42,1.42,0,0,1-1.31,1.5H135.3a1.41,1.41,0,0,1-1.3-1.5v-19a1.41,1.41,0,0,1,1.3-1.5h11a1.22,1.22,0,0,1,.92.45l4.37,5a1.64,1.64,0,0,1,.38,1.06Z"/><path class="cls-1" d="M142.49,292.09a2.57,2.57,0,0,1,2.28,1.17,2.74,2.74,0,0,1-1.77,4.19v.6a.5.5,0,0,1-1,0v-.6a2.71,2.71,0,0,1-2.2-2.66.5.5,0,0,1,1,0,1.7,1.7,0,1,0,1.71-1.7,2.54,2.54,0,0,1-2.28-1.16,2.75,2.75,0,0,1,1.77-4.2v-.62a.5.5,0,0,1,1,0v.62a2.71,2.71,0,0,1,2.2,2.66.5.5,0,0,1-1,0,1.78,1.78,0,0,0-1.24-1.68,1.7,1.7,0,1,0-.47,3.34Z"/><path class="cls-1" d="M93.86,302.62a10.09,10.09,0,0,1-5.71-.06.51.51,0,0,0-.63.33.5.5,0,0,0,.33.62,11,11,0,0,0,3.25.49,11.26,11.26,0,0,0,3-.42.5.5,0,0,0,.34-.62A.5.5,0,0,0,93.86,302.62Z"/><path class="cls-1" d="M82.15,293.31l.12,0a.49.49,0,0,0,.48-.38,9.58,9.58,0,0,1,2.85-4.74.5.5,0,0,0,0-.71.5.5,0,0,0-.71,0,10.58,10.58,0,0,0-3.15,5.24A.5.5,0,0,0,82.15,293.31Z"/><path class="cls-1" d="M98.78,293a.51.51,0,0,0,.49.38l.12,0a.48.48,0,0,0,.36-.6,10.48,10.48,0,0,0-3.15-5.24.49.49,0,0,0-.7,0,.5.5,0,0,0,0,.71A9.44,9.44,0,0,1,98.78,293Z"/><path class="cls-1" d="M83,295a4,4,0,1,0,4,4A4,4,0,0,0,83,295Zm0,7a3,3,0,1,1,3-3A3,3,0,0,1,83,302Z"/><path class="cls-1" d="M99,295a4,4,0,1,0,4,4A4,4,0,0,0,99,295Zm0,7a3,3,0,1,1,3-3A3,3,0,0,1,99,302Z"/><path class="cls-1" d="M91,290a4,4,0,1,0-4-4A4,4,0,0,0,91,290Zm0-7a3,3,0,1,1-3,3A3,3,0,0,1,91,283Z"/><path class="cls-1" d="M67.5,292h8a1.5,1.5,0,0,0,1.34-2.17l-4-8a1.5,1.5,0,0,0-2.68,0l-4,8A1.5,1.5,0,0,0,67.5,292Zm-.44-1.72,4-8h0a.5.5,0,0,1,.9,0l4,8a.45.45,0,0,1,0,.48.48.48,0,0,1-.42.24h-8a.48.48,0,0,1-.42-.24A.45.45,0,0,1,67.06,290.28Z"/><path class="cls-1" d="M62,294H55a2,2,0,0,0-2,2v7a2,2,0,0,0,2,2h7a2,2,0,0,0,2-2v-7A2,2,0,0,0,62,294Zm1,9a1,1,0,0,1-1,1H55a1,1,0,0,1-1-1v-7a1,1,0,0,1,1-1h7a1,1,0,0,1,1,1Z"/><path class="cls-1" d="M58.5,281a5.5,5.5,0,1,0,5.5,5.5A5.5,5.5,0,0,0,58.5,281Zm0,10a4.5,4.5,0,1,1,4.5-4.5A4.51,4.51,0,0,1,58.5,291Z"/><path class="cls-1" d="M71.5,294a5.5,5.5,0,1,0,5.5,5.5A5.5,5.5,0,0,0,71.5,294Zm0,10a4.5,4.5,0,1,1,4.5-4.5A4.51,4.51,0,0,1,71.5,304Z"/><path class="cls-2" d="M13,292.44A3.44,3.44,0,1,0,9.56,289,3.44,3.44,0,0,0,13,292.44Zm0-5.88A2.44,2.44,0,1,1,10.56,289,2.44,2.44,0,0,1,13,286.56Z"/><path class="cls-2" d="M5.32,290.1l1.51.59a6.37,6.37,0,0,0,.62,1.48l-.66,1.48a.52.52,0,0,0,.1.56l.9.9a.52.52,0,0,0,.56.1l1.48-.66a6.37,6.37,0,0,0,1.48.62l.59,1.51a.5.5,0,0,0,.46.32h1.28a.5.5,0,0,0,.46-.32l.59-1.51a6.37,6.37,0,0,0,1.48-.62l1.48.66a.52.52,0,0,0,.56-.1l.9-.9a.52.52,0,0,0,.1-.56l-.66-1.48a6.37,6.37,0,0,0,.62-1.48l1.51-.59a.5.5,0,0,0,.32-.46v-1.28a.5.5,0,0,0-.32-.46l-1.51-.59a6.37,6.37,0,0,0-.62-1.48l.66-1.48a.52.52,0,0,0-.1-.56l-.9-.9a.52.52,0,0,0-.56-.1l-1.48.66a6.37,6.37,0,0,0-1.48-.62l-.59-1.51a.5.5,0,0,0-.46-.32H12.36a.5.5,0,0,0-.46.32l-.59,1.51a6.37,6.37,0,0,0-1.48.62l-1.48-.66a.52.52,0,0,0-.56.1l-.9.9a.52.52,0,0,0-.1.56l.66,1.48a6.37,6.37,0,0,0-.62,1.48l-1.51.59a.5.5,0,0,0-.32.46v1.28A.5.5,0,0,0,5.32,290.1ZM6,288.71l1.43-.56a.48.48,0,0,0,.31-.35,5.67,5.67,0,0,1,.69-1.67.52.52,0,0,0,0-.47l-.63-1.4.42-.42,1.4.63a.49.49,0,0,0,.47,0,5.67,5.67,0,0,1,1.67-.69.48.48,0,0,0,.35-.31l.56-1.43h.58l.56,1.43a.48.48,0,0,0,.35.31,5.67,5.67,0,0,1,1.67.69.49.49,0,0,0,.47,0l1.4-.63.42.42-.63,1.4a.52.52,0,0,0,0,.47,5.67,5.67,0,0,1,.69,1.67.48.48,0,0,0,.31.35l1.43.56v.58l-1.43.56a.48.48,0,0,0-.31.35,5.67,5.67,0,0,1-.69,1.67.52.52,0,0,0,0,.47l.63,1.4-.42.42-1.4-.63a.49.49,0,0,0-.47,0,5.67,5.67,0,0,1-1.67.69.48.48,0,0,0-.35.31L13.29,296h-.58l-.56-1.43a.48.48,0,0,0-.35-.31,5.67,5.67,0,0,1-1.67-.69.49.49,0,0,0-.47,0l-1.4.63-.42-.42.63-1.4a.52.52,0,0,0,0-.47,5.67,5.67,0,0,1-.69-1.67.48.48,0,0,0-.31-.35L6,289.29Z"/><path class="cls-2" d="M23,297H17.75c-1.24.33-3.46,2-4.75,2h0c-1.33,0-3.63-1.67-4.91-2H3a2,2,0,0,0-2,2v4a2,2,0,0,0,2,2H23a2,2,0,0,0,2-2v-4A2,2,0,0,0,23,297Zm1,6a1,1,0,0,1-1,1H3a1,1,0,0,1-1-1v-4a1,1,0,0,1,1-1H7.94a12.28,12.28,0,0,1,1.63.76A8.42,8.42,0,0,0,13,300a8.12,8.12,0,0,0,3.31-1.24A11.48,11.48,0,0,1,17.9,298H23a1,1,0,0,1,1,1Z"/><path class="cls-2" d="M47.5,293h-17a.5.5,0,0,1,0-1h17a.5.5,0,0,1,0,1Z"/><path class="cls-2" d="M48.5,286H43v-1.94A2.08,2.08,0,0,0,40.9,282H37.1a2.08,2.08,0,0,0-2.1,2.06V286H29.5a2.5,2.5,0,0,0-2.5,2.5v13a2.5,2.5,0,0,0,2.5,2.5h19a2.5,2.5,0,0,0,2.5-2.5v-13A2.5,2.5,0,0,0,48.5,286ZM36,284.06A1.08,1.08,0,0,1,37.1,283h3.8a1.08,1.08,0,0,1,1.1,1.06V286H36ZM50,301.5a1.5,1.5,0,0,1-1.5,1.5h-19a1.5,1.5,0,0,1-1.5-1.5v-13a1.5,1.5,0,0,1,1.5-1.5h19a1.5,1.5,0,0,1,1.5,1.5Z"/><path class="cls-2" d="M112.5,292a3.49,3.49,0,0,1-2.47-6,3.57,3.57,0,0,1,4.94,0h0a3.5,3.5,0,0,1-2.47,6Zm0-6a2.5,2.5,0,0,0-1.77,4.27,2.57,2.57,0,0,0,3.54,0,2.51,2.51,0,0,0,0-3.54h0A2.49,2.49,0,0,0,112.5,286Z"/><path class="cls-2" d="M119.91,305a2.78,2.78,0,0,1-2-.82l-12.48-12.48a1.5,1.5,0,0,1-.44-1.06l0-7.13a2.5,2.5,0,0,1,2.49-2.49l6.71,0h0a2.47,2.47,0,0,1,1.76.74l12.19,12.18a2.79,2.79,0,0,1,.82,2,2.9,2.9,0,0,1-.85,2L122,304.13a2.87,2.87,0,0,1-2,.85Zm-5.68-23h0l-6.71,0a1.5,1.5,0,0,0-1.49,1.5l0,7.12a.47.47,0,0,0,.15.35l12.48,12.49a1.86,1.86,0,0,0,2.62,0l6.19-6.19a1.87,1.87,0,0,0,.56-1.32,1.81,1.81,0,0,0-.53-1.3l-12.18-12.19A1.52,1.52,0,0,0,114.23,282Z"/><path class="cls-2" d="M169,281a12,12,0,1,0,12,12A12,12,0,0,0,169,281Zm0,1a11,11,0,0,1,7.42,2.88L175,286.3a8.95,8.95,0,0,0-12,0l-1.43-1.43A11,11,0,0,1,169,282Zm0,22a11,11,0,0,1-8.12-18.42l1.7,1.7,0,0,0,0a.48.48,0,0,0,.7,0,8,8,0,0,1,11.28,0h0v0a.48.48,0,0,0,.7,0l1.77-1.77A11,11,0,0,1,169,304Z"/><path class="cls-2" d="M169,293.5a.47.47,0,0,1-.35-.15L164,289a.71.71,0,0,1,1-1l4.35,4.65a.48.48,0,0,1,0,.7A.47.47,0,0,1,169,293.5Z"/><path class="cls-2" d="M152.37,286.82l-4.37-5a2.22,2.22,0,0,0-1.67-.79h-11a2.41,2.41,0,0,0-2.3,2.5v19a2.41,2.41,0,0,0,2.3,2.5h15.39a2.41,2.41,0,0,0,2.31-2.5v-14A2.61,2.61,0,0,0,152.37,286.82ZM152,302.5a1.42,1.42,0,0,1-1.31,1.5H135.3a1.41,1.41,0,0,1-1.3-1.5v-19a1.41,1.41,0,0,1,1.3-1.5h11a1.22,1.22,0,0,1,.92.45l4.37,5a1.64,1.64,0,0,1,.38,1.06Z"/><path class="cls-2" d="M142.49,292.09a2.57,2.57,0,0,1,2.28,1.17,2.74,2.74,0,0,1-1.77,4.19v.6a.5.5,0,0,1-1,0v-.6a2.71,2.71,0,0,1-2.2-2.66.5.5,0,0,1,1,0,1.7,1.7,0,1,0,1.71-1.7,2.54,2.54,0,0,1-2.28-1.16,2.75,2.75,0,0,1,1.77-4.2v-.62a.5.5,0,0,1,1,0v.62a2.71,2.71,0,0,1,2.2,2.66.5.5,0,0,1-1,0,1.78,1.78,0,0,0-1.24-1.68,1.7,1.7,0,1,0-.47,3.34Z"/><path class="cls-2" d="M93.86,302.62a10.09,10.09,0,0,1-5.71-.06.51.51,0,0,0-.63.33.5.5,0,0,0,.33.62,11,11,0,0,0,3.25.49,11.26,11.26,0,0,0,3-.42.5.5,0,0,0,.34-.62A.5.5,0,0,0,93.86,302.62Z"/><path class="cls-2" d="M82.15,293.31l.12,0a.49.49,0,0,0,.48-.38,9.58,9.58,0,0,1,2.85-4.74.5.5,0,0,0,0-.71.5.5,0,0,0-.71,0,10.58,10.58,0,0,0-3.15,5.24A.5.5,0,0,0,82.15,293.31Z"/><path class="cls-2" d="M98.78,293a.51.51,0,0,0,.49.38l.12,0a.48.48,0,0,0,.36-.6,10.48,10.48,0,0,0-3.15-5.24.49.49,0,0,0-.7,0,.5.5,0,0,0,0,.71A9.44,9.44,0,0,1,98.78,293Z"/><path class="cls-2" d="M83,295a4,4,0,1,0,4,4A4,4,0,0,0,83,295Zm0,7a3,3,0,1,1,3-3A3,3,0,0,1,83,302Z"/><path class="cls-2" d="M99,295a4,4,0,1,0,4,4A4,4,0,0,0,99,295Zm0,7a3,3,0,1,1,3-3A3,3,0,0,1,99,302Z"/><path class="cls-2" d="M91,290a4,4,0,1,0-4-4A4,4,0,0,0,91,290Zm0-7a3,3,0,1,1-3,3A3,3,0,0,1,91,283Z"/><path class="cls-2" d="M67.5,292h8a1.5,1.5,0,0,0,1.34-2.17l-4-8a1.5,1.5,0,0,0-2.68,0l-4,8A1.5,1.5,0,0,0,67.5,292Zm-.44-1.72,4-8h0a.5.5,0,0,1,.9,0l4,8a.45.45,0,0,1,0,.48.48.48,0,0,1-.42.24h-8a.48.48,0,0,1-.42-.24A.45.45,0,0,1,67.06,290.28Z"/><path class="cls-2" d="M62,294H55a2,2,0,0,0-2,2v7a2,2,0,0,0,2,2h7a2,2,0,0,0,2-2v-7A2,2,0,0,0,62,294Zm1,9a1,1,0,0,1-1,1H55a1,1,0,0,1-1-1v-7a1,1,0,0,1,1-1h7a1,1,0,0,1,1,1Z"/><path class="cls-2" d="M58.5,281a5.5,5.5,0,1,0,5.5,5.5A5.5,5.5,0,0,0,58.5,281Zm0,10a4.5,4.5,0,1,1,4.5-4.5A4.51,4.51,0,0,1,58.5,291Z"/><path class="cls-2" d="M71.5,294a5.5,5.5,0,1,0,5.5,5.5A5.5,5.5,0,0,0,71.5,294Zm0,10a4.5,4.5,0,1,1,4.5-4.5A4.51,4.51,0,0,1,71.5,304Z"/><path class="cls-3" d="M13,318.44A3.44,3.44,0,1,0,9.56,315,3.44,3.44,0,0,0,13,318.44Zm0-5.88A2.44,2.44,0,1,1,10.56,315,2.44,2.44,0,0,1,13,312.56Z"/><path class="cls-3" d="M5.32,316.1l1.51.59a6.37,6.37,0,0,0,.62,1.48l-.66,1.48a.52.52,0,0,0,.1.56l.9.9a.52.52,0,0,0,.56.1l1.48-.66a6.37,6.37,0,0,0,1.48.62l.59,1.51a.5.5,0,0,0,.46.32h1.28a.5.5,0,0,0,.46-.32l.59-1.51a6.37,6.37,0,0,0,1.48-.62l1.48.66a.52.52,0,0,0,.56-.1l.9-.9a.52.52,0,0,0,.1-.56l-.66-1.48a6.37,6.37,0,0,0,.62-1.48l1.51-.59a.5.5,0,0,0,.32-.46v-1.28a.5.5,0,0,0-.32-.46l-1.51-.59a6.37,6.37,0,0,0-.62-1.48l.66-1.48a.52.52,0,0,0-.1-.56l-.9-.9a.52.52,0,0,0-.56-.1l-1.48.66a6.37,6.37,0,0,0-1.48-.62l-.59-1.51a.5.5,0,0,0-.46-.32H12.36a.5.5,0,0,0-.46.32l-.59,1.51a6.37,6.37,0,0,0-1.48.62l-1.48-.66a.52.52,0,0,0-.56.1l-.9.9a.52.52,0,0,0-.1.56l.66,1.48a6.37,6.37,0,0,0-.62,1.48l-1.51.59a.5.5,0,0,0-.32.46v1.28A.5.5,0,0,0,5.32,316.1ZM6,314.71l1.43-.56a.48.48,0,0,0,.31-.35,5.67,5.67,0,0,1,.69-1.67.52.52,0,0,0,0-.47l-.63-1.4.42-.42,1.4.63a.49.49,0,0,0,.47,0,5.67,5.67,0,0,1,1.67-.69.48.48,0,0,0,.35-.31l.56-1.43h.58l.56,1.43a.48.48,0,0,0,.35.31,5.67,5.67,0,0,1,1.67.69.49.49,0,0,0,.47,0l1.4-.63.42.42-.63,1.4a.52.52,0,0,0,0,.47,5.67,5.67,0,0,1,.69,1.67.48.48,0,0,0,.31.35l1.43.56v.58l-1.43.56a.48.48,0,0,0-.31.35,5.67,5.67,0,0,1-.69,1.67.52.52,0,0,0,0,.47l.63,1.4-.42.42-1.4-.63a.49.49,0,0,0-.47,0,5.67,5.67,0,0,1-1.67.69.48.48,0,0,0-.35.31L13.29,322h-.58l-.56-1.43a.48.48,0,0,0-.35-.31,5.67,5.67,0,0,1-1.67-.69.49.49,0,0,0-.47,0l-1.4.63-.42-.42.63-1.4a.52.52,0,0,0,0-.47,5.67,5.67,0,0,1-.69-1.67.48.48,0,0,0-.31-.35L6,315.29Z"/><path class="cls-3" d="M23,323H17.75c-1.24.33-3.46,2-4.75,2h0c-1.33,0-3.63-1.67-4.91-2H3a2,2,0,0,0-2,2v4a2,2,0,0,0,2,2H23a2,2,0,0,0,2-2v-4A2,2,0,0,0,23,323Zm1,6a1,1,0,0,1-1,1H3a1,1,0,0,1-1-1v-4a1,1,0,0,1,1-1H7.94a12.28,12.28,0,0,1,1.63.76A8.42,8.42,0,0,0,13,326a8.12,8.12,0,0,0,3.31-1.24A11.48,11.48,0,0,1,17.9,324H23a1,1,0,0,1,1,1Z"/><path class="cls-3" d="M47.5,319h-17a.5.5,0,0,1,0-1h17a.5.5,0,0,1,0,1Z"/><path class="cls-3" d="M48.5,312H43v-1.94A2.08,2.08,0,0,0,40.9,308H37.1a2.08,2.08,0,0,0-2.1,2.06V312H29.5a2.5,2.5,0,0,0-2.5,2.5v13a2.5,2.5,0,0,0,2.5,2.5h19a2.5,2.5,0,0,0,2.5-2.5v-13A2.5,2.5,0,0,0,48.5,312ZM36,310.06A1.08,1.08,0,0,1,37.1,309h3.8a1.08,1.08,0,0,1,1.1,1.06V312H36ZM50,327.5a1.5,1.5,0,0,1-1.5,1.5h-19a1.5,1.5,0,0,1-1.5-1.5v-13a1.5,1.5,0,0,1,1.5-1.5h19a1.5,1.5,0,0,1,1.5,1.5Z"/><path class="cls-3" d="M112.5,318a3.49,3.49,0,0,1-2.47-6,3.57,3.57,0,0,1,4.94,0h0a3.5,3.5,0,0,1-2.47,6Zm0-6a2.5,2.5,0,0,0-1.77,4.27,2.57,2.57,0,0,0,3.54,0,2.51,2.51,0,0,0,0-3.54h0A2.49,2.49,0,0,0,112.5,312Z"/><path class="cls-3" d="M119.91,331a2.78,2.78,0,0,1-2-.82l-12.48-12.48a1.5,1.5,0,0,1-.44-1.06l0-7.13a2.5,2.5,0,0,1,2.49-2.49l6.71,0h0a2.47,2.47,0,0,1,1.76.74l12.19,12.18a2.79,2.79,0,0,1,.82,2,2.9,2.9,0,0,1-.85,2L122,330.13a2.87,2.87,0,0,1-2,.85Zm-5.68-23h0l-6.71,0a1.5,1.5,0,0,0-1.49,1.5l0,7.12a.47.47,0,0,0,.15.35l12.48,12.49a1.86,1.86,0,0,0,2.62,0l6.19-6.19a1.87,1.87,0,0,0,.56-1.32,1.81,1.81,0,0,0-.53-1.3l-12.18-12.19A1.52,1.52,0,0,0,114.23,308Z"/><path class="cls-3" d="M169,307a12,12,0,1,0,12,12A12,12,0,0,0,169,307Zm0,1a11,11,0,0,1,7.42,2.88L175,312.3a8.95,8.95,0,0,0-12,0l-1.43-1.43A11,11,0,0,1,169,308Zm0,22a11,11,0,0,1-8.12-18.42l1.7,1.7,0,0,0,0a.48.48,0,0,0,.7,0,8,8,0,0,1,11.28,0h0v0a.48.48,0,0,0,.7,0l1.77-1.77A11,11,0,0,1,169,330Z"/><path class="cls-3" d="M169,319.5a.47.47,0,0,1-.35-.15L164,315a.71.71,0,0,1,1-1l4.35,4.65a.48.48,0,0,1,0,.7A.47.47,0,0,1,169,319.5Z"/><path class="cls-3" d="M152.37,312.82l-4.37-5a2.22,2.22,0,0,0-1.67-.79h-11a2.41,2.41,0,0,0-2.3,2.5v19a2.41,2.41,0,0,0,2.3,2.5h15.39a2.41,2.41,0,0,0,2.31-2.5v-14A2.61,2.61,0,0,0,152.37,312.82ZM152,328.5a1.42,1.42,0,0,1-1.31,1.5H135.3a1.41,1.41,0,0,1-1.3-1.5v-19a1.41,1.41,0,0,1,1.3-1.5h11a1.22,1.22,0,0,1,.92.45l4.37,5a1.64,1.64,0,0,1,.38,1.06Z"/><path class="cls-3" d="M142.49,318.09a2.57,2.57,0,0,1,2.28,1.17,2.74,2.74,0,0,1-1.77,4.19v.6a.5.5,0,0,1-1,0v-.6a2.71,2.71,0,0,1-2.2-2.66.5.5,0,0,1,1,0,1.7,1.7,0,1,0,1.71-1.7,2.54,2.54,0,0,1-2.28-1.16,2.75,2.75,0,0,1,1.77-4.2v-.62a.5.5,0,0,1,1,0v.62a2.71,2.71,0,0,1,2.2,2.66.5.5,0,0,1-1,0,1.78,1.78,0,0,0-1.24-1.68,1.7,1.7,0,1,0-.47,3.34Z"/><path class="cls-3" d="M93.86,328.62a10.09,10.09,0,0,1-5.71-.06.51.51,0,0,0-.63.33.5.5,0,0,0,.33.62,11,11,0,0,0,3.25.49,11.26,11.26,0,0,0,3-.42.5.5,0,0,0,.34-.62A.5.5,0,0,0,93.86,328.62Z"/><path class="cls-3" d="M82.15,319.31l.12,0a.49.49,0,0,0,.48-.38,9.58,9.58,0,0,1,2.85-4.74.5.5,0,0,0,0-.71.5.5,0,0,0-.71,0,10.58,10.58,0,0,0-3.15,5.24A.5.5,0,0,0,82.15,319.31Z"/><path class="cls-3" d="M98.78,319a.51.51,0,0,0,.49.38l.12,0a.48.48,0,0,0,.36-.6,10.48,10.48,0,0,0-3.15-5.24.49.49,0,0,0-.7,0,.5.5,0,0,0,0,.71A9.44,9.44,0,0,1,98.78,319Z"/><path class="cls-3" d="M83,321a4,4,0,1,0,4,4A4,4,0,0,0,83,321Zm0,7a3,3,0,1,1,3-3A3,3,0,0,1,83,328Z"/><path class="cls-3" d="M99,321a4,4,0,1,0,4,4A4,4,0,0,0,99,321Zm0,7a3,3,0,1,1,3-3A3,3,0,0,1,99,328Z"/><path class="cls-3" d="M91,316a4,4,0,1,0-4-4A4,4,0,0,0,91,316Zm0-7a3,3,0,1,1-3,3A3,3,0,0,1,91,309Z"/><path class="cls-3" d="M67.5,318h8a1.5,1.5,0,0,0,1.34-2.17l-4-8a1.5,1.5,0,0,0-2.68,0l-4,8A1.5,1.5,0,0,0,67.5,318Zm-.44-1.72,4-8h0a.5.5,0,0,1,.9,0l4,8a.45.45,0,0,1,0,.48.48.48,0,0,1-.42.24h-8a.48.48,0,0,1-.42-.24A.45.45,0,0,1,67.06,316.28Z"/><path class="cls-3" d="M62,320H55a2,2,0,0,0-2,2v7a2,2,0,0,0,2,2h7a2,2,0,0,0,2-2v-7A2,2,0,0,0,62,320Zm1,9a1,1,0,0,1-1,1H55a1,1,0,0,1-1-1v-7a1,1,0,0,1,1-1h7a1,1,0,0,1,1,1Z"/><path class="cls-3" d="M58.5,307a5.5,5.5,0,1,0,5.5,5.5A5.5,5.5,0,0,0,58.5,307Zm0,10a4.5,4.5,0,1,1,4.5-4.5A4.51,4.51,0,0,1,58.5,317Z"/><path class="cls-3" d="M71.5,320a5.5,5.5,0,1,0,5.5,5.5A5.5,5.5,0,0,0,71.5,320Zm0,10a4.5,4.5,0,1,1,4.5-4.5A4.51,4.51,0,0,1,71.5,330Z"/><path class="cls-4" d="M13,344.44A3.44,3.44,0,1,0,9.56,341,3.44,3.44,0,0,0,13,344.44Zm0-5.88A2.44,2.44,0,1,1,10.56,341,2.44,2.44,0,0,1,13,338.56Z"/><path class="cls-4" d="M5.32,342.1l1.51.59a6.37,6.37,0,0,0,.62,1.48l-.66,1.48a.52.52,0,0,0,.1.56l.9.9a.52.52,0,0,0,.56.1l1.48-.66a6.37,6.37,0,0,0,1.48.62l.59,1.51a.5.5,0,0,0,.46.32h1.28a.5.5,0,0,0,.46-.32l.59-1.51a6.37,6.37,0,0,0,1.48-.62l1.48.66a.52.52,0,0,0,.56-.1l.9-.9a.52.52,0,0,0,.1-.56l-.66-1.48a6.37,6.37,0,0,0,.62-1.48l1.51-.59a.5.5,0,0,0,.32-.46v-1.28a.5.5,0,0,0-.32-.46l-1.51-.59a6.37,6.37,0,0,0-.62-1.48l.66-1.48a.52.52,0,0,0-.1-.56l-.9-.9a.52.52,0,0,0-.56-.1l-1.48.66a6.37,6.37,0,0,0-1.48-.62l-.59-1.51a.5.5,0,0,0-.46-.32H12.36a.5.5,0,0,0-.46.32l-.59,1.51a6.37,6.37,0,0,0-1.48.62l-1.48-.66a.52.52,0,0,0-.56.1l-.9.9a.52.52,0,0,0-.1.56l.66,1.48a6.37,6.37,0,0,0-.62,1.48l-1.51.59a.5.5,0,0,0-.32.46v1.28A.5.5,0,0,0,5.32,342.1ZM6,340.71l1.43-.56a.48.48,0,0,0,.31-.35,5.67,5.67,0,0,1,.69-1.67.52.52,0,0,0,0-.47l-.63-1.4.42-.42,1.4.63a.49.49,0,0,0,.47,0,5.67,5.67,0,0,1,1.67-.69.48.48,0,0,0,.35-.31l.56-1.43h.58l.56,1.43a.48.48,0,0,0,.35.31,5.67,5.67,0,0,1,1.67.69.49.49,0,0,0,.47,0l1.4-.63.42.42-.63,1.4a.52.52,0,0,0,0,.47,5.67,5.67,0,0,1,.69,1.67.48.48,0,0,0,.31.35l1.43.56v.58l-1.43.56a.48.48,0,0,0-.31.35,5.67,5.67,0,0,1-.69,1.67.52.52,0,0,0,0,.47l.63,1.4-.42.42-1.4-.63a.49.49,0,0,0-.47,0,5.67,5.67,0,0,1-1.67.69.48.48,0,0,0-.35.31L13.29,348h-.58l-.56-1.43a.48.48,0,0,0-.35-.31,5.67,5.67,0,0,1-1.67-.69.49.49,0,0,0-.47,0l-1.4.63-.42-.42.63-1.4a.52.52,0,0,0,0-.47,5.67,5.67,0,0,1-.69-1.67.48.48,0,0,0-.31-.35L6,341.29Z"/><path class="cls-4" d="M23,349H17.75c-1.24.33-3.46,2-4.75,2h0c-1.33,0-3.63-1.67-4.91-2H3a2,2,0,0,0-2,2v4a2,2,0,0,0,2,2H23a2,2,0,0,0,2-2v-4A2,2,0,0,0,23,349Zm1,6a1,1,0,0,1-1,1H3a1,1,0,0,1-1-1v-4a1,1,0,0,1,1-1H7.94a12.28,12.28,0,0,1,1.63.76A8.42,8.42,0,0,0,13,352a8.12,8.12,0,0,0,3.31-1.24A11.48,11.48,0,0,1,17.9,350H23a1,1,0,0,1,1,1Z"/><path class="cls-4" d="M47.5,345h-17a.5.5,0,0,1,0-1h17a.5.5,0,0,1,0,1Z"/><path class="cls-4" d="M48.5,338H43v-1.94A2.08,2.08,0,0,0,40.9,334H37.1a2.08,2.08,0,0,0-2.1,2.06V338H29.5a2.5,2.5,0,0,0-2.5,2.5v13a2.5,2.5,0,0,0,2.5,2.5h19a2.5,2.5,0,0,0,2.5-2.5v-13A2.5,2.5,0,0,0,48.5,338ZM36,336.06A1.08,1.08,0,0,1,37.1,335h3.8a1.08,1.08,0,0,1,1.1,1.06V338H36ZM50,353.5a1.5,1.5,0,0,1-1.5,1.5h-19a1.5,1.5,0,0,1-1.5-1.5v-13a1.5,1.5,0,0,1,1.5-1.5h19a1.5,1.5,0,0,1,1.5,1.5Z"/><path class="cls-4" d="M112.5,344a3.49,3.49,0,0,1-2.47-6,3.57,3.57,0,0,1,4.94,0h0a3.5,3.5,0,0,1-2.47,6Zm0-6a2.5,2.5,0,0,0-1.77,4.27,2.57,2.57,0,0,0,3.54,0,2.51,2.51,0,0,0,0-3.54h0A2.49,2.49,0,0,0,112.5,338Z"/><path class="cls-4" d="M119.91,357a2.78,2.78,0,0,1-2-.82l-12.48-12.48a1.5,1.5,0,0,1-.44-1.06l0-7.13a2.5,2.5,0,0,1,2.49-2.49l6.71,0h0a2.47,2.47,0,0,1,1.76.74l12.19,12.18a2.79,2.79,0,0,1,.82,2,2.9,2.9,0,0,1-.85,2L122,356.13a2.87,2.87,0,0,1-2,.85Zm-5.68-23h0l-6.71,0a1.5,1.5,0,0,0-1.49,1.5l0,7.12a.47.47,0,0,0,.15.35l12.48,12.49a1.86,1.86,0,0,0,2.62,0l6.19-6.19a1.87,1.87,0,0,0,.56-1.32,1.81,1.81,0,0,0-.53-1.3l-12.18-12.19A1.52,1.52,0,0,0,114.23,334Z"/><path class="cls-4" d="M169,333a12,12,0,1,0,12,12A12,12,0,0,0,169,333Zm0,1a11,11,0,0,1,7.42,2.88L175,338.3a8.95,8.95,0,0,0-12,0l-1.43-1.43A11,11,0,0,1,169,334Zm0,22a11,11,0,0,1-8.12-18.42l1.7,1.7,0,0,0,0a.48.48,0,0,0,.7,0,8,8,0,0,1,11.28,0h0v0a.48.48,0,0,0,.7,0l1.77-1.77A11,11,0,0,1,169,356Z"/><path class="cls-4" d="M169,345.5a.47.47,0,0,1-.35-.15L164,341a.71.71,0,0,1,1-1l4.35,4.65a.48.48,0,0,1,0,.7A.47.47,0,0,1,169,345.5Z"/><path class="cls-4" d="M152.37,338.82l-4.37-5a2.22,2.22,0,0,0-1.67-.79h-11a2.41,2.41,0,0,0-2.3,2.5v19a2.41,2.41,0,0,0,2.3,2.5h15.39a2.41,2.41,0,0,0,2.31-2.5v-14A2.61,2.61,0,0,0,152.37,338.82ZM152,354.5a1.42,1.42,0,0,1-1.31,1.5H135.3a1.41,1.41,0,0,1-1.3-1.5v-19a1.41,1.41,0,0,1,1.3-1.5h11a1.22,1.22,0,0,1,.92.45l4.37,5a1.64,1.64,0,0,1,.38,1.06Z"/><path class="cls-4" d="M142.49,344.09a2.57,2.57,0,0,1,2.28,1.17,2.74,2.74,0,0,1-1.77,4.19v.6a.5.5,0,0,1-1,0v-.6a2.71,2.71,0,0,1-2.2-2.66.5.5,0,0,1,1,0,1.7,1.7,0,1,0,1.71-1.7,2.54,2.54,0,0,1-2.28-1.16,2.75,2.75,0,0,1,1.77-4.2v-.62a.5.5,0,0,1,1,0v.62a2.71,2.71,0,0,1,2.2,2.66.5.5,0,0,1-1,0,1.78,1.78,0,0,0-1.24-1.68,1.7,1.7,0,1,0-.47,3.34Z"/><path class="cls-4" d="M93.86,354.62a10.09,10.09,0,0,1-5.71-.06.51.51,0,0,0-.63.33.5.5,0,0,0,.33.62,11,11,0,0,0,3.25.49,11.26,11.26,0,0,0,3-.42.5.5,0,0,0,.34-.62A.5.5,0,0,0,93.86,354.62Z"/><path class="cls-4" d="M82.15,345.31l.12,0a.49.49,0,0,0,.48-.38,9.58,9.58,0,0,1,2.85-4.74.5.5,0,0,0,0-.71.5.5,0,0,0-.71,0,10.58,10.58,0,0,0-3.15,5.24A.5.5,0,0,0,82.15,345.31Z"/><path class="cls-4" d="M98.78,345a.51.51,0,0,0,.49.38l.12,0a.48.48,0,0,0,.36-.6,10.48,10.48,0,0,0-3.15-5.24.49.49,0,0,0-.7,0,.5.5,0,0,0,0,.71A9.44,9.44,0,0,1,98.78,345Z"/><path class="cls-4" d="M83,347a4,4,0,1,0,4,4A4,4,0,0,0,83,347Zm0,7a3,3,0,1,1,3-3A3,3,0,0,1,83,354Z"/><path class="cls-4" d="M99,347a4,4,0,1,0,4,4A4,4,0,0,0,99,347Zm0,7a3,3,0,1,1,3-3A3,3,0,0,1,99,354Z"/><path class="cls-4" d="M91,342a4,4,0,1,0-4-4A4,4,0,0,0,91,342Zm0-7a3,3,0,1,1-3,3A3,3,0,0,1,91,335Z"/><path class="cls-4" d="M67.5,344h8a1.5,1.5,0,0,0,1.34-2.17l-4-8a1.5,1.5,0,0,0-2.68,0l-4,8A1.5,1.5,0,0,0,67.5,344Zm-.44-1.72,4-8h0a.5.5,0,0,1,.9,0l4,8a.45.45,0,0,1,0,.48.48.48,0,0,1-.42.24h-8a.48.48,0,0,1-.42-.24A.45.45,0,0,1,67.06,342.28Z"/><path class="cls-4" d="M62,346H55a2,2,0,0,0-2,2v7a2,2,0,0,0,2,2h7a2,2,0,0,0,2-2v-7A2,2,0,0,0,62,346Zm1,9a1,1,0,0,1-1,1H55a1,1,0,0,1-1-1v-7a1,1,0,0,1,1-1h7a1,1,0,0,1,1,1Z"/><path class="cls-4" d="M58.5,333a5.5,5.5,0,1,0,5.5,5.5A5.5,5.5,0,0,0,58.5,333Zm0,10a4.5,4.5,0,1,1,4.5-4.5A4.51,4.51,0,0,1,58.5,343Z"/><path class="cls-4" d="M71.5,346a5.5,5.5,0,1,0,5.5,5.5A5.5,5.5,0,0,0,71.5,346Zm0,10a4.5,4.5,0,1,1,4.5-4.5A4.51,4.51,0,0,1,71.5,356Z"/><path class="cls-1" d="M107.85,4.15l-3-3a.36.36,0,0,0-.16-.11.5.5,0,0,0-.38,0,.36.36,0,0,0-.16.11l-3,3a.49.49,0,0,0,.7.7L104,2.71V12.5a.5.5,0,0,0,1,0V2.71l2.15,2.14a.48.48,0,0,0,.7,0A.48.48,0,0,0,107.85,4.15Z"/><path class="cls-1" d="M87.15,9.85l3,3a.36.36,0,0,0,.16.11.5.5,0,0,0,.38,0,.36.36,0,0,0,.16-.11l3-3a.49.49,0,0,0-.7-.7L91,11.29V1.5a.5.5,0,0,0-1,0v9.79L87.85,9.15a.48.48,0,0,0-.7,0A.48.48,0,0,0,87.15,9.85Z"/><path class="cls-2" d="M87.15,23.85l3,3a.36.36,0,0,0,.16.11.5.5,0,0,0,.38,0,.36.36,0,0,0,.16-.11l3-3a.49.49,0,0,0-.7-.7L91,25.29V15.5a.5.5,0,0,0-1,0v9.79l-2.15-2.14a.48.48,0,0,0-.7,0A.48.48,0,0,0,87.15,23.85Z"/><path class="cls-3" d="M87.15,37.85l3,3a.36.36,0,0,0,.16.11.5.5,0,0,0,.38,0,.36.36,0,0,0,.16-.11l3-3a.49.49,0,0,0-.7-.7L91,39.29V29.5a.5.5,0,0,0-1,0v9.79l-2.15-2.14a.48.48,0,0,0-.7,0A.48.48,0,0,0,87.15,37.85Z"/><path class="cls-4" d="M87.15,51.85l3,3a.36.36,0,0,0,.16.11.5.5,0,0,0,.38,0,.36.36,0,0,0,.16-.11l3-3a.49.49,0,0,0-.7-.7L91,53.29V43.5a.5.5,0,0,0-1,0v9.79l-2.15-2.14a.48.48,0,0,0-.7,0A.48.48,0,0,0,87.15,51.85Z"/><path class="cls-2" d="M107.85,18.15l-3-3a.36.36,0,0,0-.16-.11.5.5,0,0,0-.38,0,.36.36,0,0,0-.16.11l-3,3a.49.49,0,0,0,.7.7L104,16.71V26.5a.5.5,0,0,0,1,0V16.71l2.15,2.14a.48.48,0,0,0,.7,0A.48.48,0,0,0,107.85,18.15Z"/><path class="cls-3" d="M107.85,32.15l-3-3a.36.36,0,0,0-.16-.11.5.5,0,0,0-.38,0,.36.36,0,0,0-.16.11l-3,3a.49.49,0,0,0,.7.7L104,30.71V40.5a.5.5,0,0,0,1,0V30.71l2.15,2.14a.48.48,0,0,0,.7,0A.48.48,0,0,0,107.85,32.15Z"/><path class="cls-4" d="M107.85,46.15l-3-3a.36.36,0,0,0-.16-.11.5.5,0,0,0-.38,0,.36.36,0,0,0-.16.11l-3,3a.49.49,0,0,0,.7.7L104,44.71V54.5a.5.5,0,0,0,1,0V44.71l2.15,2.14a.48.48,0,0,0,.7,0A.48.48,0,0,0,107.85,46.15Z"/><path class="cls-1" d="M204.5,67h-5a.5.5,0,0,0-.5.5v5a.5.5,0,0,0,1,0V68h4.5a.5.5,0,0,0,0-1Z"/><path class="cls-1" d="M214.5,67h-5a.5.5,0,0,0,0,1H214v4.5a.5.5,0,0,0,1,0v-5A.5.5,0,0,0,214.5,67Z"/><path class="cls-1" d="M214.5,77a.5.5,0,0,0-.5.5V82h-4.5a.5.5,0,0,0,0,1h5a.5.5,0,0,0,.5-.5v-5A.5.5,0,0,0,214.5,77Z"/><path class="cls-1" d="M204.5,82H200V77.5a.5.5,0,0,0-1,0v5a.5.5,0,0,0,.5.5h5a.5.5,0,0,0,0-1Z"/><path class="cls-2" d="M204.5,85h-5a.5.5,0,0,0-.5.5v5a.5.5,0,0,0,1,0V86h4.5a.5.5,0,0,0,0-1Z"/><path class="cls-2" d="M214.5,85h-5a.5.5,0,0,0,0,1H214v4.5a.5.5,0,0,0,1,0v-5A.5.5,0,0,0,214.5,85Z"/><path class="cls-2" d="M214.5,95a.5.5,0,0,0-.5.5V100h-4.5a.5.5,0,0,0,0,1h5a.5.5,0,0,0,.5-.5v-5A.5.5,0,0,0,214.5,95Z"/><path class="cls-2" d="M204.5,100H200V95.5a.5.5,0,0,0-1,0v5a.5.5,0,0,0,.5.5h5a.5.5,0,0,0,0-1Z"/><path class="cls-3" d="M204.5,103h-5a.5.5,0,0,0-.5.5v5a.5.5,0,0,0,1,0V104h4.5a.5.5,0,0,0,0-1Z"/><path class="cls-3" d="M214.5,103h-5a.5.5,0,0,0,0,1H214v4.5a.5.5,0,0,0,1,0v-5A.5.5,0,0,0,214.5,103Z"/><path class="cls-3" d="M214.5,113a.5.5,0,0,0-.5.5V118h-4.5a.5.5,0,0,0,0,1h5a.5.5,0,0,0,.5-.5v-5A.5.5,0,0,0,214.5,113Z"/><path class="cls-3" d="M204.5,118H200v-4.5a.5.5,0,0,0-1,0v5a.5.5,0,0,0,.5.5h5a.5.5,0,0,0,0-1Z"/><path class="cls-4" d="M204.5,121h-5a.5.5,0,0,0-.5.5v5a.5.5,0,0,0,1,0V122h4.5a.5.5,0,0,0,0-1Z"/><path class="cls-4" d="M214.5,121h-5a.5.5,0,0,0,0,1H214v4.5a.5.5,0,0,0,1,0v-5A.5.5,0,0,0,214.5,121Z"/><path class="cls-4" d="M214.5,131a.5.5,0,0,0-.5.5V136h-4.5a.5.5,0,0,0,0,1h5a.5.5,0,0,0,.5-.5v-5A.5.5,0,0,0,214.5,131Z"/><path class="cls-4" d="M204.5,136H200v-4.5a.5.5,0,0,0-1,0v5a.5.5,0,0,0,.5.5h5a.5.5,0,0,0,0-1Z"/><path class="cls-1" d="M222.5,67a.5.5,0,0,0-.5.5V72h-4.5a.5.5,0,0,0,0,1h5a.5.5,0,0,0,.5-.5v-5A.5.5,0,0,0,222.5,67Z"/><path class="cls-1" d="M227.5,73h5a.5.5,0,0,0,0-1H228V67.5a.5.5,0,0,0-1,0v5A.5.5,0,0,0,227.5,73Z"/><path class="cls-1" d="M232.5,77h-5a.5.5,0,0,0-.5.5v5a.5.5,0,0,0,1,0V78h4.5a.5.5,0,0,0,0-1Z"/><path class="cls-1" d="M222.5,77h-5a.5.5,0,0,0,0,1H222v4.5a.5.5,0,0,0,1,0v-5A.5.5,0,0,0,222.5,77Z"/><path class="cls-2" d="M222.5,85a.5.5,0,0,0-.5.5V90h-4.5a.5.5,0,0,0,0,1h5a.5.5,0,0,0,.5-.5v-5A.5.5,0,0,0,222.5,85Z"/><path class="cls-2" d="M227.5,91h5a.5.5,0,0,0,0-1H228V85.5a.5.5,0,0,0-1,0v5A.5.5,0,0,0,227.5,91Z"/><path class="cls-2" d="M232.5,95h-5a.5.5,0,0,0-.5.5v5a.5.5,0,0,0,1,0V96h4.5a.5.5,0,0,0,0-1Z"/><path class="cls-2" d="M222.5,95h-5a.5.5,0,0,0,0,1H222v4.5a.5.5,0,0,0,1,0v-5A.5.5,0,0,0,222.5,95Z"/><path class="cls-3" d="M222.5,103a.5.5,0,0,0-.5.5V108h-4.5a.5.5,0,0,0,0,1h5a.5.5,0,0,0,.5-.5v-5A.5.5,0,0,0,222.5,103Z"/><path class="cls-3" d="M227.5,109h5a.5.5,0,0,0,0-1H228v-4.5a.5.5,0,0,0-1,0v5A.5.5,0,0,0,227.5,109Z"/><path class="cls-3" d="M232.5,113h-5a.5.5,0,0,0-.5.5v5a.5.5,0,0,0,1,0V114h4.5a.5.5,0,0,0,0-1Z"/><path class="cls-3" d="M222.5,113h-5a.5.5,0,0,0,0,1H222v4.5a.5.5,0,0,0,1,0v-5A.5.5,0,0,0,222.5,113Z"/><path class="cls-4" d="M222.5,121a.5.5,0,0,0-.5.5V126h-4.5a.5.5,0,0,0,0,1h5a.5.5,0,0,0,.5-.5v-5A.5.5,0,0,0,222.5,121Z"/><path class="cls-4" d="M227.5,127h5a.5.5,0,0,0,0-1H228v-4.5a.5.5,0,0,0-1,0v5A.5.5,0,0,0,227.5,127Z"/><path class="cls-4" d="M232.5,131h-5a.5.5,0,0,0-.5.5v5a.5.5,0,0,0,1,0V132h4.5a.5.5,0,0,0,0-1Z"/><path class="cls-4" d="M222.5,131h-5a.5.5,0,0,0,0,1H222v4.5a.5.5,0,0,0,1,0v-5A.5.5,0,0,0,222.5,131Z"/><path class="cls-1" d="M301.5,70a.5.5,0,0,0-.5.5v7.92a3.5,3.5,0,1,1-7,.08V70.62a2.58,2.58,0,0,1,1.87-2.54A2.5,2.5,0,0,1,299,70.5v8a1.5,1.5,0,0,1-3,0v-8a.5.5,0,0,0-1,0v7.88a2.58,2.58,0,0,0,1.87,2.54A2.5,2.5,0,0,0,300,78.5V70.58a3.5,3.5,0,1,0-7-.08v7.82a4.61,4.61,0,0,0,3.56,4.58A4.5,4.5,0,0,0,302,78.5v-8A.5.5,0,0,0,301.5,70Z"/><path class="cls-2" d="M301.5,88a.5.5,0,0,0-.5.5v7.92a3.5,3.5,0,1,1-7,.08V88.62a2.58,2.58,0,0,1,1.87-2.54A2.5,2.5,0,0,1,299,88.5v8a1.5,1.5,0,0,1-3,0v-8a.5.5,0,0,0-1,0v7.88a2.58,2.58,0,0,0,1.87,2.54A2.5,2.5,0,0,0,300,96.5V88.58a3.5,3.5,0,1,0-7-.08v7.82a4.61,4.61,0,0,0,3.56,4.58A4.5,4.5,0,0,0,302,96.5v-8A.5.5,0,0,0,301.5,88Z"/><path class="cls-3" d="M301.5,106a.5.5,0,0,0-.5.5v7.92a3.5,3.5,0,1,1-7,.08v-7.88a2.58,2.58,0,0,1,1.87-2.54A2.5,2.5,0,0,1,299,106.5v8a1.5,1.5,0,0,1-3,0v-8a.5.5,0,0,0-1,0v7.88a2.58,2.58,0,0,0,1.87,2.54A2.5,2.5,0,0,0,300,114.5v-7.92a3.5,3.5,0,1,0-7-.08v7.82a4.61,4.61,0,0,0,3.56,4.58,4.5,4.5,0,0,0,5.44-4.4v-8A.5.5,0,0,0,301.5,106Z"/><path class="cls-4" d="M301.5,124a.5.5,0,0,0-.5.5v7.92a3.5,3.5,0,1,1-7,.08v-7.88a2.58,2.58,0,0,1,1.87-2.54A2.5,2.5,0,0,1,299,124.5v8a1.5,1.5,0,0,1-3,0v-8a.5.5,0,0,0-1,0v7.88a2.58,2.58,0,0,0,1.87,2.54A2.5,2.5,0,0,0,300,132.5v-7.92a3.5,3.5,0,1,0-7-.08v7.82a4.61,4.61,0,0,0,3.56,4.58,4.5,4.5,0,0,0,5.44-4.4v-8A.5.5,0,0,0,301.5,124Z"/><path class="cls-1" d="M260.15,78.85a.36.36,0,0,0,.16.11.47.47,0,0,0,.38,0,.36.36,0,0,0,.16-.11l4-4a.49.49,0,1,0-.7-.7L261,77.29V66.5a.5.5,0,0,0-1,0V77.29l-3.15-3.14a.49.49,0,0,0-.7.7Z"/><path class="cls-1" d="M268.5,78a.5.5,0,0,0-.5.5V82H253V78.5a.5.5,0,0,0-1,0v4a.5.5,0,0,0,.5.5h16a.5.5,0,0,0,.5-.5v-4A.5.5,0,0,0,268.5,78Z"/><path class="cls-2" d="M286.5,84h-16a.5.5,0,0,0-.5.5v4a.5.5,0,0,0,1,0V85h15v3.5a.5.5,0,0,0,1,0v-4A.5.5,0,0,0,286.5,84Z"/><path class="cls-2" d="M278.85,88.15a.36.36,0,0,0-.16-.11.47.47,0,0,0-.38,0,.36.36,0,0,0-.16.11l-4,4a.49.49,0,0,0,.7.7L278,89.71V100.5a.5.5,0,0,0,1,0V89.71l3.15,3.14a.49.49,0,1,0,.7-.7Z"/><path class="cls-3" d="M286.5,102h-16a.5.5,0,0,0-.5.5v4a.5.5,0,0,0,1,0V103h15v3.5a.5.5,0,0,0,1,0v-4A.5.5,0,0,0,286.5,102Z"/><path class="cls-3" d="M278.85,106.15a.36.36,0,0,0-.16-.11.47.47,0,0,0-.38,0,.36.36,0,0,0-.16.11l-4,4a.49.49,0,0,0,.7.7l3.15-3.14V118.5a.5.5,0,0,0,1,0V107.71l3.15,3.14a.49.49,0,1,0,.7-.7Z"/><path class="cls-4" d="M286.5,120h-16a.5.5,0,0,0-.5.5v4a.5.5,0,0,0,1,0V121h15v3.5a.5.5,0,0,0,1,0v-4A.5.5,0,0,0,286.5,120Z"/><path class="cls-4" d="M278.85,124.15a.36.36,0,0,0-.16-.11.47.47,0,0,0-.38,0,.36.36,0,0,0-.16.11l-4,4a.49.49,0,0,0,.7.7l3.15-3.14V136.5a.5.5,0,0,0,1,0V125.71l3.15,3.14a.49.49,0,1,0,.7-.7Z"/><path class="cls-2" d="M260.15,96.85a.36.36,0,0,0,.16.11.47.47,0,0,0,.38,0,.36.36,0,0,0,.16-.11l4-4a.49.49,0,1,0-.7-.7L261,95.29V84.5a.5.5,0,0,0-1,0V95.29l-3.15-3.14a.49.49,0,0,0-.7.7Z"/><path class="cls-3" d="M260.15,114.85a.36.36,0,0,0,.16.11.47.47,0,0,0,.38,0,.36.36,0,0,0,.16-.11l4-4a.49.49,0,1,0-.7-.7L261,113.29V102.5a.5.5,0,0,0-1,0v10.79l-3.15-3.14a.49.49,0,0,0-.7.7Z"/><path class="cls-4" d="M260.15,132.85a.36.36,0,0,0,.16.11.47.47,0,0,0,.38,0,.36.36,0,0,0,.16-.11l4-4a.49.49,0,1,0-.7-.7L261,131.29V120.5a.5.5,0,0,0-1,0v10.79l-3.15-3.14a.49.49,0,0,0-.7.7Z"/><path class="cls-2" d="M268.5,96a.5.5,0,0,0-.5.5V100H253V96.5a.5.5,0,0,0-1,0v4a.5.5,0,0,0,.5.5h16a.5.5,0,0,0,.5-.5v-4A.5.5,0,0,0,268.5,96Z"/><path class="cls-3" d="M268.5,114a.5.5,0,0,0-.5.5V118H253v-3.5a.5.5,0,0,0-1,0v4a.5.5,0,0,0,.5.5h16a.5.5,0,0,0,.5-.5v-4A.5.5,0,0,0,268.5,114Z"/><path class="cls-4" d="M268.5,132a.5.5,0,0,0-.5.5V136H253v-3.5a.5.5,0,0,0-1,0v4a.5.5,0,0,0,.5.5h16a.5.5,0,0,0,.5-.5v-4A.5.5,0,0,0,268.5,132Z"/><path class="cls-1" d="M119.71,7l5.14-5.15a.48.48,0,0,0,0-.7.48.48,0,0,0-.7,0L119,6.29l-5.15-5.14a.48.48,0,0,0-.7,0,.48.48,0,0,0,0,.7L118.29,7l-5.14,5.15a.48.48,0,0,0,0,.7.48.48,0,0,0,.7,0L119,7.71l5.15,5.14a.48.48,0,0,0,.7,0,.48.48,0,0,0,0-.7Z"/><path class="cls-2" d="M119.71,21l5.14-5.15a.49.49,0,0,0-.7-.7L119,20.29l-5.15-5.14a.49.49,0,0,0-.7.7L118.29,21l-5.14,5.15a.48.48,0,0,0,0,.7.48.48,0,0,0,.7,0L119,21.71l5.15,5.14a.48.48,0,0,0,.7,0,.48.48,0,0,0,0-.7Z"/><path class="cls-3" d="M119.71,35l5.14-5.15a.49.49,0,0,0-.7-.7L119,34.29l-5.15-5.14a.49.49,0,0,0-.7.7L118.29,35l-5.14,5.15a.48.48,0,0,0,0,.7.48.48,0,0,0,.7,0L119,35.71l5.15,5.14a.48.48,0,0,0,.7,0,.48.48,0,0,0,0-.7Z"/><path class="cls-4" d="M119.71,49l5.14-5.15a.49.49,0,0,0-.7-.7L119,48.29l-5.15-5.14a.49.49,0,0,0-.7.7L118.29,49l-5.14,5.15a.48.48,0,0,0,0,.7.48.48,0,0,0,.7,0L119,49.71l5.15,5.14a.48.48,0,0,0,.7,0,.48.48,0,0,0,0-.7Z"/><path class="cls-1" d="M138.5,12h-12a.5.5,0,0,0,0,1h12a.5.5,0,0,0,0-1Z"/><path class="cls-1" d="M132.15,9.85a.36.36,0,0,0,.16.11.47.47,0,0,0,.38,0,.36.36,0,0,0,.16-.11l3-3a.49.49,0,0,0-.7-.7L133,8.29V1.5a.5.5,0,0,0-1,0V8.29l-2.15-2.14a.49.49,0,0,0-.7.7Z"/><path class="cls-1" d="M140.5,1h12a.5.5,0,0,0,.5-.5.5.5,0,0,0-.5-.5h-12a.5.5,0,0,0-.5.5A.5.5,0,0,0,140.5,1Z"/><path class="cls-1" d="M146.85,4.15a.36.36,0,0,0-.16-.11.47.47,0,0,0-.38,0,.36.36,0,0,0-.16.11l-3,3a.49.49,0,0,0,.7.7L146,5.71V12.5a.5.5,0,0,0,1,0V5.71l2.15,2.14a.49.49,0,1,0,.7-.7Z"/><path class="cls-2" d="M138.5,26h-12a.5.5,0,0,0,0,1h12a.5.5,0,0,0,0-1Z"/><path class="cls-2" d="M132.15,23.85a.36.36,0,0,0,.16.11.47.47,0,0,0,.38,0,.36.36,0,0,0,.16-.11l3-3a.49.49,0,0,0-.7-.7L133,22.29V15.5a.5.5,0,0,0-1,0v6.79l-2.15-2.14a.49.49,0,0,0-.7.7Z"/><path class="cls-3" d="M138.5,40h-12a.5.5,0,0,0,0,1h12a.5.5,0,0,0,0-1Z"/><path class="cls-3" d="M132.15,37.85a.36.36,0,0,0,.16.11.47.47,0,0,0,.38,0,.36.36,0,0,0,.16-.11l3-3a.49.49,0,0,0-.7-.7L133,36.29V29.5a.5.5,0,0,0-1,0v6.79l-2.15-2.14a.49.49,0,0,0-.7.7Z"/><path class="cls-4" d="M138.5,54h-12a.5.5,0,0,0,0,1h12a.5.5,0,0,0,0-1Z"/><path class="cls-4" d="M132.15,51.85a.36.36,0,0,0,.16.11.47.47,0,0,0,.38,0,.36.36,0,0,0,.16-.11l3-3a.49.49,0,0,0-.7-.7L133,50.29V43.5a.5.5,0,0,0-1,0v6.79l-2.15-2.14a.49.49,0,0,0-.7.7Z"/><path class="cls-2" d="M140.5,15h12a.5.5,0,0,0,0-1h-12a.5.5,0,0,0,0,1Z"/><path class="cls-2" d="M146.85,18.15a.36.36,0,0,0-.16-.11.47.47,0,0,0-.38,0,.36.36,0,0,0-.16.11l-3,3a.49.49,0,0,0,.7.7L146,19.71V26.5a.5.5,0,0,0,1,0V19.71l2.15,2.14a.49.49,0,0,0,.7-.7Z"/><path class="cls-3" d="M140.5,29h12a.5.5,0,0,0,0-1h-12a.5.5,0,0,0,0,1Z"/><path class="cls-3" d="M146.85,32.15a.36.36,0,0,0-.16-.11.47.47,0,0,0-.38,0,.36.36,0,0,0-.16.11l-3,3a.49.49,0,0,0,.7.7L146,33.71V40.5a.5.5,0,0,0,1,0V33.71l2.15,2.14a.49.49,0,0,0,.7-.7Z"/><path class="cls-4" d="M140.5,43h12a.5.5,0,0,0,0-1h-12a.5.5,0,0,0,0,1Z"/><path class="cls-4" d="M146.85,46.15a.36.36,0,0,0-.16-.11.47.47,0,0,0-.38,0,.36.36,0,0,0-.16.11l-3,3a.49.49,0,0,0,.7.7L146,47.71V54.5a.5.5,0,0,0,1,0V47.71l2.15,2.14a.49.49,0,0,0,.7-.7Z"/><path class="cls-5" d="M166.5,6H161V.5a.5.5,0,0,0-1,0V6h-5.5a.5.5,0,0,0,0,1H160v5.5a.5.5,0,0,0,1,0V7h5.5a.5.5,0,0,0,0-1Z"/><path class="cls-2" d="M166.5,20H161V14.5a.5.5,0,0,0-1,0V20h-5.5a.5.5,0,0,0,0,1H160v5.5a.5.5,0,0,0,1,0V21h5.5a.5.5,0,0,0,0-1Z"/><path class="cls-3" d="M166.5,34H161V28.5a.5.5,0,0,0-1,0V34h-5.5a.5.5,0,0,0,0,1H160v5.5a.5.5,0,0,0,1,0V35h5.5a.5.5,0,0,0,0-1Z"/><path class="cls-4" d="M166.5,48H161V42.5a.5.5,0,0,0-1,0V48h-5.5a.5.5,0,0,0,0,1H160v5.5a.5.5,0,0,0,1,0V49h5.5a.5.5,0,0,0,0-1Z"/><path class="cls-1" d="M204,263.24a1.35,1.35,0,0,0-.95,0v-.37a7.88,7.88,0,0,0-7.88-7.88h-.24a7.88,7.88,0,0,0-7.88,7.88v.37a1.41,1.41,0,0,0-.95,0,4.5,4.5,0,0,0,0,8.52,1.55,1.55,0,0,0,.47.08,1.39,1.39,0,0,0,.84-.28,1.48,1.48,0,0,0,.59-.84,0,0,0,0,0,0,0,.41.41,0,0,0,0-.19v-7.62a6.88,6.88,0,0,1,6.88-6.88h.24a6.88,6.88,0,0,1,6.88,6.88v9.62a3.84,3.84,0,0,1-3.83,3.84.5.5,0,0,0-.5.5.5.5,0,0,0,.5.5A4.84,4.84,0,0,0,203,272.5v-.75a1.36,1.36,0,0,0,.48.09,1.55,1.55,0,0,0,.47-.08,4.5,4.5,0,0,0,0-8.52ZM187,270.33a.52.52,0,0,1-.22.42.45.45,0,0,1-.4.07,3.51,3.51,0,0,1,0-6.64l.13,0a.45.45,0,0,1,.27.09.52.52,0,0,1,.22.42Zm16.62.49a.45.45,0,0,1-.4-.07.52.52,0,0,1-.22-.42v-5.66a.52.52,0,0,1,.22-.42.44.44,0,0,1,.26-.09l.14,0a3.51,3.51,0,0,1,0,6.64Z"/><path class="cls-1" d="M195,275a2,2,0,1,0,2,2A2,2,0,0,0,195,275Zm0,3a1,1,0,1,1,1-1A1,1,0,0,1,195,278Z"/><path class="cls-3" d="M204,315.24a1.35,1.35,0,0,0-.95,0v-.37a7.88,7.88,0,0,0-7.88-7.88h-.24a7.88,7.88,0,0,0-7.88,7.88v.37a1.41,1.41,0,0,0-.95,0,4.5,4.5,0,0,0,0,8.52,1.55,1.55,0,0,0,.47.08,1.39,1.39,0,0,0,.84-.28,1.48,1.48,0,0,0,.59-.84,0,0,0,0,0,0,0,.41.41,0,0,0,0-.19v-7.62a6.88,6.88,0,0,1,6.88-6.88h.24a6.88,6.88,0,0,1,6.88,6.88v9.62a3.84,3.84,0,0,1-3.83,3.84.5.5,0,0,0-.5.5.5.5,0,0,0,.5.5A4.84,4.84,0,0,0,203,324.5v-.75a1.36,1.36,0,0,0,.48.09,1.55,1.55,0,0,0,.47-.08,4.5,4.5,0,0,0,0-8.52ZM187,322.33a.52.52,0,0,1-.22.42.45.45,0,0,1-.4.07,3.51,3.51,0,0,1,0-6.64l.13,0a.45.45,0,0,1,.27.09.52.52,0,0,1,.22.42Zm16.62.49a.45.45,0,0,1-.4-.07.52.52,0,0,1-.22-.42v-5.66a.52.52,0,0,1,.22-.42.44.44,0,0,1,.26-.09l.14,0a3.51,3.51,0,0,1,0,6.64Z"/><path class="cls-3" d="M195,327a2,2,0,1,0,2,2A2,2,0,0,0,195,327Zm0,3a1,1,0,1,1,1-1A1,1,0,0,1,195,330Z"/><path class="cls-4" d="M204,341.24a1.35,1.35,0,0,0-.95,0v-.37a7.88,7.88,0,0,0-7.88-7.88h-.24a7.88,7.88,0,0,0-7.88,7.88v.37a1.41,1.41,0,0,0-.95,0,4.5,4.5,0,0,0,0,8.52,1.55,1.55,0,0,0,.47.08,1.39,1.39,0,0,0,.84-.28,1.48,1.48,0,0,0,.59-.84,0,0,0,0,0,0,0,.41.41,0,0,0,0-.19v-7.62a6.88,6.88,0,0,1,6.88-6.88h.24a6.88,6.88,0,0,1,6.88,6.88v9.62a3.84,3.84,0,0,1-3.83,3.84.5.5,0,0,0-.5.5.5.5,0,0,0,.5.5A4.84,4.84,0,0,0,203,350.5v-.75a1.36,1.36,0,0,0,.48.09,1.55,1.55,0,0,0,.47-.08,4.5,4.5,0,0,0,0-8.52ZM187,348.33a.52.52,0,0,1-.22.42.45.45,0,0,1-.4.07,3.51,3.51,0,0,1,0-6.64l.13,0a.45.45,0,0,1,.27.09.52.52,0,0,1,.22.42Zm16.62.49a.45.45,0,0,1-.4-.07.52.52,0,0,1-.22-.42v-5.66a.52.52,0,0,1,.22-.42.44.44,0,0,1,.26-.09l.14,0a3.51,3.51,0,0,1,0,6.64Z"/><path class="cls-4" d="M195,353a2,2,0,1,0,2,2A2,2,0,0,0,195,353Zm0,3a1,1,0,1,1,1-1A1,1,0,0,1,195,356Z"/><path class="cls-2" d="M204,289.24a1.35,1.35,0,0,0-.95,0v-.37a7.88,7.88,0,0,0-7.88-7.88h-.24a7.88,7.88,0,0,0-7.88,7.88v.37a1.41,1.41,0,0,0-.95,0,4.5,4.5,0,0,0,0,8.52,1.55,1.55,0,0,0,.47.08,1.39,1.39,0,0,0,.84-.28,1.48,1.48,0,0,0,.59-.84,0,0,0,0,0,0,0,.41.41,0,0,0,0-.19v-7.62a6.88,6.88,0,0,1,6.88-6.88h.24a6.88,6.88,0,0,1,6.88,6.88v9.62a3.84,3.84,0,0,1-3.83,3.84.5.5,0,0,0-.5.5.5.5,0,0,0,.5.5A4.84,4.84,0,0,0,203,298.5v-.75a1.36,1.36,0,0,0,.48.09,1.55,1.55,0,0,0,.47-.08,4.5,4.5,0,0,0,0-8.52ZM187,296.33a.52.52,0,0,1-.22.42.45.45,0,0,1-.4.07,3.51,3.51,0,0,1,0-6.64l.13,0a.45.45,0,0,1,.27.09.52.52,0,0,1,.22.42Zm16.62.49a.45.45,0,0,1-.4-.07.52.52,0,0,1-.22-.42v-5.66a.52.52,0,0,1,.22-.42.44.44,0,0,1,.26-.09l.14,0a3.51,3.51,0,0,1,0,6.64Z"/><path class="cls-2" d="M195,301a2,2,0,1,0,2,2A2,2,0,0,0,195,301Zm0,3a1,1,0,1,1,1-1A1,1,0,0,1,195,304Z"/><path class="cls-1" d="M231.5,255h-21a1.5,1.5,0,0,0-1.5,1.5v3a1.5,1.5,0,0,0,1.5,1.5h.5v16.5a1.5,1.5,0,0,0,1.5,1.5h17a1.5,1.5,0,0,0,1.5-1.5V261h.5a1.5,1.5,0,0,0,1.5-1.5v-3A1.5,1.5,0,0,0,231.5,255ZM230,277.5a.5.5,0,0,1-.5.5h-17a.5.5,0,0,1-.5-.5V261h18Zm2-18a.5.5,0,0,1-.5.5h-21a.5.5,0,0,1-.5-.5v-3a.5.5,0,0,1,.5-.5h21a.5.5,0,0,1,.5.5Z"/><path class="cls-1" d="M218.09,268h5.82a1.09,1.09,0,0,0,1.09-1.09v-1.82a1.09,1.09,0,0,0-1.09-1.09h-5.82a1.09,1.09,0,0,0-1.09,1.09v1.82A1.09,1.09,0,0,0,218.09,268Zm-.09-2.91a.09.09,0,0,1,.09-.09h5.82a.09.09,0,0,1,.09.09v1.82a.09.09,0,0,1-.09.09h-5.82a.09.09,0,0,1-.09-.09Z"/><path class="cls-2" d="M231.5,281h-21a1.5,1.5,0,0,0-1.5,1.5v3a1.5,1.5,0,0,0,1.5,1.5h.5v16.5a1.5,1.5,0,0,0,1.5,1.5h17a1.5,1.5,0,0,0,1.5-1.5V287h.5a1.5,1.5,0,0,0,1.5-1.5v-3A1.5,1.5,0,0,0,231.5,281ZM230,303.5a.5.5,0,0,1-.5.5h-17a.5.5,0,0,1-.5-.5V287h18Zm2-18a.5.5,0,0,1-.5.5h-21a.5.5,0,0,1-.5-.5v-3a.5.5,0,0,1,.5-.5h21a.5.5,0,0,1,.5.5Z"/><path class="cls-2" d="M218.09,294h5.82a1.09,1.09,0,0,0,1.09-1.09v-1.82a1.09,1.09,0,0,0-1.09-1.09h-5.82a1.09,1.09,0,0,0-1.09,1.09v1.82A1.09,1.09,0,0,0,218.09,294Zm-.09-2.91a.09.09,0,0,1,.09-.09h5.82a.09.09,0,0,1,.09.09v1.82a.09.09,0,0,1-.09.09h-5.82a.09.09,0,0,1-.09-.09Z"/><path class="cls-3" d="M231.5,307h-21a1.5,1.5,0,0,0-1.5,1.5v3a1.5,1.5,0,0,0,1.5,1.5h.5v16.5a1.5,1.5,0,0,0,1.5,1.5h17a1.5,1.5,0,0,0,1.5-1.5V313h.5a1.5,1.5,0,0,0,1.5-1.5v-3A1.5,1.5,0,0,0,231.5,307ZM230,329.5a.5.5,0,0,1-.5.5h-17a.5.5,0,0,1-.5-.5V313h18Zm2-18a.5.5,0,0,1-.5.5h-21a.5.5,0,0,1-.5-.5v-3a.5.5,0,0,1,.5-.5h21a.5.5,0,0,1,.5.5Z"/><path class="cls-3" d="M218.09,320h5.82a1.09,1.09,0,0,0,1.09-1.09v-1.82a1.09,1.09,0,0,0-1.09-1.09h-5.82a1.09,1.09,0,0,0-1.09,1.09v1.82A1.09,1.09,0,0,0,218.09,320Zm-.09-2.91a.09.09,0,0,1,.09-.09h5.82a.09.09,0,0,1,.09.09v1.82a.09.09,0,0,1-.09.09h-5.82a.09.09,0,0,1-.09-.09Z"/><path class="cls-4" d="M231.5,333h-21a1.5,1.5,0,0,0-1.5,1.5v3a1.5,1.5,0,0,0,1.5,1.5h.5v16.5a1.5,1.5,0,0,0,1.5,1.5h17a1.5,1.5,0,0,0,1.5-1.5V339h.5a1.5,1.5,0,0,0,1.5-1.5v-3A1.5,1.5,0,0,0,231.5,333ZM230,355.5a.5.5,0,0,1-.5.5h-17a.5.5,0,0,1-.5-.5V339h18Zm2-18a.5.5,0,0,1-.5.5h-21a.5.5,0,0,1-.5-.5v-3a.5.5,0,0,1,.5-.5h21a.5.5,0,0,1,.5.5Z"/><path class="cls-4" d="M218.09,346h5.82a1.09,1.09,0,0,0,1.09-1.09v-1.82a1.09,1.09,0,0,0-1.09-1.09h-5.82a1.09,1.09,0,0,0-1.09,1.09v1.82A1.09,1.09,0,0,0,218.09,346Zm-.09-2.91a.09.09,0,0,1,.09-.09h5.82a.09.09,0,0,1,.09.09v1.82a.09.09,0,0,1-.09.09h-5.82a.09.09,0,0,1-.09-.09Z"/><path class="cls-1" d="M309.5,83h-1a1.5,1.5,0,0,1-1.5-1.5v-5a1.5,1.5,0,0,1,1.5-1.5h1a1.5,1.5,0,0,1,1.5,1.5v5A1.5,1.5,0,0,1,309.5,83Zm-1-7a.5.5,0,0,0-.5.5v5a.5.5,0,0,0,.5.5h1a.5.5,0,0,0,.5-.5v-5a.5.5,0,0,0-.5-.5Z"/><path class="cls-1" d="M321.5,83h-1a1.5,1.5,0,0,1-1.5-1.5v-9a1.5,1.5,0,0,1,1.5-1.5h1a1.5,1.5,0,0,1,1.5,1.5v9A1.5,1.5,0,0,1,321.5,83Zm-1-11a.5.5,0,0,0-.5.5v9a.5.5,0,0,0,.5.5h1a.5.5,0,0,0,.5-.5v-9a.5.5,0,0,0-.5-.5Z"/><path class="cls-1" d="M315.5,83h-1a1.5,1.5,0,0,1-1.5-1.5v-13a1.5,1.5,0,0,1,1.5-1.5h1a1.5,1.5,0,0,1,1.5,1.5v13A1.5,1.5,0,0,1,315.5,83Zm-1-15a.5.5,0,0,0-.5.5v13a.5.5,0,0,0,.5.5h1a.5.5,0,0,0,.5-.5v-13a.5.5,0,0,0-.5-.5Z"/><path class="cls-2" d="M309.5,101h-1a1.5,1.5,0,0,1-1.5-1.5v-5a1.5,1.5,0,0,1,1.5-1.5h1a1.5,1.5,0,0,1,1.5,1.5v5A1.5,1.5,0,0,1,309.5,101Zm-1-7a.5.5,0,0,0-.5.5v5a.5.5,0,0,0,.5.5h1a.5.5,0,0,0,.5-.5v-5a.5.5,0,0,0-.5-.5Z"/><path class="cls-2" d="M321.5,101h-1a1.5,1.5,0,0,1-1.5-1.5v-9a1.5,1.5,0,0,1,1.5-1.5h1a1.5,1.5,0,0,1,1.5,1.5v9A1.5,1.5,0,0,1,321.5,101Zm-1-11a.5.5,0,0,0-.5.5v9a.5.5,0,0,0,.5.5h1a.5.5,0,0,0,.5-.5v-9a.5.5,0,0,0-.5-.5Z"/><path class="cls-2" d="M315.5,101h-1a1.5,1.5,0,0,1-1.5-1.5v-13a1.5,1.5,0,0,1,1.5-1.5h1a1.5,1.5,0,0,1,1.5,1.5v13A1.5,1.5,0,0,1,315.5,101Zm-1-15a.5.5,0,0,0-.5.5v13a.5.5,0,0,0,.5.5h1a.5.5,0,0,0,.5-.5v-13a.5.5,0,0,0-.5-.5Z"/><path class="cls-3" d="M309.5,119h-1a1.5,1.5,0,0,1-1.5-1.5v-5a1.5,1.5,0,0,1,1.5-1.5h1a1.5,1.5,0,0,1,1.5,1.5v5A1.5,1.5,0,0,1,309.5,119Zm-1-7a.5.5,0,0,0-.5.5v5a.5.5,0,0,0,.5.5h1a.5.5,0,0,0,.5-.5v-5a.5.5,0,0,0-.5-.5Z"/><path class="cls-3" d="M321.5,119h-1a1.5,1.5,0,0,1-1.5-1.5v-9a1.5,1.5,0,0,1,1.5-1.5h1a1.5,1.5,0,0,1,1.5,1.5v9A1.5,1.5,0,0,1,321.5,119Zm-1-11a.5.5,0,0,0-.5.5v9a.5.5,0,0,0,.5.5h1a.5.5,0,0,0,.5-.5v-9a.5.5,0,0,0-.5-.5Z"/><path class="cls-3" d="M315.5,119h-1a1.5,1.5,0,0,1-1.5-1.5v-13a1.5,1.5,0,0,1,1.5-1.5h1a1.5,1.5,0,0,1,1.5,1.5v13A1.5,1.5,0,0,1,315.5,119Zm-1-15a.5.5,0,0,0-.5.5v13a.5.5,0,0,0,.5.5h1a.5.5,0,0,0,.5-.5v-13a.5.5,0,0,0-.5-.5Z"/><path class="cls-4" d="M309.5,137h-1a1.5,1.5,0,0,1-1.5-1.5v-5a1.5,1.5,0,0,1,1.5-1.5h1a1.5,1.5,0,0,1,1.5,1.5v5A1.5,1.5,0,0,1,309.5,137Zm-1-7a.5.5,0,0,0-.5.5v5a.5.5,0,0,0,.5.5h1a.5.5,0,0,0,.5-.5v-5a.5.5,0,0,0-.5-.5Z"/><path class="cls-4" d="M321.5,137h-1a1.5,1.5,0,0,1-1.5-1.5v-9a1.5,1.5,0,0,1,1.5-1.5h1a1.5,1.5,0,0,1,1.5,1.5v9A1.5,1.5,0,0,1,321.5,137Zm-1-11a.5.5,0,0,0-.5.5v9a.5.5,0,0,0,.5.5h1a.5.5,0,0,0,.5-.5v-9a.5.5,0,0,0-.5-.5Z"/><path class="cls-4" d="M315.5,137h-1a1.5,1.5,0,0,1-1.5-1.5v-13a1.5,1.5,0,0,1,1.5-1.5h1a1.5,1.5,0,0,1,1.5,1.5v13A1.5,1.5,0,0,1,315.5,137Zm-1-15a.5.5,0,0,0-.5.5v13a.5.5,0,0,0,.5.5h1a.5.5,0,0,0,.5-.5v-13a.5.5,0,0,0-.5-.5Z"/><path class="cls-1" d="M340.5,70h-15a.5.5,0,0,1,0-1h15a.5.5,0,0,1,0,1Z"/><path class="cls-1" d="M340.5,76h-15a.5.5,0,0,1,0-1h15a.5.5,0,0,1,0,1Z"/><path class="cls-1" d="M340.5,82h-15a.5.5,0,0,1,0-1h15a.5.5,0,0,1,0,1Z"/><path class="cls-2" d="M340.5,87h-15a.5.5,0,0,1,0-1h15a.5.5,0,0,1,0,1Z"/><path class="cls-2" d="M340.5,93h-15a.5.5,0,0,1,0-1h15a.5.5,0,0,1,0,1Z"/><path class="cls-2" d="M340.5,99h-15a.5.5,0,0,1,0-1h15a.5.5,0,0,1,0,1Z"/><path class="cls-3" d="M340.5,106h-15a.5.5,0,0,1,0-1h15a.5.5,0,0,1,0,1Z"/><path class="cls-3" d="M340.5,112h-15a.5.5,0,0,1,0-1h15a.5.5,0,0,1,0,1Z"/><path class="cls-3" d="M340.5,118h-15a.5.5,0,0,1,0-1h15a.5.5,0,0,1,0,1Z"/><path class="cls-4" d="M340.5,124h-15a.5.5,0,0,1,0-1h15a.5.5,0,0,1,0,1Z"/><path class="cls-4" d="M340.5,130h-15a.5.5,0,0,1,0-1h15a.5.5,0,0,1,0,1Z"/><path class="cls-4" d="M340.5,136h-15a.5.5,0,0,1,0-1h15a.5.5,0,0,1,0,1Z"/><path class="cls-5" d="M180.5,6h-12a.5.5,0,0,0,0,1h12a.5.5,0,0,0,0-1Z"/><path class="cls-2" d="M180.5,20h-12a.5.5,0,0,0,0,1h12a.5.5,0,0,0,0-1Z"/><path class="cls-3" d="M180.5,34h-12a.5.5,0,0,0,0,1h12a.5.5,0,0,0,0-1Z"/><path class="cls-4" d="M180.5,48h-12a.5.5,0,0,0,0,1h12a.5.5,0,0,0,0-1Z"/><path class="cls-6" d="M252,266.5a.5.5,0,0,0-.5-.5H247v-4.5a.5.5,0,0,0-1,0V266h-4.5a.5.5,0,0,0,0,1H246v4.5a.5.5,0,0,0,1,0V267h4.5A.5.5,0,0,0,252,266.5Z"/><path class="cls-6" d="M256.5,255h-5a1.5,1.5,0,0,0-1.5,1.5v5a1.5,1.5,0,0,0,1.5,1.5h5a1.5,1.5,0,0,0,1.5-1.5v-5A1.5,1.5,0,0,0,256.5,255Zm.5,6.5a.5.5,0,0,1-.5.5h-5a.5.5,0,0,1-.5-.5v-5a.5.5,0,0,1,.5-.5h5a.5.5,0,0,1,.5.5Z"/><path class="cls-6" d="M236.5,263h5a1.5,1.5,0,0,0,1.5-1.5v-5a1.5,1.5,0,0,0-1.5-1.5h-5a1.5,1.5,0,0,0-1.5,1.5v5A1.5,1.5,0,0,0,236.5,263Zm-.5-6.5a.5.5,0,0,1,.5-.5h5a.5.5,0,0,1,.5.5v5a.5.5,0,0,1-.5.5h-5a.5.5,0,0,1-.5-.5Z"/><path class="cls-6" d="M256.5,270h-5a1.5,1.5,0,0,0-1.5,1.5v5a1.5,1.5,0,0,0,1.5,1.5h5a1.5,1.5,0,0,0,1.5-1.5v-5A1.5,1.5,0,0,0,256.5,270Zm.5,6.5a.5.5,0,0,1-.5.5h-5a.5.5,0,0,1-.5-.5v-5a.5.5,0,0,1,.5-.5h5a.5.5,0,0,1,.5.5Z"/><path class="cls-6" d="M241.5,270h-5a1.5,1.5,0,0,0-1.5,1.5v5a1.5,1.5,0,0,0,1.5,1.5h5a1.5,1.5,0,0,0,1.5-1.5v-5A1.5,1.5,0,0,0,241.5,270Zm.5,6.5a.5.5,0,0,1-.5.5h-5a.5.5,0,0,1-.5-.5v-5a.5.5,0,0,1,.5-.5h5a.5.5,0,0,1,.5.5Z"/><path class="cls-2" d="M252,292.5a.5.5,0,0,0-.5-.5H247v-4.5a.5.5,0,0,0-1,0V292h-4.5a.5.5,0,0,0,0,1H246v4.5a.5.5,0,0,0,1,0V293h4.5A.5.5,0,0,0,252,292.5Z"/><path class="cls-2" d="M256.5,281h-5a1.5,1.5,0,0,0-1.5,1.5v5a1.5,1.5,0,0,0,1.5,1.5h5a1.5,1.5,0,0,0,1.5-1.5v-5A1.5,1.5,0,0,0,256.5,281Zm.5,6.5a.5.5,0,0,1-.5.5h-5a.5.5,0,0,1-.5-.5v-5a.5.5,0,0,1,.5-.5h5a.5.5,0,0,1,.5.5Z"/><path class="cls-2" d="M236.5,289h5a1.5,1.5,0,0,0,1.5-1.5v-5a1.5,1.5,0,0,0-1.5-1.5h-5a1.5,1.5,0,0,0-1.5,1.5v5A1.5,1.5,0,0,0,236.5,289Zm-.5-6.5a.5.5,0,0,1,.5-.5h5a.5.5,0,0,1,.5.5v5a.5.5,0,0,1-.5.5h-5a.5.5,0,0,1-.5-.5Z"/><path class="cls-2" d="M256.5,296h-5a1.5,1.5,0,0,0-1.5,1.5v5a1.5,1.5,0,0,0,1.5,1.5h5a1.5,1.5,0,0,0,1.5-1.5v-5A1.5,1.5,0,0,0,256.5,296Zm.5,6.5a.5.5,0,0,1-.5.5h-5a.5.5,0,0,1-.5-.5v-5a.5.5,0,0,1,.5-.5h5a.5.5,0,0,1,.5.5Z"/><path class="cls-2" d="M241.5,296h-5a1.5,1.5,0,0,0-1.5,1.5v5a1.5,1.5,0,0,0,1.5,1.5h5a1.5,1.5,0,0,0,1.5-1.5v-5A1.5,1.5,0,0,0,241.5,296Zm.5,6.5a.5.5,0,0,1-.5.5h-5a.5.5,0,0,1-.5-.5v-5a.5.5,0,0,1,.5-.5h5a.5.5,0,0,1,.5.5Z"/><path class="cls-3" d="M252,318.5a.5.5,0,0,0-.5-.5H247v-4.5a.5.5,0,0,0-1,0V318h-4.5a.5.5,0,0,0,0,1H246v4.5a.5.5,0,0,0,1,0V319h4.5A.5.5,0,0,0,252,318.5Z"/><path class="cls-3" d="M256.5,307h-5a1.5,1.5,0,0,0-1.5,1.5v5a1.5,1.5,0,0,0,1.5,1.5h5a1.5,1.5,0,0,0,1.5-1.5v-5A1.5,1.5,0,0,0,256.5,307Zm.5,6.5a.5.5,0,0,1-.5.5h-5a.5.5,0,0,1-.5-.5v-5a.5.5,0,0,1,.5-.5h5a.5.5,0,0,1,.5.5Z"/><path class="cls-3" d="M236.5,315h5a1.5,1.5,0,0,0,1.5-1.5v-5a1.5,1.5,0,0,0-1.5-1.5h-5a1.5,1.5,0,0,0-1.5,1.5v5A1.5,1.5,0,0,0,236.5,315Zm-.5-6.5a.5.5,0,0,1,.5-.5h5a.5.5,0,0,1,.5.5v5a.5.5,0,0,1-.5.5h-5a.5.5,0,0,1-.5-.5Z"/><path class="cls-3" d="M256.5,322h-5a1.5,1.5,0,0,0-1.5,1.5v5a1.5,1.5,0,0,0,1.5,1.5h5a1.5,1.5,0,0,0,1.5-1.5v-5A1.5,1.5,0,0,0,256.5,322Zm.5,6.5a.5.5,0,0,1-.5.5h-5a.5.5,0,0,1-.5-.5v-5a.5.5,0,0,1,.5-.5h5a.5.5,0,0,1,.5.5Z"/><path class="cls-3" d="M241.5,322h-5a1.5,1.5,0,0,0-1.5,1.5v5a1.5,1.5,0,0,0,1.5,1.5h5a1.5,1.5,0,0,0,1.5-1.5v-5A1.5,1.5,0,0,0,241.5,322Zm.5,6.5a.5.5,0,0,1-.5.5h-5a.5.5,0,0,1-.5-.5v-5a.5.5,0,0,1,.5-.5h5a.5.5,0,0,1,.5.5Z"/><path class="cls-4" d="M252,344.5a.5.5,0,0,0-.5-.5H247v-4.5a.5.5,0,0,0-1,0V344h-4.5a.5.5,0,0,0,0,1H246v4.5a.5.5,0,0,0,1,0V345h4.5A.5.5,0,0,0,252,344.5Z"/><path class="cls-4" d="M256.5,333h-5a1.5,1.5,0,0,0-1.5,1.5v5a1.5,1.5,0,0,0,1.5,1.5h5a1.5,1.5,0,0,0,1.5-1.5v-5A1.5,1.5,0,0,0,256.5,333Zm.5,6.5a.5.5,0,0,1-.5.5h-5a.5.5,0,0,1-.5-.5v-5a.5.5,0,0,1,.5-.5h5a.5.5,0,0,1,.5.5Z"/><path class="cls-4" d="M236.5,341h5a1.5,1.5,0,0,0,1.5-1.5v-5a1.5,1.5,0,0,0-1.5-1.5h-5a1.5,1.5,0,0,0-1.5,1.5v5A1.5,1.5,0,0,0,236.5,341Zm-.5-6.5a.5.5,0,0,1,.5-.5h5a.5.5,0,0,1,.5.5v5a.5.5,0,0,1-.5.5h-5a.5.5,0,0,1-.5-.5Z"/><path class="cls-4" d="M256.5,348h-5a1.5,1.5,0,0,0-1.5,1.5v5a1.5,1.5,0,0,0,1.5,1.5h5a1.5,1.5,0,0,0,1.5-1.5v-5A1.5,1.5,0,0,0,256.5,348Zm.5,6.5a.5.5,0,0,1-.5.5h-5a.5.5,0,0,1-.5-.5v-5a.5.5,0,0,1,.5-.5h5a.5.5,0,0,1,.5.5Z"/><path class="cls-4" d="M241.5,348h-5a1.5,1.5,0,0,0-1.5,1.5v5a1.5,1.5,0,0,0,1.5,1.5h5a1.5,1.5,0,0,0,1.5-1.5v-5A1.5,1.5,0,0,0,241.5,348Zm.5,6.5a.5.5,0,0,1-.5.5h-5a.5.5,0,0,1-.5-.5v-5a.5.5,0,0,1,.5-.5h5a.5.5,0,0,1,.5.5Z"/></g><g id="Leisure"><path class="cls-1" d="M240.69,67a.47.47,0,0,0-.54.11l-5,5a.49.49,0,0,0,.7.7L240,68.71V82.5a.5.5,0,0,0,1,0v-15A.5.5,0,0,0,240.69,67Z"/><path class="cls-1" d="M250.85,77.15a.48.48,0,0,0-.7,0L246,81.29V67.5a.5.5,0,0,0-1,0v15a.5.5,0,0,0,.31.46.43.43,0,0,0,.19,0,.47.47,0,0,0,.35-.15l5-5A.48.48,0,0,0,250.85,77.15Z"/><path class="cls-2" d="M240.69,85a.47.47,0,0,0-.54.11l-5,5a.49.49,0,0,0,.7.7L240,86.71V100.5a.5.5,0,0,0,1,0v-15A.5.5,0,0,0,240.69,85Z"/><path class="cls-2" d="M250.85,95.15a.48.48,0,0,0-.7,0L246,99.29V85.5a.5.5,0,0,0-1,0v15a.5.5,0,0,0,.31.46.43.43,0,0,0,.19,0,.47.47,0,0,0,.35-.15l5-5A.48.48,0,0,0,250.85,95.15Z"/><path class="cls-3" d="M240.69,103a.47.47,0,0,0-.54.11l-5,5a.49.49,0,0,0,.7.7l4.15-4.14V118.5a.5.5,0,0,0,1,0v-15A.5.5,0,0,0,240.69,103Z"/><path class="cls-3" d="M250.85,113.15a.48.48,0,0,0-.7,0L246,117.29V103.5a.5.5,0,0,0-1,0v15a.5.5,0,0,0,.31.46.43.43,0,0,0,.19,0,.47.47,0,0,0,.35-.15l5-5A.48.48,0,0,0,250.85,113.15Z"/><path class="cls-4" d="M240.69,121a.47.47,0,0,0-.54.11l-5,5a.49.49,0,0,0,.7.7l4.15-4.14V136.5a.5.5,0,0,0,1,0v-15A.5.5,0,0,0,240.69,121Z"/><path class="cls-4" d="M250.85,131.15a.48.48,0,0,0-.7,0L246,135.29V121.5a.5.5,0,0,0-1,0v15a.5.5,0,0,0,.31.46.43.43,0,0,0,.19,0,.47.47,0,0,0,.35-.15l5-5A.48.48,0,0,0,250.85,131.15Z"/><path class="cls-1" d="M278.85,70.15a.36.36,0,0,0-.16-.11.47.47,0,0,0-.38,0,.36.36,0,0,0-.16.11l-4,4a.49.49,0,0,0,.7.7L278,71.71V82.5a.5.5,0,0,0,1,0V71.71l3.15,3.14a.49.49,0,1,0,.7-.7Z"/><path class="cls-1" d="M286.5,66h-16a.5.5,0,0,0-.5.5v4a.5.5,0,0,0,1,0V67h15v3.5a.5.5,0,0,0,1,0v-4A.5.5,0,0,0,286.5,66Z"/></g></svg>